<mxfile host="app.diagrams.net" modified="2023-02-20T15:57:52.822Z" agent="5.0 (Macintosh; Intel Mac OS X 10_15_7) AppleWebKit/605.1.15 (KHTML, like Gecko) Version/16.3 Safari/605.1.15" etag="E9-6Q_9JVj8y4Kum-ifZ" version="20.8.20" type="github">
  <diagram name="Page-1" id="JrdC-CP_rbddCn7Heh3e">
    <mxGraphModel dx="1242" dy="741" grid="1" gridSize="10" guides="1" tooltips="1" connect="1" arrows="1" fold="1" page="1" pageScale="1" pageWidth="850" pageHeight="1100" math="0" shadow="0">
      <root>
        <mxCell id="0" />
        <mxCell id="1" parent="0" />
        <UserObject label="" plantUmlData="{&quot;data&quot;:&quot;@startmindmap\n* Python Programming Language\n** Characteristics\n*** Object-Oriented\n*** Dynamic\n*** Interpreted\n*** High-level\n** Data Models\n*** Mutable Sequence\n**** List\n**** Byte Array\n**** bytearray\n*** Immutable Sequence\n**** Tuple\n**** String\n**** bytes\n**** range\n*** Set\n**** Set\n**** Frozenset\n*** Mapping\n**** Dictionary\n*** Other Built-In Types\n**** Boolean\n**** Numeric Types\n**** None\n**** Ellipsis\n**** NotImplemented\n**** Function\n**** Generator\n**** Coroutine\n** Data Structures\n*** Arrays\n*** Stacks\n**** LIFO\n**** FILO\n*** Queues\n**** FIFO\n**** Priority Queue\n**** Double-Ended Queue\n**** Circular Queue\n*** Linked Lists\n**** Singly Linked List\n**** Doubly Linked List\n**** Circular Linked List\n*** Trees\n**** Binary Trees\n**** AVL Trees\n**** Red-Black Trees\n**** B-Trees\n*** Graphs\n**** Directed Graph\n**** Undirected Graph\n**** Weighted Graph\n**** Cyclic Graph\n**** Acyclic Graph\n** Uses\n*** Scientific Computing\n**** Matplotlib\n**** SymPy\n**** SciPy\n**** NumPy\n*** Data Analysis\n**** Pandas\n**** DataFrames\n**** Series\n**** I/O Tools\n**** Visualization\n**** SQL Integration\n*** Web Development\n**** Flask\n**** Django\n**** Pyramid\n**** FastAPI\n*** Machine Learning\n**** TensorFlow\n**** Keras\n**** PyTorch\n**** Scikit-learn\n**** OpenCV\n**** Natural Language Toolkit\n** Libraries\n*** Matplotlib\n**** Pyplot\n**** Animation\n**** 3D Plots\n*** SymPy\n**** Symbolic Computation\n**** Calculus\n**** Algebra\n*** SciPy\n**** Optimization\n**** Linear Algebra\n**** Integration\n**** Signal Processing\n**** Fourier Transform\n*** NumPy\n**** Arrays\n**** Matrices\n**** Random Number Generation\n**** Broadcasting\n**** Indexing\n**** Slicing\n*** Pandas\n**** DataFrames\n**** Series\n**** I/O Tools\n**** Reshaping\n**** Merging\n**** Grouping\n**** Aggregating\n**** Pivot Tables\n**** Time Series\n*** Scikit-learn\n**** Supervised Learning\n**** Unsupervised Learning\n**** Dimensionality Reduction\n**** Model Selection\n**** Preprocessing\n*** TensorFlow\n**** Neural Networks\n**** Convolutional Neural Networks\n**** Recurrent Neural Networks\n**** Autoencoders\n**** Transfer Learning\n**** Reinforcement Learning\n**** TensorBoard\n*** PyTorch\n**** Tensor Computation\n**** Autograd System\n**** Neural Networks\n**** Convolutional Neural Networks\n**** Recurrent Neural Networks\n**** Autoencoders\n**** Transfer Learning\n**** Reinforcement Learning\n*** OpenCV\n**** Image Processing\n**** Computer Vision\n**** Object Detection\n**** Face Recognition\n**** Feature Detection\n**** Optical Flow\n*** Natural Language Toolkit\n**** Tokenization\n**** Part-of-Speech Tagging\n**** Named Entity Recognition\n**** Sentiment Analysis\n**** WordNet\n**** Stemming\n**** Lemmatization\n** Frameworks\n*** Flask\n**** Routing\n**** HTTP Methods\n**** Templates\n**** Sessions\n**** Cookies\n**** Blueprints\n*** Django\n**** Admin Interface\n**** ORM\n**** Routing\n**** Forms\n**** Templates\n**** Sessions\n**** Caching\n**** Security\n*** Pyramid\n**** Routing\n**** Templating\n**** Security\n**** Authorization\n**** Session Management\n*** FastAPI\n**** High Performance\n**** Type Annotations\n**** API Generation\n**** Asyncio\n**** Security\n**** OAuth2\n@endmindmap\n&quot;,&quot;format&quot;:&quot;svg&quot;}" id="WGxXw7o9CCIm-kMxiP5V-1">
          <mxCell style="shape=image;noLabel=1;verticalAlign=top;aspect=fixed;imageAspect=0;image=data:image/svg+xml,PD94bWwgdmVyc2lvbj0iMS4wIiBlbmNvZGluZz0iVVRGLTgiIHN0YW5kYWxvbmU9Im5vIj8+PHN2ZyB4bWxucz0iaHR0cDovL3d3dy53My5vcmcvMjAwMC9zdmciIHhtbG5zOnhsaW5rPSJodHRwOi8vd3d3LnczLm9yZy8xOTk5L3hsaW5rIiBjb250ZW50U3R5bGVUeXBlPSJ0ZXh0L2NzcyIgaGVpZ2h0PSI3OTY3cHgiIHByZXNlcnZlQXNwZWN0UmF0aW89Im5vbmUiIHN0eWxlPSJ3aWR0aDo4NDNweDtoZWlnaHQ6Nzk2N3B4O2JhY2tncm91bmQ6I0ZGRkZGRjsiIHZlcnNpb249IjEuMSIgdmlld0JveD0iMCAwIDg0MyA3OTY3IiB3aWR0aD0iODQzcHgiIHpvb21BbmRQYW49Im1hZ25pZnkiPjxkZWZzLz48Zz48cmVjdCBmaWxsPSIjRjFGMUYxIiBoZWlnaHQ9IjM0Ljk4NDQiIHJ4PSIxMi41IiByeT0iMTIuNSIgc3R5bGU9InN0cm9rZTojMTgxODE4O3N0cm9rZS13aWR0aDoxLjU7IiB3aWR0aD0iMjExIiB4PSIxMCIgeT0iMzk2NS4xMjg5Ii8+PHRleHQgZmlsbD0iIzAwMDAwMCIgZm9udC1mYW1pbHk9InNhbnMtc2VyaWYiIGZvbnQtc2l6ZT0iMTQiIGxlbmd0aEFkanVzdD0ic3BhY2luZyIgdGV4dExlbmd0aD0iMTkxIiB4PSIyMCIgeT0iMzk4OC4zNjMzIj5QeXRob24gUHJvZ3JhbW1pbmcgTGFuZ3VhZ2U8L3RleHQ+PHJlY3QgZmlsbD0iI0YxRjFGMSIgaGVpZ2h0PSIzNC45ODQ0IiByeD0iMTIuNSIgcnk9IjEyLjUiIHN0eWxlPSJzdHJva2U6IzE4MTgxODtzdHJva2Utd2lkdGg6MS41OyIgd2lkdGg9IjEyNSIgeD0iMjcxIiB5PSIxMDIuNDc2NiIvPjx0ZXh0IGZpbGw9IiMwMDAwMDAiIGZvbnQtZmFtaWx5PSJzYW5zLXNlcmlmIiBmb250LXNpemU9IjE0IiBsZW5ndGhBZGp1c3Q9InNwYWNpbmciIHRleHRMZW5ndGg9IjEwNSIgeD0iMjgxIiB5PSIxMjUuNzEwOSI+Q2hhcmFjdGVyaXN0aWNzPC90ZXh0PjxyZWN0IGZpbGw9IiNGMUYxRjEiIGhlaWdodD0iMzQuOTg0NCIgcng9IjEyLjUiIHJ5PSIxMi41IiBzdHlsZT0ic3Ryb2tlOiMxODE4MTg7c3Ryb2tlLXdpZHRoOjEuNTsiIHdpZHRoPSIxMjUiIHg9IjQ0NiIgeT0iMjAiLz48dGV4dCBmaWxsPSIjMDAwMDAwIiBmb250LWZhbWlseT0ic2Fucy1zZXJpZiIgZm9udC1zaXplPSIxNCIgbGVuZ3RoQWRqdXN0PSJzcGFjaW5nIiB0ZXh0TGVuZ3RoPSIxMDUiIHg9IjQ1NiIgeT0iNDMuMjM0NCI+T2JqZWN0LU9yaWVudGVkPC90ZXh0PjxwYXRoIGQ9Ik0zOTYsMTE5Ljk2ODggTDQwNiwxMTkuOTY4OCBDNDIxLDExOS45Njg4IDQyMSwzNy40OTIyIDQzNiwzNy40OTIyIEw0NDYsMzcuNDkyMiAiIGZpbGw9Im5vbmUiIHN0eWxlPSJzdHJva2U6IzE4MTgxODtzdHJva2Utd2lkdGg6MS4wOyIvPjxyZWN0IGZpbGw9IiNGMUYxRjEiIGhlaWdodD0iMzQuOTg0NCIgcng9IjEyLjUiIHJ5PSIxMi41IiBzdHlsZT0ic3Ryb2tlOiMxODE4MTg7c3Ryb2tlLXdpZHRoOjEuNTsiIHdpZHRoPSI3MCIgeD0iNDQ2IiB5PSI3NC45ODQ0Ii8+PHRleHQgZmlsbD0iIzAwMDAwMCIgZm9udC1mYW1pbHk9InNhbnMtc2VyaWYiIGZvbnQtc2l6ZT0iMTQiIGxlbmd0aEFkanVzdD0ic3BhY2luZyIgdGV4dExlbmd0aD0iNTAiIHg9IjQ1NiIgeT0iOTguMjE4OCI+RHluYW1pYzwvdGV4dD48cGF0aCBkPSJNMzk2LDExOS45Njg4IEw0MDYsMTE5Ljk2ODggQzQyMSwxMTkuOTY4OCA0MjEsOTIuNDc2NiA0MzYsOTIuNDc2NiBMNDQ2LDkyLjQ3NjYgIiBmaWxsPSJub25lIiBzdHlsZT0ic3Ryb2tlOiMxODE4MTg7c3Ryb2tlLXdpZHRoOjEuMDsiLz48cmVjdCBmaWxsPSIjRjFGMUYxIiBoZWlnaHQ9IjM0Ljk4NDQiIHJ4PSIxMi41IiByeT0iMTIuNSIgc3R5bGU9InN0cm9rZTojMTgxODE4O3N0cm9rZS13aWR0aDoxLjU7IiB3aWR0aD0iOTciIHg9IjQ0NiIgeT0iMTI5Ljk2ODgiLz48dGV4dCBmaWxsPSIjMDAwMDAwIiBmb250LWZhbWlseT0ic2Fucy1zZXJpZiIgZm9udC1zaXplPSIxNCIgbGVuZ3RoQWRqdXN0PSJzcGFjaW5nIiB0ZXh0TGVuZ3RoPSI3NyIgeD0iNDU2IiB5PSIxNTMuMjAzMSI+SW50ZXJwcmV0ZWQ8L3RleHQ+PHBhdGggZD0iTTM5NiwxMTkuOTY4OCBMNDA2LDExOS45Njg4IEM0MjEsMTE5Ljk2ODggNDIxLDE0Ny40NjA5IDQzNiwxNDcuNDYwOSBMNDQ2LDE0Ny40NjA5ICIgZmlsbD0ibm9uZSIgc3R5bGU9InN0cm9rZTojMTgxODE4O3N0cm9rZS13aWR0aDoxLjA7Ii8+PHJlY3QgZmlsbD0iI0YxRjFGMSIgaGVpZ2h0PSIzNC45ODQ0IiByeD0iMTIuNSIgcnk9IjEyLjUiIHN0eWxlPSJzdHJva2U6IzE4MTgxODtzdHJva2Utd2lkdGg6MS41OyIgd2lkdGg9IjkwIiB4PSI0NDYiIHk9IjE4NC45NTMxIi8+PHRleHQgZmlsbD0iIzAwMDAwMCIgZm9udC1mYW1pbHk9InNhbnMtc2VyaWYiIGZvbnQtc2l6ZT0iMTQiIGxlbmd0aEFkanVzdD0ic3BhY2luZyIgdGV4dExlbmd0aD0iNzAiIHg9IjQ1NiIgeT0iMjA4LjE4NzUiPkhpZ2gtbGV2ZWw8L3RleHQ+PHBhdGggZD0iTTM5NiwxMTkuOTY4OCBMNDA2LDExOS45Njg4IEM0MjEsMTE5Ljk2ODggNDIxLDIwMi40NDUzIDQzNiwyMDIuNDQ1MyBMNDQ2LDIwMi40NDUzICIgZmlsbD0ibm9uZSIgc3R5bGU9InN0cm9rZTojMTgxODE4O3N0cm9rZS13aWR0aDoxLjA7Ii8+PHBhdGggZD0iTTIyMSwzOTgyLjYyMTEgTDIzMSwzOTgyLjYyMTEgQzI0NiwzOTgyLjYyMTEgMjQ2LDExOS45Njg4IDI2MSwxMTkuOTY4OCBMMjcxLDExOS45Njg4ICIgZmlsbD0ibm9uZSIgc3R5bGU9InN0cm9rZTojMTgxODE4O3N0cm9rZS13aWR0aDoxLjA7Ii8+PHJlY3QgZmlsbD0iI0YxRjFGMSIgaGVpZ2h0PSIzNC45ODQ0IiByeD0iMTIuNSIgcnk9IjEyLjUiIHN0eWxlPSJzdHJva2U6IzE4MTgxODtzdHJva2Utd2lkdGg6MS41OyIgd2lkdGg9Ijk3IiB4PSIyNzEiIHk9IjcwNy4zMDQ3Ii8+PHRleHQgZmlsbD0iIzAwMDAwMCIgZm9udC1mYW1pbHk9InNhbnMtc2VyaWYiIGZvbnQtc2l6ZT0iMTQiIGxlbmd0aEFkanVzdD0ic3BhY2luZyIgdGV4dExlbmd0aD0iNzciIHg9IjI4MSIgeT0iNzMwLjUzOTEiPkRhdGEgTW9kZWxzPC90ZXh0PjxyZWN0IGZpbGw9IiNGMUYxRjEiIGhlaWdodD0iMzQuOTg0NCIgcng9IjEyLjUiIHJ5PSIxMi41IiBzdHlsZT0ic3Ryb2tlOiMxODE4MTg7c3Ryb2tlLXdpZHRoOjEuNTsiIHdpZHRoPSIxMzIiIHg9IjQxOCIgeT0iMjk0LjkyMTkiLz48dGV4dCBmaWxsPSIjMDAwMDAwIiBmb250LWZhbWlseT0ic2Fucy1zZXJpZiIgZm9udC1zaXplPSIxNCIgbGVuZ3RoQWRqdXN0PSJzcGFjaW5nIiB0ZXh0TGVuZ3RoPSIxMTIiIHg9IjQyOCIgeT0iMzE4LjE1NjMiPk11dGFibGUgU2VxdWVuY2U8L3RleHQ+PHJlY3QgZmlsbD0iI0YxRjFGMSIgaGVpZ2h0PSIzNC45ODQ0IiByeD0iMTIuNSIgcnk9IjEyLjUiIHN0eWxlPSJzdHJva2U6IzE4MTgxODtzdHJva2Utd2lkdGg6MS41OyIgd2lkdGg9IjQ4IiB4PSI2MDAiIHk9IjIzOS45Mzc1Ii8+PHRleHQgZmlsbD0iIzAwMDAwMCIgZm9udC1mYW1pbHk9InNhbnMtc2VyaWYiIGZvbnQtc2l6ZT0iMTQiIGxlbmd0aEFkanVzdD0ic3BhY2luZyIgdGV4dExlbmd0aD0iMjgiIHg9IjYxMCIgeT0iMjYzLjE3MTkiPkxpc3Q8L3RleHQ+PHBhdGggZD0iTTU1MCwzMTIuNDE0MSBMNTYwLDMxMi40MTQxIEM1NzUsMzEyLjQxNDEgNTc1LDI1Ny40Mjk3IDU5MCwyNTcuNDI5NyBMNjAwLDI1Ny40Mjk3ICIgZmlsbD0ibm9uZSIgc3R5bGU9InN0cm9rZTojMTgxODE4O3N0cm9rZS13aWR0aDoxLjA7Ii8+PHJlY3QgZmlsbD0iI0YxRjFGMSIgaGVpZ2h0PSIzNC45ODQ0IiByeD0iMTIuNSIgcnk9IjEyLjUiIHN0eWxlPSJzdHJva2U6IzE4MTgxODtzdHJva2Utd2lkdGg6MS41OyIgd2lkdGg9IjkwIiB4PSI2MDAiIHk9IjI5NC45MjE5Ii8+PHRleHQgZmlsbD0iIzAwMDAwMCIgZm9udC1mYW1pbHk9InNhbnMtc2VyaWYiIGZvbnQtc2l6ZT0iMTQiIGxlbmd0aEFkanVzdD0ic3BhY2luZyIgdGV4dExlbmd0aD0iNzAiIHg9IjYxMCIgeT0iMzE4LjE1NjMiPkJ5dGUgQXJyYXk8L3RleHQ+PHBhdGggZD0iTTU1MCwzMTIuNDE0MSBMNTYwLDMxMi40MTQxIEM1NzUsMzEyLjQxNDEgNTc1LDMxMi40MTQxIDU5MCwzMTIuNDE0MSBMNjAwLDMxMi40MTQxICIgZmlsbD0ibm9uZSIgc3R5bGU9InN0cm9rZTojMTgxODE4O3N0cm9rZS13aWR0aDoxLjA7Ii8+PHJlY3QgZmlsbD0iI0YxRjFGMSIgaGVpZ2h0PSIzNC45ODQ0IiByeD0iMTIuNSIgcnk9IjEyLjUiIHN0eWxlPSJzdHJva2U6IzE4MTgxODtzdHJva2Utd2lkdGg6MS41OyIgd2lkdGg9IjgzIiB4PSI2MDAiIHk9IjM0OS45MDYzIi8+PHRleHQgZmlsbD0iIzAwMDAwMCIgZm9udC1mYW1pbHk9InNhbnMtc2VyaWYiIGZvbnQtc2l6ZT0iMTQiIGxlbmd0aEFkanVzdD0ic3BhY2luZyIgdGV4dExlbmd0aD0iNjMiIHg9IjYxMCIgeT0iMzczLjE0MDYiPmJ5dGVhcnJheTwvdGV4dD48cGF0aCBkPSJNNTUwLDMxMi40MTQxIEw1NjAsMzEyLjQxNDEgQzU3NSwzMTIuNDE0MSA1NzUsMzY3LjM5ODQgNTkwLDM2Ny4zOTg0IEw2MDAsMzY3LjM5ODQgIiBmaWxsPSJub25lIiBzdHlsZT0ic3Ryb2tlOiMxODE4MTg7c3Ryb2tlLXdpZHRoOjEuMDsiLz48cGF0aCBkPSJNMzY4LDcyNC43OTY5IEwzNzgsNzI0Ljc5NjkgQzM5Myw3MjQuNzk2OSAzOTMsMzEyLjQxNDEgNDA4LDMxMi40MTQxIEw0MTgsMzEyLjQxNDEgIiBmaWxsPSJub25lIiBzdHlsZT0ic3Ryb2tlOiMxODE4MTg7c3Ryb2tlLXdpZHRoOjEuMDsiLz48cmVjdCBmaWxsPSIjRjFGMUYxIiBoZWlnaHQ9IjM0Ljk4NDQiIHJ4PSIxMi41IiByeT0iMTIuNSIgc3R5bGU9InN0cm9rZTojMTgxODE4O3N0cm9rZS13aWR0aDoxLjU7IiB3aWR0aD0iMTQ4IiB4PSI0MTgiIHk9IjQ4Ny4zNjcyIi8+PHRleHQgZmlsbD0iIzAwMDAwMCIgZm9udC1mYW1pbHk9InNhbnMtc2VyaWYiIGZvbnQtc2l6ZT0iMTQiIGxlbmd0aEFkanVzdD0ic3BhY2luZyIgdGV4dExlbmd0aD0iMTI4IiB4PSI0MjgiIHk9IjUxMC42MDE2Ij5JbW11dGFibGUgU2VxdWVuY2U8L3RleHQ+PHJlY3QgZmlsbD0iI0YxRjFGMSIgaGVpZ2h0PSIzNC45ODQ0IiByeD0iMTIuNSIgcnk9IjEyLjUiIHN0eWxlPSJzdHJva2U6IzE4MTgxODtzdHJva2Utd2lkdGg6MS41OyIgd2lkdGg9IjU1IiB4PSI2MTYiIHk9IjQwNC44OTA2Ii8+PHRleHQgZmlsbD0iIzAwMDAwMCIgZm9udC1mYW1pbHk9InNhbnMtc2VyaWYiIGZvbnQtc2l6ZT0iMTQiIGxlbmd0aEFkanVzdD0ic3BhY2luZyIgdGV4dExlbmd0aD0iMzUiIHg9IjYyNiIgeT0iNDI4LjEyNSI+VHVwbGU8L3RleHQ+PHBhdGggZD0iTTU2Niw1MDQuODU5NCBMNTc2LDUwNC44NTk0IEM1OTEsNTA0Ljg1OTQgNTkxLDQyMi4zODI4IDYwNiw0MjIuMzgyOCBMNjE2LDQyMi4zODI4ICIgZmlsbD0ibm9uZSIgc3R5bGU9InN0cm9rZTojMTgxODE4O3N0cm9rZS13aWR0aDoxLjA7Ii8+PHJlY3QgZmlsbD0iI0YxRjFGMSIgaGVpZ2h0PSIzNC45ODQ0IiByeD0iMTIuNSIgcnk9IjEyLjUiIHN0eWxlPSJzdHJva2U6IzE4MTgxODtzdHJva2Utd2lkdGg6MS41OyIgd2lkdGg9IjYyIiB4PSI2MTYiIHk9IjQ1OS44NzUiLz48dGV4dCBmaWxsPSIjMDAwMDAwIiBmb250LWZhbWlseT0ic2Fucy1zZXJpZiIgZm9udC1zaXplPSIxNCIgbGVuZ3RoQWRqdXN0PSJzcGFjaW5nIiB0ZXh0TGVuZ3RoPSI0MiIgeD0iNjI2IiB5PSI0ODMuMTA5NCI+U3RyaW5nPC90ZXh0PjxwYXRoIGQ9Ik01NjYsNTA0Ljg1OTQgTDU3Niw1MDQuODU5NCBDNTkxLDUwNC44NTk0IDU5MSw0NzcuMzY3MiA2MDYsNDc3LjM2NzIgTDYxNiw0NzcuMzY3MiAiIGZpbGw9Im5vbmUiIHN0eWxlPSJzdHJva2U6IzE4MTgxODtzdHJva2Utd2lkdGg6MS4wOyIvPjxyZWN0IGZpbGw9IiNGMUYxRjEiIGhlaWdodD0iMzQuOTg0NCIgcng9IjEyLjUiIHJ5PSIxMi41IiBzdHlsZT0ic3Ryb2tlOiMxODE4MTg7c3Ryb2tlLXdpZHRoOjEuNTsiIHdpZHRoPSI1NSIgeD0iNjE2IiB5PSI1MTQuODU5NCIvPjx0ZXh0IGZpbGw9IiMwMDAwMDAiIGZvbnQtZmFtaWx5PSJzYW5zLXNlcmlmIiBmb250LXNpemU9IjE0IiBsZW5ndGhBZGp1c3Q9InNwYWNpbmciIHRleHRMZW5ndGg9IjM1IiB4PSI2MjYiIHk9IjUzOC4wOTM4Ij5ieXRlczwvdGV4dD48cGF0aCBkPSJNNTY2LDUwNC44NTk0IEw1NzYsNTA0Ljg1OTQgQzU5MSw1MDQuODU5NCA1OTEsNTMyLjM1MTYgNjA2LDUzMi4zNTE2IEw2MTYsNTMyLjM1MTYgIiBmaWxsPSJub25lIiBzdHlsZT0ic3Ryb2tlOiMxODE4MTg7c3Ryb2tlLXdpZHRoOjEuMDsiLz48cmVjdCBmaWxsPSIjRjFGMUYxIiBoZWlnaHQ9IjM0Ljk4NDQiIHJ4PSIxMi41IiByeT0iMTIuNSIgc3R5bGU9InN0cm9rZTojMTgxODE4O3N0cm9rZS13aWR0aDoxLjU7IiB3aWR0aD0iNTUiIHg9IjYxNiIgeT0iNTY5Ljg0MzgiLz48dGV4dCBmaWxsPSIjMDAwMDAwIiBmb250LWZhbWlseT0ic2Fucy1zZXJpZiIgZm9udC1zaXplPSIxNCIgbGVuZ3RoQWRqdXN0PSJzcGFjaW5nIiB0ZXh0TGVuZ3RoPSIzNSIgeD0iNjI2IiB5PSI1OTMuMDc4MSI+cmFuZ2U8L3RleHQ+PHBhdGggZD0iTTU2Niw1MDQuODU5NCBMNTc2LDUwNC44NTk0IEM1OTEsNTA0Ljg1OTQgNTkxLDU4Ny4zMzU5IDYwNiw1ODcuMzM1OSBMNjE2LDU4Ny4zMzU5ICIgZmlsbD0ibm9uZSIgc3R5bGU9InN0cm9rZTojMTgxODE4O3N0cm9rZS13aWR0aDoxLjA7Ii8+PHBhdGggZD0iTTM2OCw3MjQuNzk2OSBMMzc4LDcyNC43OTY5IEMzOTMsNzI0Ljc5NjkgMzkzLDUwNC44NTk0IDQwOCw1MDQuODU5NCBMNDE4LDUwNC44NTk0ICIgZmlsbD0ibm9uZSIgc3R5bGU9InN0cm9rZTojMTgxODE4O3N0cm9rZS13aWR0aDoxLjA7Ii8+PHJlY3QgZmlsbD0iI0YxRjFGMSIgaGVpZ2h0PSIzNC45ODQ0IiByeD0iMTIuNSIgcnk9IjEyLjUiIHN0eWxlPSJzdHJva2U6IzE4MTgxODtzdHJva2Utd2lkdGg6MS41OyIgd2lkdGg9IjQxIiB4PSI0MTgiIHk9IjY1Mi4zMjAzIi8+PHRleHQgZmlsbD0iIzAwMDAwMCIgZm9udC1mYW1pbHk9InNhbnMtc2VyaWYiIGZvbnQtc2l6ZT0iMTQiIGxlbmd0aEFkanVzdD0ic3BhY2luZyIgdGV4dExlbmd0aD0iMjEiIHg9IjQyOCIgeT0iNjc1LjU1NDciPlNldDwvdGV4dD48cmVjdCBmaWxsPSIjRjFGMUYxIiBoZWlnaHQ9IjM0Ljk4NDQiIHJ4PSIxMi41IiByeT0iMTIuNSIgc3R5bGU9InN0cm9rZTojMTgxODE4O3N0cm9rZS13aWR0aDoxLjU7IiB3aWR0aD0iNDEiIHg9IjUwOSIgeT0iNjI0LjgyODEiLz48dGV4dCBmaWxsPSIjMDAwMDAwIiBmb250LWZhbWlseT0ic2Fucy1zZXJpZiIgZm9udC1zaXplPSIxNCIgbGVuZ3RoQWRqdXN0PSJzcGFjaW5nIiB0ZXh0TGVuZ3RoPSIyMSIgeD0iNTE5IiB5PSI2NDguMDYyNSI+U2V0PC90ZXh0PjxwYXRoIGQ9Ik00NTksNjY5LjgxMjUgTDQ2OSw2NjkuODEyNSBDNDg0LDY2OS44MTI1IDQ4NCw2NDIuMzIwMyA0OTksNjQyLjMyMDMgTDUwOSw2NDIuMzIwMyAiIGZpbGw9Im5vbmUiIHN0eWxlPSJzdHJva2U6IzE4MTgxODtzdHJva2Utd2lkdGg6MS4wOyIvPjxyZWN0IGZpbGw9IiNGMUYxRjEiIGhlaWdodD0iMzQuOTg0NCIgcng9IjEyLjUiIHJ5PSIxMi41IiBzdHlsZT0ic3Ryb2tlOiMxODE4MTg7c3Ryb2tlLXdpZHRoOjEuNTsiIHdpZHRoPSI4MyIgeD0iNTA5IiB5PSI2NzkuODEyNSIvPjx0ZXh0IGZpbGw9IiMwMDAwMDAiIGZvbnQtZmFtaWx5PSJzYW5zLXNlcmlmIiBmb250LXNpemU9IjE0IiBsZW5ndGhBZGp1c3Q9InNwYWNpbmciIHRleHRMZW5ndGg9IjYzIiB4PSI1MTkiIHk9IjcwMy4wNDY5Ij5Gcm96ZW5zZXQ8L3RleHQ+PHBhdGggZD0iTTQ1OSw2NjkuODEyNSBMNDY5LDY2OS44MTI1IEM0ODQsNjY5LjgxMjUgNDg0LDY5Ny4zMDQ3IDQ5OSw2OTcuMzA0NyBMNTA5LDY5Ny4zMDQ3ICIgZmlsbD0ibm9uZSIgc3R5bGU9InN0cm9rZTojMTgxODE4O3N0cm9rZS13aWR0aDoxLjA7Ii8+PHBhdGggZD0iTTM2OCw3MjQuNzk2OSBMMzc4LDcyNC43OTY5IEMzOTMsNzI0Ljc5NjkgMzkzLDY2OS44MTI1IDQwOCw2NjkuODEyNSBMNDE4LDY2OS44MTI1ICIgZmlsbD0ibm9uZSIgc3R5bGU9InN0cm9rZTojMTgxODE4O3N0cm9rZS13aWR0aDoxLjA7Ii8+PHJlY3QgZmlsbD0iI0YxRjFGMSIgaGVpZ2h0PSIzNC45ODQ0IiByeD0iMTIuNSIgcnk9IjEyLjUiIHN0eWxlPSJzdHJva2U6IzE4MTgxODtzdHJva2Utd2lkdGg6MS41OyIgd2lkdGg9IjY5IiB4PSI0MTgiIHk9IjczNC43OTY5Ii8+PHRleHQgZmlsbD0iIzAwMDAwMCIgZm9udC1mYW1pbHk9InNhbnMtc2VyaWYiIGZvbnQtc2l6ZT0iMTQiIGxlbmd0aEFkanVzdD0ic3BhY2luZyIgdGV4dExlbmd0aD0iNDkiIHg9IjQyOCIgeT0iNzU4LjAzMTMiPk1hcHBpbmc8L3RleHQ+PHJlY3QgZmlsbD0iI0YxRjFGMSIgaGVpZ2h0PSIzNC45ODQ0IiByeD0iMTIuNSIgcnk9IjEyLjUiIHN0eWxlPSJzdHJva2U6IzE4MTgxODtzdHJva2Utd2lkdGg6MS41OyIgd2lkdGg9IjkwIiB4PSI1MzciIHk9IjczNC43OTY5Ii8+PHRleHQgZmlsbD0iIzAwMDAwMCIgZm9udC1mYW1pbHk9InNhbnMtc2VyaWYiIGZvbnQtc2l6ZT0iMTQiIGxlbmd0aEFkanVzdD0ic3BhY2luZyIgdGV4dExlbmd0aD0iNzAiIHg9IjU0NyIgeT0iNzU4LjAzMTMiPkRpY3Rpb25hcnk8L3RleHQ+PHBhdGggZD0iTTQ4Nyw3NTIuMjg5MSBMNDk3LDc1Mi4yODkxIEM1MTIsNzUyLjI4OTEgNTEyLDc1Mi4yODkxIDUyNyw3NTIuMjg5MSBMNTM3LDc1Mi4yODkxICIgZmlsbD0ibm9uZSIgc3R5bGU9InN0cm9rZTojMTgxODE4O3N0cm9rZS13aWR0aDoxLjA7Ii8+PHBhdGggZD0iTTM2OCw3MjQuNzk2OSBMMzc4LDcyNC43OTY5IEMzOTMsNzI0Ljc5NjkgMzkzLDc1Mi4yODkxIDQwOCw3NTIuMjg5MSBMNDE4LDc1Mi4yODkxICIgZmlsbD0ibm9uZSIgc3R5bGU9InN0cm9rZTojMTgxODE4O3N0cm9rZS13aWR0aDoxLjA7Ii8+PHJlY3QgZmlsbD0iI0YxRjFGMSIgaGVpZ2h0PSIzNC45ODQ0IiByeD0iMTIuNSIgcnk9IjEyLjUiIHN0eWxlPSJzdHJva2U6IzE4MTgxODtzdHJva2Utd2lkdGg6MS41OyIgd2lkdGg9IjE2MCIgeD0iNDE4IiB5PSI5ODIuMjI2NiIvPjx0ZXh0IGZpbGw9IiMwMDAwMDAiIGZvbnQtZmFtaWx5PSJzYW5zLXNlcmlmIiBmb250LXNpemU9IjE0IiBsZW5ndGhBZGp1c3Q9InNwYWNpbmciIHRleHRMZW5ndGg9IjE0MCIgeD0iNDI4IiB5PSIxMDA1LjQ2MDkiPk90aGVyIEJ1aWx0LUluIFR5cGVzPC90ZXh0PjxyZWN0IGZpbGw9IiNGMUYxRjEiIGhlaWdodD0iMzQuOTg0NCIgcng9IjEyLjUiIHJ5PSIxMi41IiBzdHlsZT0ic3Ryb2tlOiMxODE4MTg7c3Ryb2tlLXdpZHRoOjEuNTsiIHdpZHRoPSI2OSIgeD0iNjI4IiB5PSI3ODkuNzgxMyIvPjx0ZXh0IGZpbGw9IiMwMDAwMDAiIGZvbnQtZmFtaWx5PSJzYW5zLXNlcmlmIiBmb250LXNpemU9IjE0IiBsZW5ndGhBZGp1c3Q9InNwYWNpbmciIHRleHRMZW5ndGg9IjQ5IiB4PSI2MzgiIHk9IjgxMy4wMTU2Ij5Cb29sZWFuPC90ZXh0PjxwYXRoIGQ9Ik01NzgsOTk5LjcxODggTDU4OCw5OTkuNzE4OCBDNjAzLDk5OS43MTg4IDYwMyw4MDcuMjczNCA2MTgsODA3LjI3MzQgTDYyOCw4MDcuMjczNCAiIGZpbGw9Im5vbmUiIHN0eWxlPSJzdHJva2U6IzE4MTgxODtzdHJva2Utd2lkdGg6MS4wOyIvPjxyZWN0IGZpbGw9IiNGMUYxRjEiIGhlaWdodD0iMzQuOTg0NCIgcng9IjEyLjUiIHJ5PSIxMi41IiBzdHlsZT0ic3Ryb2tlOiMxODE4MTg7c3Ryb2tlLXdpZHRoOjEuNTsiIHdpZHRoPSIxMTIiIHg9IjYyOCIgeT0iODQ0Ljc2NTYiLz48dGV4dCBmaWxsPSIjMDAwMDAwIiBmb250LWZhbWlseT0ic2Fucy1zZXJpZiIgZm9udC1zaXplPSIxNCIgbGVuZ3RoQWRqdXN0PSJzcGFjaW5nIiB0ZXh0TGVuZ3RoPSI5MiIgeD0iNjM4IiB5PSI4NjgiPk51bWVyaWMgVHlwZXM8L3RleHQ+PHBhdGggZD0iTTU3OCw5OTkuNzE4OCBMNTg4LDk5OS43MTg4IEM2MDMsOTk5LjcxODggNjAzLDg2Mi4yNTc4IDYxOCw4NjIuMjU3OCBMNjI4LDg2Mi4yNTc4ICIgZmlsbD0ibm9uZSIgc3R5bGU9InN0cm9rZTojMTgxODE4O3N0cm9rZS13aWR0aDoxLjA7Ii8+PHJlY3QgZmlsbD0iI0YxRjFGMSIgaGVpZ2h0PSIzNC45ODQ0IiByeD0iMTIuNSIgcnk9IjEyLjUiIHN0eWxlPSJzdHJva2U6IzE4MTgxODtzdHJva2Utd2lkdGg6MS41OyIgd2lkdGg9IjQ4IiB4PSI2MjgiIHk9Ijg5OS43NSIvPjx0ZXh0IGZpbGw9IiMwMDAwMDAiIGZvbnQtZmFtaWx5PSJzYW5zLXNlcmlmIiBmb250LXNpemU9IjE0IiBsZW5ndGhBZGp1c3Q9InNwYWNpbmciIHRleHRMZW5ndGg9IjI4IiB4PSI2MzgiIHk9IjkyMi45ODQ0Ij5Ob25lPC90ZXh0PjxwYXRoIGQ9Ik01NzgsOTk5LjcxODggTDU4OCw5OTkuNzE4OCBDNjAzLDk5OS43MTg4IDYwMyw5MTcuMjQyMiA2MTgsOTE3LjI0MjIgTDYyOCw5MTcuMjQyMiAiIGZpbGw9Im5vbmUiIHN0eWxlPSJzdHJva2U6IzE4MTgxODtzdHJva2Utd2lkdGg6MS4wOyIvPjxyZWN0IGZpbGw9IiNGMUYxRjEiIGhlaWdodD0iMzQuOTg0NCIgcng9IjEyLjUiIHJ5PSIxMi41IiBzdHlsZT0ic3Ryb2tlOiMxODE4MTg7c3Ryb2tlLXdpZHRoOjEuNTsiIHdpZHRoPSI3NiIgeD0iNjI4IiB5PSI5NTQuNzM0NCIvPjx0ZXh0IGZpbGw9IiMwMDAwMDAiIGZvbnQtZmFtaWx5PSJzYW5zLXNlcmlmIiBmb250LXNpemU9IjE0IiBsZW5ndGhBZGp1c3Q9InNwYWNpbmciIHRleHRMZW5ndGg9IjU2IiB4PSI2MzgiIHk9Ijk3Ny45Njg4Ij5FbGxpcHNpczwvdGV4dD48cGF0aCBkPSJNNTc4LDk5OS43MTg4IEw1ODgsOTk5LjcxODggQzYwMyw5OTkuNzE4OCA2MDMsOTcyLjIyNjYgNjE4LDk3Mi4yMjY2IEw2MjgsOTcyLjIyNjYgIiBmaWxsPSJub25lIiBzdHlsZT0ic3Ryb2tlOiMxODE4MTg7c3Ryb2tlLXdpZHRoOjEuMDsiLz48cmVjdCBmaWxsPSIjRjFGMUYxIiBoZWlnaHQ9IjM0Ljk4NDQiIHJ4PSIxMi41IiByeT0iMTIuNSIgc3R5bGU9InN0cm9rZTojMTgxODE4O3N0cm9rZS13aWR0aDoxLjU7IiB3aWR0aD0iMTIwIiB4PSI2MjgiIHk9IjEwMDkuNzE4OCIvPjx0ZXh0IGZpbGw9IiMwMDAwMDAiIGZvbnQtZmFtaWx5PSJzYW5zLXNlcmlmIiBmb250LXNpemU9IjE0IiBsZW5ndGhBZGp1c3Q9InNwYWNpbmciIHRleHRMZW5ndGg9IjEwMCIgeD0iNjM4IiB5PSIxMDMyLjk1MzEiPk5vdEltcGxlbWVudGVkPC90ZXh0PjxwYXRoIGQ9Ik01NzgsOTk5LjcxODggTDU4OCw5OTkuNzE4OCBDNjAzLDk5OS43MTg4IDYwMywxMDI3LjIxMDkgNjE4LDEwMjcuMjEwOSBMNjI4LDEwMjcuMjEwOSAiIGZpbGw9Im5vbmUiIHN0eWxlPSJzdHJva2U6IzE4MTgxODtzdHJva2Utd2lkdGg6MS4wOyIvPjxyZWN0IGZpbGw9IiNGMUYxRjEiIGhlaWdodD0iMzQuOTg0NCIgcng9IjEyLjUiIHJ5PSIxMi41IiBzdHlsZT0ic3Ryb2tlOiMxODE4MTg7c3Ryb2tlLXdpZHRoOjEuNTsiIHdpZHRoPSI3NiIgeD0iNjI4IiB5PSIxMDY0LjcwMzEiLz48dGV4dCBmaWxsPSIjMDAwMDAwIiBmb250LWZhbWlseT0ic2Fucy1zZXJpZiIgZm9udC1zaXplPSIxNCIgbGVuZ3RoQWRqdXN0PSJzcGFjaW5nIiB0ZXh0TGVuZ3RoPSI1NiIgeD0iNjM4IiB5PSIxMDg3LjkzNzUiPkZ1bmN0aW9uPC90ZXh0PjxwYXRoIGQ9Ik01NzgsOTk5LjcxODggTDU4OCw5OTkuNzE4OCBDNjAzLDk5OS43MTg4IDYwMywxMDgyLjE5NTMgNjE4LDEwODIuMTk1MyBMNjI4LDEwODIuMTk1MyAiIGZpbGw9Im5vbmUiIHN0eWxlPSJzdHJva2U6IzE4MTgxODtzdHJva2Utd2lkdGg6MS4wOyIvPjxyZWN0IGZpbGw9IiNGMUYxRjEiIGhlaWdodD0iMzQuOTg0NCIgcng9IjEyLjUiIHJ5PSIxMi41IiBzdHlsZT0ic3Ryb2tlOiMxODE4MTg7c3Ryb2tlLXdpZHRoOjEuNTsiIHdpZHRoPSI4MyIgeD0iNjI4IiB5PSIxMTE5LjY4NzUiLz48dGV4dCBmaWxsPSIjMDAwMDAwIiBmb250LWZhbWlseT0ic2Fucy1zZXJpZiIgZm9udC1zaXplPSIxNCIgbGVuZ3RoQWRqdXN0PSJzcGFjaW5nIiB0ZXh0TGVuZ3RoPSI2MyIgeD0iNjM4IiB5PSIxMTQyLjkyMTkiPkdlbmVyYXRvcjwvdGV4dD48cGF0aCBkPSJNNTc4LDk5OS43MTg4IEw1ODgsOTk5LjcxODggQzYwMyw5OTkuNzE4OCA2MDMsMTEzNy4xNzk3IDYxOCwxMTM3LjE3OTcgTDYyOCwxMTM3LjE3OTcgIiBmaWxsPSJub25lIiBzdHlsZT0ic3Ryb2tlOiMxODE4MTg7c3Ryb2tlLXdpZHRoOjEuMDsiLz48cmVjdCBmaWxsPSIjRjFGMUYxIiBoZWlnaHQ9IjM0Ljk4NDQiIHJ4PSIxMi41IiByeT0iMTIuNSIgc3R5bGU9InN0cm9rZTojMTgxODE4O3N0cm9rZS13aWR0aDoxLjU7IiB3aWR0aD0iODMiIHg9IjYyOCIgeT0iMTE3NC42NzE5Ii8+PHRleHQgZmlsbD0iIzAwMDAwMCIgZm9udC1mYW1pbHk9InNhbnMtc2VyaWYiIGZvbnQtc2l6ZT0iMTQiIGxlbmd0aEFkanVzdD0ic3BhY2luZyIgdGV4dExlbmd0aD0iNjMiIHg9IjYzOCIgeT0iMTE5Ny45MDYzIj5Db3JvdXRpbmU8L3RleHQ+PHBhdGggZD0iTTU3OCw5OTkuNzE4OCBMNTg4LDk5OS43MTg4IEM2MDMsOTk5LjcxODggNjAzLDExOTIuMTY0MSA2MTgsMTE5Mi4xNjQxIEw2MjgsMTE5Mi4xNjQxICIgZmlsbD0ibm9uZSIgc3R5bGU9InN0cm9rZTojMTgxODE4O3N0cm9rZS13aWR0aDoxLjA7Ii8+PHBhdGggZD0iTTM2OCw3MjQuNzk2OSBMMzc4LDcyNC43OTY5IEMzOTMsNzI0Ljc5NjkgMzkzLDk5OS43MTg4IDQwOCw5OTkuNzE4OCBMNDE4LDk5OS43MTg4ICIgZmlsbD0ibm9uZSIgc3R5bGU9InN0cm9rZTojMTgxODE4O3N0cm9rZS13aWR0aDoxLjA7Ii8+PHBhdGggZD0iTTIyMSwzOTgyLjYyMTEgTDIzMSwzOTgyLjYyMTEgQzI0NiwzOTgyLjYyMTEgMjQ2LDcyNC43OTY5IDI2MSw3MjQuNzk2OSBMMjcxLDcyNC43OTY5ICIgZmlsbD0ibm9uZSIgc3R5bGU9InN0cm9rZTojMTgxODE4O3N0cm9rZS13aWR0aDoxLjA7Ii8+PHJlY3QgZmlsbD0iI0YxRjFGMSIgaGVpZ2h0PSIzNC45ODQ0IiByeD0iMTIuNSIgcnk9IjEyLjUiIHN0eWxlPSJzdHJva2U6IzE4MTgxODtzdHJva2Utd2lkdGg6MS41OyIgd2lkdGg9IjEyNSIgeD0iMjcxIiB5PSIxNzEwLjc2OTUiLz48dGV4dCBmaWxsPSIjMDAwMDAwIiBmb250LWZhbWlseT0ic2Fucy1zZXJpZiIgZm9udC1zaXplPSIxNCIgbGVuZ3RoQWRqdXN0PSJzcGFjaW5nIiB0ZXh0TGVuZ3RoPSIxMDUiIHg9IjI4MSIgeT0iMTczNC4wMDM5Ij5EYXRhIFN0cnVjdHVyZXM8L3RleHQ+PHJlY3QgZmlsbD0iI0YxRjFGMSIgaGVpZ2h0PSIzNC45ODQ0IiByeD0iMTIuNSIgcnk9IjEyLjUiIHN0eWxlPSJzdHJva2U6IzE4MTgxODtzdHJva2Utd2lkdGg6MS41OyIgd2lkdGg9IjYyIiB4PSI0NDYiIHk9IjEyMjkuNjU2MyIvPjx0ZXh0IGZpbGw9IiMwMDAwMDAiIGZvbnQtZmFtaWx5PSJzYW5zLXNlcmlmIiBmb250LXNpemU9IjE0IiBsZW5ndGhBZGp1c3Q9InNwYWNpbmciIHRleHRMZW5ndGg9IjQyIiB4PSI0NTYiIHk9IjEyNTIuODkwNiI+QXJyYXlzPC90ZXh0PjxwYXRoIGQ9Ik0zOTYsMTcyOC4yNjE3IEw0MDYsMTcyOC4yNjE3IEM0MjEsMTcyOC4yNjE3IDQyMSwxMjQ3LjE0ODQgNDM2LDEyNDcuMTQ4NCBMNDQ2LDEyNDcuMTQ4NCAiIGZpbGw9Im5vbmUiIHN0eWxlPSJzdHJva2U6IzE4MTgxODtzdHJva2Utd2lkdGg6MS4wOyIvPjxyZWN0IGZpbGw9IiNGMUYxRjEiIGhlaWdodD0iMzQuOTg0NCIgcng9IjEyLjUiIHJ5PSIxMi41IiBzdHlsZT0ic3Ryb2tlOiMxODE4MTg7c3Ryb2tlLXdpZHRoOjEuNTsiIHdpZHRoPSI2MiIgeD0iNDQ2IiB5PSIxMjg0LjY0MDYiLz48dGV4dCBmaWxsPSIjMDAwMDAwIiBmb250LWZhbWlseT0ic2Fucy1zZXJpZiIgZm9udC1zaXplPSIxNCIgbGVuZ3RoQWRqdXN0PSJzcGFjaW5nIiB0ZXh0TGVuZ3RoPSI0MiIgeD0iNDU2IiB5PSIxMzA3Ljg3NSI+U3RhY2tzPC90ZXh0PjxyZWN0IGZpbGw9IiNGMUYxRjEiIGhlaWdodD0iMzQuOTg0NCIgcng9IjEyLjUiIHJ5PSIxMi41IiBzdHlsZT0ic3Ryb2tlOiMxODE4MTg7c3Ryb2tlLXdpZHRoOjEuNTsiIHdpZHRoPSI0OCIgeD0iNTU4IiB5PSIxMjU3LjE0ODQiLz48dGV4dCBmaWxsPSIjMDAwMDAwIiBmb250LWZhbWlseT0ic2Fucy1zZXJpZiIgZm9udC1zaXplPSIxNCIgbGVuZ3RoQWRqdXN0PSJzcGFjaW5nIiB0ZXh0TGVuZ3RoPSIyOCIgeD0iNTY4IiB5PSIxMjgwLjM4MjgiPkxJRk88L3RleHQ+PHBhdGggZD0iTTUwOCwxMzAyLjEzMjggTDUxOCwxMzAyLjEzMjggQzUzMywxMzAyLjEzMjggNTMzLDEyNzQuNjQwNiA1NDgsMTI3NC42NDA2IEw1NTgsMTI3NC42NDA2ICIgZmlsbD0ibm9uZSIgc3R5bGU9InN0cm9rZTojMTgxODE4O3N0cm9rZS13aWR0aDoxLjA7Ii8+PHJlY3QgZmlsbD0iI0YxRjFGMSIgaGVpZ2h0PSIzNC45ODQ0IiByeD0iMTIuNSIgcnk9IjEyLjUiIHN0eWxlPSJzdHJva2U6IzE4MTgxODtzdHJva2Utd2lkdGg6MS41OyIgd2lkdGg9IjQ4IiB4PSI1NTgiIHk9IjEzMTIuMTMyOCIvPjx0ZXh0IGZpbGw9IiMwMDAwMDAiIGZvbnQtZmFtaWx5PSJzYW5zLXNlcmlmIiBmb250LXNpemU9IjE0IiBsZW5ndGhBZGp1c3Q9InNwYWNpbmciIHRleHRMZW5ndGg9IjI4IiB4PSI1NjgiIHk9IjEzMzUuMzY3MiI+RklMTzwvdGV4dD48cGF0aCBkPSJNNTA4LDEzMDIuMTMyOCBMNTE4LDEzMDIuMTMyOCBDNTMzLDEzMDIuMTMyOCA1MzMsMTMyOS42MjUgNTQ4LDEzMjkuNjI1IEw1NTgsMTMyOS42MjUgIiBmaWxsPSJub25lIiBzdHlsZT0ic3Ryb2tlOiMxODE4MTg7c3Ryb2tlLXdpZHRoOjEuMDsiLz48cGF0aCBkPSJNMzk2LDE3MjguMjYxNyBMNDA2LDE3MjguMjYxNyBDNDIxLDE3MjguMjYxNyA0MjEsMTMwMi4xMzI4IDQzNiwxMzAyLjEzMjggTDQ0NiwxMzAyLjEzMjggIiBmaWxsPSJub25lIiBzdHlsZT0ic3Ryb2tlOiMxODE4MTg7c3Ryb2tlLXdpZHRoOjEuMDsiLz48cmVjdCBmaWxsPSIjRjFGMUYxIiBoZWlnaHQ9IjM0Ljk4NDQiIHJ4PSIxMi41IiByeT0iMTIuNSIgc3R5bGU9InN0cm9rZTojMTgxODE4O3N0cm9rZS13aWR0aDoxLjU7IiB3aWR0aD0iNjIiIHg9IjQ0NiIgeT0iMTQ0OS41OTM4Ii8+PHRleHQgZmlsbD0iIzAwMDAwMCIgZm9udC1mYW1pbHk9InNhbnMtc2VyaWYiIGZvbnQtc2l6ZT0iMTQiIGxlbmd0aEFkanVzdD0ic3BhY2luZyIgdGV4dExlbmd0aD0iNDIiIHg9IjQ1NiIgeT0iMTQ3Mi44MjgxIj5RdWV1ZXM8L3RleHQ+PHJlY3QgZmlsbD0iI0YxRjFGMSIgaGVpZ2h0PSIzNC45ODQ0IiByeD0iMTIuNSIgcnk9IjEyLjUiIHN0eWxlPSJzdHJva2U6IzE4MTgxODtzdHJva2Utd2lkdGg6MS41OyIgd2lkdGg9IjQ4IiB4PSI1NTgiIHk9IjEzNjcuMTE3MiIvPjx0ZXh0IGZpbGw9IiMwMDAwMDAiIGZvbnQtZmFtaWx5PSJzYW5zLXNlcmlmIiBmb250LXNpemU9IjE0IiBsZW5ndGhBZGp1c3Q9InNwYWNpbmciIHRleHRMZW5ndGg9IjI4IiB4PSI1NjgiIHk9IjEzOTAuMzUxNiI+RklGTzwvdGV4dD48cGF0aCBkPSJNNTA4LDE0NjcuMDg1OSBMNTE4LDE0NjcuMDg1OSBDNTMzLDE0NjcuMDg1OSA1MzMsMTM4NC42MDk0IDU0OCwxMzg0LjYwOTQgTDU1OCwxMzg0LjYwOTQgIiBmaWxsPSJub25lIiBzdHlsZT0ic3Ryb2tlOiMxODE4MTg7c3Ryb2tlLXdpZHRoOjEuMDsiLz48cmVjdCBmaWxsPSIjRjFGMUYxIiBoZWlnaHQ9IjM0Ljk4NDQiIHJ4PSIxMi41IiByeT0iMTIuNSIgc3R5bGU9InN0cm9rZTojMTgxODE4O3N0cm9rZS13aWR0aDoxLjU7IiB3aWR0aD0iMTE4IiB4PSI1NTgiIHk9IjE0MjIuMTAxNiIvPjx0ZXh0IGZpbGw9IiMwMDAwMDAiIGZvbnQtZmFtaWx5PSJzYW5zLXNlcmlmIiBmb250LXNpemU9IjE0IiBsZW5ndGhBZGp1c3Q9InNwYWNpbmciIHRleHRMZW5ndGg9Ijk4IiB4PSI1NjgiIHk9IjE0NDUuMzM1OSI+UHJpb3JpdHkgUXVldWU8L3RleHQ+PHBhdGggZD0iTTUwOCwxNDY3LjA4NTkgTDUxOCwxNDY3LjA4NTkgQzUzMywxNDY3LjA4NTkgNTMzLDE0MzkuNTkzOCA1NDgsMTQzOS41OTM4IEw1NTgsMTQzOS41OTM4ICIgZmlsbD0ibm9uZSIgc3R5bGU9InN0cm9rZTojMTgxODE4O3N0cm9rZS13aWR0aDoxLjA7Ii8+PHJlY3QgZmlsbD0iI0YxRjFGMSIgaGVpZ2h0PSIzNC45ODQ0IiByeD0iMTIuNSIgcnk9IjEyLjUiIHN0eWxlPSJzdHJva2U6IzE4MTgxODtzdHJva2Utd2lkdGg6MS41OyIgd2lkdGg9IjE0NiIgeD0iNTU4IiB5PSIxNDc3LjA4NTkiLz48dGV4dCBmaWxsPSIjMDAwMDAwIiBmb250LWZhbWlseT0ic2Fucy1zZXJpZiIgZm9udC1zaXplPSIxNCIgbGVuZ3RoQWRqdXN0PSJzcGFjaW5nIiB0ZXh0TGVuZ3RoPSIxMjYiIHg9IjU2OCIgeT0iMTUwMC4zMjAzIj5Eb3VibGUtRW5kZWQgUXVldWU8L3RleHQ+PHBhdGggZD0iTTUwOCwxNDY3LjA4NTkgTDUxOCwxNDY3LjA4NTkgQzUzMywxNDY3LjA4NTkgNTMzLDE0OTQuNTc4MSA1NDgsMTQ5NC41NzgxIEw1NTgsMTQ5NC41NzgxICIgZmlsbD0ibm9uZSIgc3R5bGU9InN0cm9rZTojMTgxODE4O3N0cm9rZS13aWR0aDoxLjA7Ii8+PHJlY3QgZmlsbD0iI0YxRjFGMSIgaGVpZ2h0PSIzNC45ODQ0IiByeD0iMTIuNSIgcnk9IjEyLjUiIHN0eWxlPSJzdHJva2U6IzE4MTgxODtzdHJva2Utd2lkdGg6MS41OyIgd2lkdGg9IjExOCIgeD0iNTU4IiB5PSIxNTMyLjA3MDMiLz48dGV4dCBmaWxsPSIjMDAwMDAwIiBmb250LWZhbWlseT0ic2Fucy1zZXJpZiIgZm9udC1zaXplPSIxNCIgbGVuZ3RoQWRqdXN0PSJzcGFjaW5nIiB0ZXh0TGVuZ3RoPSI5OCIgeD0iNTY4IiB5PSIxNTU1LjMwNDciPkNpcmN1bGFyIFF1ZXVlPC90ZXh0PjxwYXRoIGQ9Ik01MDgsMTQ2Ny4wODU5IEw1MTgsMTQ2Ny4wODU5IEM1MzMsMTQ2Ny4wODU5IDUzMywxNTQ5LjU2MjUgNTQ4LDE1NDkuNTYyNSBMNTU4LDE1NDkuNTYyNSAiIGZpbGw9Im5vbmUiIHN0eWxlPSJzdHJva2U6IzE4MTgxODtzdHJva2Utd2lkdGg6MS4wOyIvPjxwYXRoIGQ9Ik0zOTYsMTcyOC4yNjE3IEw0MDYsMTcyOC4yNjE3IEM0MjEsMTcyOC4yNjE3IDQyMSwxNDY3LjA4NTkgNDM2LDE0NjcuMDg1OSBMNDQ2LDE0NjcuMDg1OSAiIGZpbGw9Im5vbmUiIHN0eWxlPSJzdHJva2U6IzE4MTgxODtzdHJva2Utd2lkdGg6MS4wOyIvPjxyZWN0IGZpbGw9IiNGMUYxRjEiIGhlaWdodD0iMzQuOTg0NCIgcng9IjEyLjUiIHJ5PSIxMi41IiBzdHlsZT0ic3Ryb2tlOiMxODE4MTg7c3Ryb2tlLXdpZHRoOjEuNTsiIHdpZHRoPSIxMDQiIHg9IjQ0NiIgeT0iMTY0Mi4wMzkxIi8+PHRleHQgZmlsbD0iIzAwMDAwMCIgZm9udC1mYW1pbHk9InNhbnMtc2VyaWYiIGZvbnQtc2l6ZT0iMTQiIGxlbmd0aEFkanVzdD0ic3BhY2luZyIgdGV4dExlbmd0aD0iODQiIHg9IjQ1NiIgeT0iMTY2NS4yNzM0Ij5MaW5rZWQgTGlzdHM8L3RleHQ+PHJlY3QgZmlsbD0iI0YxRjFGMSIgaGVpZ2h0PSIzNC45ODQ0IiByeD0iMTIuNSIgcnk9IjEyLjUiIHN0eWxlPSJzdHJva2U6IzE4MTgxODtzdHJva2Utd2lkdGg6MS41OyIgd2lkdGg9IjE0NiIgeD0iNjAwIiB5PSIxNTg3LjA1NDciLz48dGV4dCBmaWxsPSIjMDAwMDAwIiBmb250LWZhbWlseT0ic2Fucy1zZXJpZiIgZm9udC1zaXplPSIxNCIgbGVuZ3RoQWRqdXN0PSJzcGFjaW5nIiB0ZXh0TGVuZ3RoPSIxMjYiIHg9IjYxMCIgeT0iMTYxMC4yODkxIj5TaW5nbHkgTGlua2VkIExpc3Q8L3RleHQ+PHBhdGggZD0iTTU1MCwxNjU5LjUzMTMgTDU2MCwxNjU5LjUzMTMgQzU3NSwxNjU5LjUzMTMgNTc1LDE2MDQuNTQ2OSA1OTAsMTYwNC41NDY5IEw2MDAsMTYwNC41NDY5ICIgZmlsbD0ibm9uZSIgc3R5bGU9InN0cm9rZTojMTgxODE4O3N0cm9rZS13aWR0aDoxLjA7Ii8+PHJlY3QgZmlsbD0iI0YxRjFGMSIgaGVpZ2h0PSIzNC45ODQ0IiByeD0iMTIuNSIgcnk9IjEyLjUiIHN0eWxlPSJzdHJva2U6IzE4MTgxODtzdHJva2Utd2lkdGg6MS41OyIgd2lkdGg9IjE0NiIgeD0iNjAwIiB5PSIxNjQyLjAzOTEiLz48dGV4dCBmaWxsPSIjMDAwMDAwIiBmb250LWZhbWlseT0ic2Fucy1zZXJpZiIgZm9udC1zaXplPSIxNCIgbGVuZ3RoQWRqdXN0PSJzcGFjaW5nIiB0ZXh0TGVuZ3RoPSIxMjYiIHg9IjYxMCIgeT0iMTY2NS4yNzM0Ij5Eb3VibHkgTGlua2VkIExpc3Q8L3RleHQ+PHBhdGggZD0iTTU1MCwxNjU5LjUzMTMgTDU2MCwxNjU5LjUzMTMgQzU3NSwxNjU5LjUzMTMgNTc1LDE2NTkuNTMxMyA1OTAsMTY1OS41MzEzIEw2MDAsMTY1OS41MzEzICIgZmlsbD0ibm9uZSIgc3R5bGU9InN0cm9rZTojMTgxODE4O3N0cm9rZS13aWR0aDoxLjA7Ii8+PHJlY3QgZmlsbD0iI0YxRjFGMSIgaGVpZ2h0PSIzNC45ODQ0IiByeD0iMTIuNSIgcnk9IjEyLjUiIHN0eWxlPSJzdHJva2U6IzE4MTgxODtzdHJva2Utd2lkdGg6MS41OyIgd2lkdGg9IjE2MCIgeD0iNjAwIiB5PSIxNjk3LjAyMzQiLz48dGV4dCBmaWxsPSIjMDAwMDAwIiBmb250LWZhbWlseT0ic2Fucy1zZXJpZiIgZm9udC1zaXplPSIxNCIgbGVuZ3RoQWRqdXN0PSJzcGFjaW5nIiB0ZXh0TGVuZ3RoPSIxNDAiIHg9IjYxMCIgeT0iMTcyMC4yNTc4Ij5DaXJjdWxhciBMaW5rZWQgTGlzdDwvdGV4dD48cGF0aCBkPSJNNTUwLDE2NTkuNTMxMyBMNTYwLDE2NTkuNTMxMyBDNTc1LDE2NTkuNTMxMyA1NzUsMTcxNC41MTU2IDU5MCwxNzE0LjUxNTYgTDYwMCwxNzE0LjUxNTYgIiBmaWxsPSJub25lIiBzdHlsZT0ic3Ryb2tlOiMxODE4MTg7c3Ryb2tlLXdpZHRoOjEuMDsiLz48cGF0aCBkPSJNMzk2LDE3MjguMjYxNyBMNDA2LDE3MjguMjYxNyBDNDIxLDE3MjguMjYxNyA0MjEsMTY1OS41MzEzIDQzNiwxNjU5LjUzMTMgTDQ0NiwxNjU5LjUzMTMgIiBmaWxsPSJub25lIiBzdHlsZT0ic3Ryb2tlOiMxODE4MTg7c3Ryb2tlLXdpZHRoOjEuMDsiLz48cmVjdCBmaWxsPSIjRjFGMUYxIiBoZWlnaHQ9IjM0Ljk4NDQiIHJ4PSIxMi41IiByeT0iMTIuNSIgc3R5bGU9InN0cm9rZTojMTgxODE4O3N0cm9rZS13aWR0aDoxLjU7IiB3aWR0aD0iNTUiIHg9IjQ0NiIgeT0iMTgzNC40ODQ0Ii8+PHRleHQgZmlsbD0iIzAwMDAwMCIgZm9udC1mYW1pbHk9InNhbnMtc2VyaWYiIGZvbnQtc2l6ZT0iMTQiIGxlbmd0aEFkanVzdD0ic3BhY2luZyIgdGV4dExlbmd0aD0iMzUiIHg9IjQ1NiIgeT0iMTg1Ny43MTg4Ij5UcmVlczwvdGV4dD48cmVjdCBmaWxsPSIjRjFGMUYxIiBoZWlnaHQ9IjM0Ljk4NDQiIHJ4PSIxMi41IiByeT0iMTIuNSIgc3R5bGU9InN0cm9rZTojMTgxODE4O3N0cm9rZS13aWR0aDoxLjU7IiB3aWR0aD0iMTA0IiB4PSI1NTEiIHk9IjE3NTIuMDA3OCIvPjx0ZXh0IGZpbGw9IiMwMDAwMDAiIGZvbnQtZmFtaWx5PSJzYW5zLXNlcmlmIiBmb250LXNpemU9IjE0IiBsZW5ndGhBZGp1c3Q9InNwYWNpbmciIHRleHRMZW5ndGg9Ijg0IiB4PSI1NjEiIHk9IjE3NzUuMjQyMiI+QmluYXJ5IFRyZWVzPC90ZXh0PjxwYXRoIGQ9Ik01MDEsMTg1MS45NzY2IEw1MTEsMTg1MS45NzY2IEM1MjYsMTg1MS45NzY2IDUyNiwxNzY5LjUgNTQxLDE3NjkuNSBMNTUxLDE3NjkuNSAiIGZpbGw9Im5vbmUiIHN0eWxlPSJzdHJva2U6IzE4MTgxODtzdHJva2Utd2lkdGg6MS4wOyIvPjxyZWN0IGZpbGw9IiNGMUYxRjEiIGhlaWdodD0iMzQuOTg0NCIgcng9IjEyLjUiIHJ5PSIxMi41IiBzdHlsZT0ic3Ryb2tlOiMxODE4MTg7c3Ryb2tlLXdpZHRoOjEuNTsiIHdpZHRoPSI4MyIgeD0iNTUxIiB5PSIxODA2Ljk5MjIiLz48dGV4dCBmaWxsPSIjMDAwMDAwIiBmb250LWZhbWlseT0ic2Fucy1zZXJpZiIgZm9udC1zaXplPSIxNCIgbGVuZ3RoQWRqdXN0PSJzcGFjaW5nIiB0ZXh0TGVuZ3RoPSI2MyIgeD0iNTYxIiB5PSIxODMwLjIyNjYiPkFWTCBUcmVlczwvdGV4dD48cGF0aCBkPSJNNTAxLDE4NTEuOTc2NiBMNTExLDE4NTEuOTc2NiBDNTI2LDE4NTEuOTc2NiA1MjYsMTgyNC40ODQ0IDU0MSwxODI0LjQ4NDQgTDU1MSwxODI0LjQ4NDQgIiBmaWxsPSJub25lIiBzdHlsZT0ic3Ryb2tlOiMxODE4MTg7c3Ryb2tlLXdpZHRoOjEuMDsiLz48cmVjdCBmaWxsPSIjRjFGMUYxIiBoZWlnaHQ9IjM0Ljk4NDQiIHJ4PSIxMi41IiByeT0iMTIuNSIgc3R5bGU9InN0cm9rZTojMTgxODE4O3N0cm9rZS13aWR0aDoxLjU7IiB3aWR0aD0iMTI1IiB4PSI1NTEiIHk9IjE4NjEuOTc2NiIvPjx0ZXh0IGZpbGw9IiMwMDAwMDAiIGZvbnQtZmFtaWx5PSJzYW5zLXNlcmlmIiBmb250LXNpemU9IjE0IiBsZW5ndGhBZGp1c3Q9InNwYWNpbmciIHRleHRMZW5ndGg9IjEwNSIgeD0iNTYxIiB5PSIxODg1LjIxMDkiPlJlZC1CbGFjayBUcmVlczwvdGV4dD48cGF0aCBkPSJNNTAxLDE4NTEuOTc2NiBMNTExLDE4NTEuOTc2NiBDNTI2LDE4NTEuOTc2NiA1MjYsMTg3OS40Njg4IDU0MSwxODc5LjQ2ODggTDU1MSwxODc5LjQ2ODggIiBmaWxsPSJub25lIiBzdHlsZT0ic3Ryb2tlOiMxODE4MTg7c3Ryb2tlLXdpZHRoOjEuMDsiLz48cmVjdCBmaWxsPSIjRjFGMUYxIiBoZWlnaHQ9IjM0Ljk4NDQiIHJ4PSIxMi41IiByeT0iMTIuNSIgc3R5bGU9InN0cm9rZTojMTgxODE4O3N0cm9rZS13aWR0aDoxLjU7IiB3aWR0aD0iNjkiIHg9IjU1MSIgeT0iMTkxNi45NjA5Ii8+PHRleHQgZmlsbD0iIzAwMDAwMCIgZm9udC1mYW1pbHk9InNhbnMtc2VyaWYiIGZvbnQtc2l6ZT0iMTQiIGxlbmd0aEFkanVzdD0ic3BhY2luZyIgdGV4dExlbmd0aD0iNDkiIHg9IjU2MSIgeT0iMTk0MC4xOTUzIj5CLVRyZWVzPC90ZXh0PjxwYXRoIGQ9Ik01MDEsMTg1MS45NzY2IEw1MTEsMTg1MS45NzY2IEM1MjYsMTg1MS45NzY2IDUyNiwxOTM0LjQ1MzEgNTQxLDE5MzQuNDUzMSBMNTUxLDE5MzQuNDUzMSAiIGZpbGw9Im5vbmUiIHN0eWxlPSJzdHJva2U6IzE4MTgxODtzdHJva2Utd2lkdGg6MS4wOyIvPjxwYXRoIGQ9Ik0zOTYsMTcyOC4yNjE3IEw0MDYsMTcyOC4yNjE3IEM0MjEsMTcyOC4yNjE3IDQyMSwxODUxLjk3NjYgNDM2LDE4NTEuOTc2NiBMNDQ2LDE4NTEuOTc2NiAiIGZpbGw9Im5vbmUiIHN0eWxlPSJzdHJva2U6IzE4MTgxODtzdHJva2Utd2lkdGg6MS4wOyIvPjxyZWN0IGZpbGw9IiNGMUYxRjEiIGhlaWdodD0iMzQuOTg0NCIgcng9IjEyLjUiIHJ5PSIxMi41IiBzdHlsZT0ic3Ryb2tlOiMxODE4MTg7c3Ryb2tlLXdpZHRoOjEuNTsiIHdpZHRoPSI2MiIgeD0iNDQ2IiB5PSIyMDgxLjkxNDEiLz48dGV4dCBmaWxsPSIjMDAwMDAwIiBmb250LWZhbWlseT0ic2Fucy1zZXJpZiIgZm9udC1zaXplPSIxNCIgbGVuZ3RoQWRqdXN0PSJzcGFjaW5nIiB0ZXh0TGVuZ3RoPSI0MiIgeD0iNDU2IiB5PSIyMTA1LjE0ODQiPkdyYXBoczwvdGV4dD48cmVjdCBmaWxsPSIjRjFGMUYxIiBoZWlnaHQ9IjM0Ljk4NDQiIHJ4PSIxMi41IiByeT0iMTIuNSIgc3R5bGU9InN0cm9rZTojMTgxODE4O3N0cm9rZS13aWR0aDoxLjU7IiB3aWR0aD0iMTE4IiB4PSI1NTgiIHk9IjE5NzEuOTQ1MyIvPjx0ZXh0IGZpbGw9IiMwMDAwMDAiIGZvbnQtZmFtaWx5PSJzYW5zLXNlcmlmIiBmb250LXNpemU9IjE0IiBsZW5ndGhBZGp1c3Q9InNwYWNpbmciIHRleHRMZW5ndGg9Ijk4IiB4PSI1NjgiIHk9IjE5OTUuMTc5NyI+RGlyZWN0ZWQgR3JhcGg8L3RleHQ+PHBhdGggZD0iTTUwOCwyMDk5LjQwNjMgTDUxOCwyMDk5LjQwNjMgQzUzMywyMDk5LjQwNjMgNTMzLDE5ODkuNDM3NSA1NDgsMTk4OS40Mzc1IEw1NTgsMTk4OS40Mzc1ICIgZmlsbD0ibm9uZSIgc3R5bGU9InN0cm9rZTojMTgxODE4O3N0cm9rZS13aWR0aDoxLjA7Ii8+PHJlY3QgZmlsbD0iI0YxRjFGMSIgaGVpZ2h0PSIzNC45ODQ0IiByeD0iMTIuNSIgcnk9IjEyLjUiIHN0eWxlPSJzdHJva2U6IzE4MTgxODtzdHJva2Utd2lkdGg6MS41OyIgd2lkdGg9IjEzMiIgeD0iNTU4IiB5PSIyMDI2LjkyOTciLz48dGV4dCBmaWxsPSIjMDAwMDAwIiBmb250LWZhbWlseT0ic2Fucy1zZXJpZiIgZm9udC1zaXplPSIxNCIgbGVuZ3RoQWRqdXN0PSJzcGFjaW5nIiB0ZXh0TGVuZ3RoPSIxMTIiIHg9IjU2OCIgeT0iMjA1MC4xNjQxIj5VbmRpcmVjdGVkIEdyYXBoPC90ZXh0PjxwYXRoIGQ9Ik01MDgsMjA5OS40MDYzIEw1MTgsMjA5OS40MDYzIEM1MzMsMjA5OS40MDYzIDUzMywyMDQ0LjQyMTkgNTQ4LDIwNDQuNDIxOSBMNTU4LDIwNDQuNDIxOSAiIGZpbGw9Im5vbmUiIHN0eWxlPSJzdHJva2U6IzE4MTgxODtzdHJva2Utd2lkdGg6MS4wOyIvPjxyZWN0IGZpbGw9IiNGMUYxRjEiIGhlaWdodD0iMzQuOTg0NCIgcng9IjEyLjUiIHJ5PSIxMi41IiBzdHlsZT0ic3Ryb2tlOiMxODE4MTg7c3Ryb2tlLXdpZHRoOjEuNTsiIHdpZHRoPSIxMTgiIHg9IjU1OCIgeT0iMjA4MS45MTQxIi8+PHRleHQgZmlsbD0iIzAwMDAwMCIgZm9udC1mYW1pbHk9InNhbnMtc2VyaWYiIGZvbnQtc2l6ZT0iMTQiIGxlbmd0aEFkanVzdD0ic3BhY2luZyIgdGV4dExlbmd0aD0iOTgiIHg9IjU2OCIgeT0iMjEwNS4xNDg0Ij5XZWlnaHRlZCBHcmFwaDwvdGV4dD48cGF0aCBkPSJNNTA4LDIwOTkuNDA2MyBMNTE4LDIwOTkuNDA2MyBDNTMzLDIwOTkuNDA2MyA1MzMsMjA5OS40MDYzIDU0OCwyMDk5LjQwNjMgTDU1OCwyMDk5LjQwNjMgIiBmaWxsPSJub25lIiBzdHlsZT0ic3Ryb2tlOiMxODE4MTg7c3Ryb2tlLXdpZHRoOjEuMDsiLz48cmVjdCBmaWxsPSIjRjFGMUYxIiBoZWlnaHQ9IjM0Ljk4NDQiIHJ4PSIxMi41IiByeT0iMTIuNSIgc3R5bGU9InN0cm9rZTojMTgxODE4O3N0cm9rZS13aWR0aDoxLjU7IiB3aWR0aD0iMTA0IiB4PSI1NTgiIHk9IjIxMzYuODk4NCIvPjx0ZXh0IGZpbGw9IiMwMDAwMDAiIGZvbnQtZmFtaWx5PSJzYW5zLXNlcmlmIiBmb250LXNpemU9IjE0IiBsZW5ndGhBZGp1c3Q9InNwYWNpbmciIHRleHRMZW5ndGg9Ijg0IiB4PSI1NjgiIHk9IjIxNjAuMTMyOCI+Q3ljbGljIEdyYXBoPC90ZXh0PjxwYXRoIGQ9Ik01MDgsMjA5OS40MDYzIEw1MTgsMjA5OS40MDYzIEM1MzMsMjA5OS40MDYzIDUzMywyMTU0LjM5MDYgNTQ4LDIxNTQuMzkwNiBMNTU4LDIxNTQuMzkwNiAiIGZpbGw9Im5vbmUiIHN0eWxlPSJzdHJva2U6IzE4MTgxODtzdHJva2Utd2lkdGg6MS4wOyIvPjxyZWN0IGZpbGw9IiNGMUYxRjEiIGhlaWdodD0iMzQuOTg0NCIgcng9IjEyLjUiIHJ5PSIxMi41IiBzdHlsZT0ic3Ryb2tlOiMxODE4MTg7c3Ryb2tlLXdpZHRoOjEuNTsiIHdpZHRoPSIxMTEiIHg9IjU1OCIgeT0iMjE5MS44ODI4Ii8+PHRleHQgZmlsbD0iIzAwMDAwMCIgZm9udC1mYW1pbHk9InNhbnMtc2VyaWYiIGZvbnQtc2l6ZT0iMTQiIGxlbmd0aEFkanVzdD0ic3BhY2luZyIgdGV4dExlbmd0aD0iOTEiIHg9IjU2OCIgeT0iMjIxNS4xMTcyIj5BY3ljbGljIEdyYXBoPC90ZXh0PjxwYXRoIGQ9Ik01MDgsMjA5OS40MDYzIEw1MTgsMjA5OS40MDYzIEM1MzMsMjA5OS40MDYzIDUzMywyMjA5LjM3NSA1NDgsMjIwOS4zNzUgTDU1OCwyMjA5LjM3NSAiIGZpbGw9Im5vbmUiIHN0eWxlPSJzdHJva2U6IzE4MTgxODtzdHJva2Utd2lkdGg6MS4wOyIvPjxwYXRoIGQ9Ik0zOTYsMTcyOC4yNjE3IEw0MDYsMTcyOC4yNjE3IEM0MjEsMTcyOC4yNjE3IDQyMSwyMDk5LjQwNjMgNDM2LDIwOTkuNDA2MyBMNDQ2LDIwOTkuNDA2MyAiIGZpbGw9Im5vbmUiIHN0eWxlPSJzdHJva2U6IzE4MTgxODtzdHJva2Utd2lkdGg6MS4wOyIvPjxwYXRoIGQ9Ik0yMjEsMzk4Mi42MjExIEwyMzEsMzk4Mi42MjExIEMyNDYsMzk4Mi42MjExIDI0NiwxNzI4LjI2MTcgMjYxLDE3MjguMjYxNyBMMjcxLDE3MjguMjYxNyAiIGZpbGw9Im5vbmUiIHN0eWxlPSJzdHJva2U6IzE4MTgxODtzdHJva2Utd2lkdGg6MS4wOyIvPjxyZWN0IGZpbGw9IiNGMUYxRjEiIGhlaWdodD0iMzQuOTg0NCIgcng9IjEyLjUiIHJ5PSIxMi41IiBzdHlsZT0ic3Ryb2tlOiMxODE4MTg7c3Ryb2tlLXdpZHRoOjEuNTsiIHdpZHRoPSI0OCIgeD0iMjcxIiB5PSIyNzY5LjIxODgiLz48dGV4dCBmaWxsPSIjMDAwMDAwIiBmb250LWZhbWlseT0ic2Fucy1zZXJpZiIgZm9udC1zaXplPSIxNCIgbGVuZ3RoQWRqdXN0PSJzcGFjaW5nIiB0ZXh0TGVuZ3RoPSIyOCIgeD0iMjgxIiB5PSIyNzkyLjQ1MzEiPlVzZXM8L3RleHQ+PHJlY3QgZmlsbD0iI0YxRjFGMSIgaGVpZ2h0PSIzNC45ODQ0IiByeD0iMTIuNSIgcnk9IjEyLjUiIHN0eWxlPSJzdHJva2U6IzE4MTgxODtzdHJva2Utd2lkdGg6MS41OyIgd2lkdGg9IjE2MSIgeD0iMzY5IiB5PSIyMzI5LjM0MzgiLz48dGV4dCBmaWxsPSIjMDAwMDAwIiBmb250LWZhbWlseT0ic2Fucy1zZXJpZiIgZm9udC1zaXplPSIxNCIgbGVuZ3RoQWRqdXN0PSJzcGFjaW5nIiB0ZXh0TGVuZ3RoPSIxNDEiIHg9IjM3OSIgeT0iMjM1Mi41NzgxIj5TY2llbnRpZmljIENvbXB1dGluZzwvdGV4dD48cmVjdCBmaWxsPSIjRjFGMUYxIiBoZWlnaHQ9IjM0Ljk4NDQiIHJ4PSIxMi41IiByeT0iMTIuNSIgc3R5bGU9InN0cm9rZTojMTgxODE4O3N0cm9rZS13aWR0aDoxLjU7IiB3aWR0aD0iOTAiIHg9IjU4MCIgeT0iMjI0Ni44NjcyIi8+PHRleHQgZmlsbD0iIzAwMDAwMCIgZm9udC1mYW1pbHk9InNhbnMtc2VyaWYiIGZvbnQtc2l6ZT0iMTQiIGxlbmd0aEFkanVzdD0ic3BhY2luZyIgdGV4dExlbmd0aD0iNzAiIHg9IjU5MCIgeT0iMjI3MC4xMDE2Ij5NYXRwbG90bGliPC90ZXh0PjxwYXRoIGQ9Ik01MzAsMjM0Ni44MzU5IEw1NDAsMjM0Ni44MzU5IEM1NTUsMjM0Ni44MzU5IDU1NSwyMjY0LjM1OTQgNTcwLDIyNjQuMzU5NCBMNTgwLDIyNjQuMzU5NCAiIGZpbGw9Im5vbmUiIHN0eWxlPSJzdHJva2U6IzE4MTgxODtzdHJva2Utd2lkdGg6MS4wOyIvPjxyZWN0IGZpbGw9IiNGMUYxRjEiIGhlaWdodD0iMzQuOTg0NCIgcng9IjEyLjUiIHJ5PSIxMi41IiBzdHlsZT0ic3Ryb2tlOiMxODE4MTg7c3Ryb2tlLXdpZHRoOjEuNTsiIHdpZHRoPSI1NiIgeD0iNTgwIiB5PSIyMzAxLjg1MTYiLz48dGV4dCBmaWxsPSIjMDAwMDAwIiBmb250LWZhbWlseT0ic2Fucy1zZXJpZiIgZm9udC1zaXplPSIxNCIgbGVuZ3RoQWRqdXN0PSJzcGFjaW5nIiB0ZXh0TGVuZ3RoPSIzNiIgeD0iNTkwIiB5PSIyMzI1LjA4NTkiPlN5bVB5PC90ZXh0PjxwYXRoIGQ9Ik01MzAsMjM0Ni44MzU5IEw1NDAsMjM0Ni44MzU5IEM1NTUsMjM0Ni44MzU5IDU1NSwyMzE5LjM0MzggNTcwLDIzMTkuMzQzOCBMNTgwLDIzMTkuMzQzOCAiIGZpbGw9Im5vbmUiIHN0eWxlPSJzdHJva2U6IzE4MTgxODtzdHJva2Utd2lkdGg6MS4wOyIvPjxyZWN0IGZpbGw9IiNGMUYxRjEiIGhlaWdodD0iMzQuOTg0NCIgcng9IjEyLjUiIHJ5PSIxMi41IiBzdHlsZT0ic3Ryb2tlOiMxODE4MTg7c3Ryb2tlLXdpZHRoOjEuNTsiIHdpZHRoPSI1NSIgeD0iNTgwIiB5PSIyMzU2LjgzNTkiLz48dGV4dCBmaWxsPSIjMDAwMDAwIiBmb250LWZhbWlseT0ic2Fucy1zZXJpZiIgZm9udC1zaXplPSIxNCIgbGVuZ3RoQWRqdXN0PSJzcGFjaW5nIiB0ZXh0TGVuZ3RoPSIzNSIgeD0iNTkwIiB5PSIyMzgwLjA3MDMiPlNjaVB5PC90ZXh0PjxwYXRoIGQ9Ik01MzAsMjM0Ni44MzU5IEw1NDAsMjM0Ni44MzU5IEM1NTUsMjM0Ni44MzU5IDU1NSwyMzc0LjMyODEgNTcwLDIzNzQuMzI4MSBMNTgwLDIzNzQuMzI4MSAiIGZpbGw9Im5vbmUiIHN0eWxlPSJzdHJva2U6IzE4MTgxODtzdHJva2Utd2lkdGg6MS4wOyIvPjxyZWN0IGZpbGw9IiNGMUYxRjEiIGhlaWdodD0iMzQuOTg0NCIgcng9IjEyLjUiIHJ5PSIxMi41IiBzdHlsZT0ic3Ryb2tlOiMxODE4MTg7c3Ryb2tlLXdpZHRoOjEuNTsiIHdpZHRoPSI1NiIgeD0iNTgwIiB5PSIyNDExLjgyMDMiLz48dGV4dCBmaWxsPSIjMDAwMDAwIiBmb250LWZhbWlseT0ic2Fucy1zZXJpZiIgZm9udC1zaXplPSIxNCIgbGVuZ3RoQWRqdXN0PSJzcGFjaW5nIiB0ZXh0TGVuZ3RoPSIzNiIgeD0iNTkwIiB5PSIyNDM1LjA1NDciPk51bVB5PC90ZXh0PjxwYXRoIGQ9Ik01MzAsMjM0Ni44MzU5IEw1NDAsMjM0Ni44MzU5IEM1NTUsMjM0Ni44MzU5IDU1NSwyNDI5LjMxMjUgNTcwLDI0MjkuMzEyNSBMNTgwLDI0MjkuMzEyNSAiIGZpbGw9Im5vbmUiIHN0eWxlPSJzdHJva2U6IzE4MTgxODtzdHJva2Utd2lkdGg6MS4wOyIvPjxwYXRoIGQ9Ik0zMTksMjc4Ni43MTA5IEwzMjksMjc4Ni43MTA5IEMzNDQsMjc4Ni43MTA5IDM0NCwyMzQ2LjgzNTkgMzU5LDIzNDYuODM1OSBMMzY5LDIzNDYuODM1OSAiIGZpbGw9Im5vbmUiIHN0eWxlPSJzdHJva2U6IzE4MTgxODtzdHJva2Utd2lkdGg6MS4wOyIvPjxyZWN0IGZpbGw9IiNGMUYxRjEiIGhlaWdodD0iMzQuOTg0NCIgcng9IjEyLjUiIHJ5PSIxMi41IiBzdHlsZT0ic3Ryb2tlOiMxODE4MTg7c3Ryb2tlLXdpZHRoOjEuNTsiIHdpZHRoPSIxMTEiIHg9IjM2OSIgeT0iMjYwNC4yNjU2Ii8+PHRleHQgZmlsbD0iIzAwMDAwMCIgZm9udC1mYW1pbHk9InNhbnMtc2VyaWYiIGZvbnQtc2l6ZT0iMTQiIGxlbmd0aEFkanVzdD0ic3BhY2luZyIgdGV4dExlbmd0aD0iOTEiIHg9IjM3OSIgeT0iMjYyNy41Ij5EYXRhIEFuYWx5c2lzPC90ZXh0PjxyZWN0IGZpbGw9IiNGMUYxRjEiIGhlaWdodD0iMzQuOTg0NCIgcng9IjEyLjUiIHJ5PSIxMi41IiBzdHlsZT0ic3Ryb2tlOiMxODE4MTg7c3Ryb2tlLXdpZHRoOjEuNTsiIHdpZHRoPSI2MiIgeD0iNTMwIiB5PSIyNDY2LjgwNDciLz48dGV4dCBmaWxsPSIjMDAwMDAwIiBmb250LWZhbWlseT0ic2Fucy1zZXJpZiIgZm9udC1zaXplPSIxNCIgbGVuZ3RoQWRqdXN0PSJzcGFjaW5nIiB0ZXh0TGVuZ3RoPSI0MiIgeD0iNTQwIiB5PSIyNDkwLjAzOTEiPlBhbmRhczwvdGV4dD48cGF0aCBkPSJNNDgwLDI2MjEuNzU3OCBMNDkwLDI2MjEuNzU3OCBDNTA1LDI2MjEuNzU3OCA1MDUsMjQ4NC4yOTY5IDUyMCwyNDg0LjI5NjkgTDUzMCwyNDg0LjI5NjkgIiBmaWxsPSJub25lIiBzdHlsZT0ic3Ryb2tlOiMxODE4MTg7c3Ryb2tlLXdpZHRoOjEuMDsiLz48cmVjdCBmaWxsPSIjRjFGMUYxIiBoZWlnaHQ9IjM0Ljk4NDQiIHJ4PSIxMi41IiByeT0iMTIuNSIgc3R5bGU9InN0cm9rZTojMTgxODE4O3N0cm9rZS13aWR0aDoxLjU7IiB3aWR0aD0iOTEiIHg9IjUzMCIgeT0iMjUyMS43ODkxIi8+PHRleHQgZmlsbD0iIzAwMDAwMCIgZm9udC1mYW1pbHk9InNhbnMtc2VyaWYiIGZvbnQtc2l6ZT0iMTQiIGxlbmd0aEFkanVzdD0ic3BhY2luZyIgdGV4dExlbmd0aD0iNzEiIHg9IjU0MCIgeT0iMjU0NS4wMjM0Ij5EYXRhRnJhbWVzPC90ZXh0PjxwYXRoIGQ9Ik00ODAsMjYyMS43NTc4IEw0OTAsMjYyMS43NTc4IEM1MDUsMjYyMS43NTc4IDUwNSwyNTM5LjI4MTMgNTIwLDI1MzkuMjgxMyBMNTMwLDI1MzkuMjgxMyAiIGZpbGw9Im5vbmUiIHN0eWxlPSJzdHJva2U6IzE4MTgxODtzdHJva2Utd2lkdGg6MS4wOyIvPjxyZWN0IGZpbGw9IiNGMUYxRjEiIGhlaWdodD0iMzQuOTg0NCIgcng9IjEyLjUiIHJ5PSIxMi41IiBzdHlsZT0ic3Ryb2tlOiMxODE4MTg7c3Ryb2tlLXdpZHRoOjEuNTsiIHdpZHRoPSI2MiIgeD0iNTMwIiB5PSIyNTc2Ljc3MzQiLz48dGV4dCBmaWxsPSIjMDAwMDAwIiBmb250LWZhbWlseT0ic2Fucy1zZXJpZiIgZm9udC1zaXplPSIxNCIgbGVuZ3RoQWRqdXN0PSJzcGFjaW5nIiB0ZXh0TGVuZ3RoPSI0MiIgeD0iNTQwIiB5PSIyNjAwLjAwNzgiPlNlcmllczwvdGV4dD48cGF0aCBkPSJNNDgwLDI2MjEuNzU3OCBMNDkwLDI2MjEuNzU3OCBDNTA1LDI2MjEuNzU3OCA1MDUsMjU5NC4yNjU2IDUyMCwyNTk0LjI2NTYgTDUzMCwyNTk0LjI2NTYgIiBmaWxsPSJub25lIiBzdHlsZT0ic3Ryb2tlOiMxODE4MTg7c3Ryb2tlLXdpZHRoOjEuMDsiLz48cmVjdCBmaWxsPSIjRjFGMUYxIiBoZWlnaHQ9IjM0Ljk4NDQiIHJ4PSIxMi41IiByeT0iMTIuNSIgc3R5bGU9InN0cm9rZTojMTgxODE4O3N0cm9rZS13aWR0aDoxLjU7IiB3aWR0aD0iODMiIHg9IjUzMCIgeT0iMjYzMS43NTc4Ii8+PHRleHQgZmlsbD0iIzAwMDAwMCIgZm9udC1mYW1pbHk9InNhbnMtc2VyaWYiIGZvbnQtc2l6ZT0iMTQiIGxlbmd0aEFkanVzdD0ic3BhY2luZyIgdGV4dExlbmd0aD0iNjMiIHg9IjU0MCIgeT0iMjY1NC45OTIyIj5JL08gVG9vbHM8L3RleHQ+PHBhdGggZD0iTTQ4MCwyNjIxLjc1NzggTDQ5MCwyNjIxLjc1NzggQzUwNSwyNjIxLjc1NzggNTA1LDI2NDkuMjUgNTIwLDI2NDkuMjUgTDUzMCwyNjQ5LjI1ICIgZmlsbD0ibm9uZSIgc3R5bGU9InN0cm9rZTojMTgxODE4O3N0cm9rZS13aWR0aDoxLjA7Ii8+PHJlY3QgZmlsbD0iI0YxRjFGMSIgaGVpZ2h0PSIzNC45ODQ0IiByeD0iMTIuNSIgcnk9IjEyLjUiIHN0eWxlPSJzdHJva2U6IzE4MTgxODtzdHJva2Utd2lkdGg6MS41OyIgd2lkdGg9IjExMSIgeD0iNTMwIiB5PSIyNjg2Ljc0MjIiLz48dGV4dCBmaWxsPSIjMDAwMDAwIiBmb250LWZhbWlseT0ic2Fucy1zZXJpZiIgZm9udC1zaXplPSIxNCIgbGVuZ3RoQWRqdXN0PSJzcGFjaW5nIiB0ZXh0TGVuZ3RoPSI5MSIgeD0iNTQwIiB5PSIyNzA5Ljk3NjYiPlZpc3VhbGl6YXRpb248L3RleHQ+PHBhdGggZD0iTTQ4MCwyNjIxLjc1NzggTDQ5MCwyNjIxLjc1NzggQzUwNSwyNjIxLjc1NzggNTA1LDI3MDQuMjM0NCA1MjAsMjcwNC4yMzQ0IEw1MzAsMjcwNC4yMzQ0ICIgZmlsbD0ibm9uZSIgc3R5bGU9InN0cm9rZTojMTgxODE4O3N0cm9rZS13aWR0aDoxLjA7Ii8+PHJlY3QgZmlsbD0iI0YxRjFGMSIgaGVpZ2h0PSIzNC45ODQ0IiByeD0iMTIuNSIgcnk9IjEyLjUiIHN0eWxlPSJzdHJva2U6IzE4MTgxODtzdHJva2Utd2lkdGg6MS41OyIgd2lkdGg9IjEyNSIgeD0iNTMwIiB5PSIyNzQxLjcyNjYiLz48dGV4dCBmaWxsPSIjMDAwMDAwIiBmb250LWZhbWlseT0ic2Fucy1zZXJpZiIgZm9udC1zaXplPSIxNCIgbGVuZ3RoQWRqdXN0PSJzcGFjaW5nIiB0ZXh0TGVuZ3RoPSIxMDUiIHg9IjU0MCIgeT0iMjc2NC45NjA5Ij5TUUwgSW50ZWdyYXRpb248L3RleHQ+PHBhdGggZD0iTTQ4MCwyNjIxLjc1NzggTDQ5MCwyNjIxLjc1NzggQzUwNSwyNjIxLjc1NzggNTA1LDI3NTkuMjE4OCA1MjAsMjc1OS4yMTg4IEw1MzAsMjc1OS4yMTg4ICIgZmlsbD0ibm9uZSIgc3R5bGU9InN0cm9rZTojMTgxODE4O3N0cm9rZS13aWR0aDoxLjA7Ii8+PHBhdGggZD0iTTMxOSwyNzg2LjcxMDkgTDMyOSwyNzg2LjcxMDkgQzM0NCwyNzg2LjcxMDkgMzQ0LDI2MjEuNzU3OCAzNTksMjYyMS43NTc4IEwzNjksMjYyMS43NTc4ICIgZmlsbD0ibm9uZSIgc3R5bGU9InN0cm9rZTojMTgxODE4O3N0cm9rZS13aWR0aDoxLjA7Ii8+PHJlY3QgZmlsbD0iI0YxRjFGMSIgaGVpZ2h0PSIzNC45ODQ0IiByeD0iMTIuNSIgcnk9IjEyLjUiIHN0eWxlPSJzdHJva2U6IzE4MTgxODtzdHJva2Utd2lkdGg6MS41OyIgd2lkdGg9IjEyNiIgeD0iMzY5IiB5PSIyODc5LjE4NzUiLz48dGV4dCBmaWxsPSIjMDAwMDAwIiBmb250LWZhbWlseT0ic2Fucy1zZXJpZiIgZm9udC1zaXplPSIxNCIgbGVuZ3RoQWRqdXN0PSJzcGFjaW5nIiB0ZXh0TGVuZ3RoPSIxMDYiIHg9IjM3OSIgeT0iMjkwMi40MjE5Ij5XZWIgRGV2ZWxvcG1lbnQ8L3RleHQ+PHJlY3QgZmlsbD0iI0YxRjFGMSIgaGVpZ2h0PSIzNC45ODQ0IiByeD0iMTIuNSIgcnk9IjEyLjUiIHN0eWxlPSJzdHJva2U6IzE4MTgxODtzdHJva2Utd2lkdGg6MS41OyIgd2lkdGg9IjU1IiB4PSI1NDUiIHk9IjI3OTYuNzEwOSIvPjx0ZXh0IGZpbGw9IiMwMDAwMDAiIGZvbnQtZmFtaWx5PSJzYW5zLXNlcmlmIiBmb250LXNpemU9IjE0IiBsZW5ndGhBZGp1c3Q9InNwYWNpbmciIHRleHRMZW5ndGg9IjM1IiB4PSI1NTUiIHk9IjI4MTkuOTQ1MyI+Rmxhc2s8L3RleHQ+PHBhdGggZD0iTTQ5NSwyODk2LjY3OTcgTDUwNSwyODk2LjY3OTcgQzUyMCwyODk2LjY3OTcgNTIwLDI4MTQuMjAzMSA1MzUsMjgxNC4yMDMxIEw1NDUsMjgxNC4yMDMxICIgZmlsbD0ibm9uZSIgc3R5bGU9InN0cm9rZTojMTgxODE4O3N0cm9rZS13aWR0aDoxLjA7Ii8+PHJlY3QgZmlsbD0iI0YxRjFGMSIgaGVpZ2h0PSIzNC45ODQ0IiByeD0iMTIuNSIgcnk9IjEyLjUiIHN0eWxlPSJzdHJva2U6IzE4MTgxODtzdHJva2Utd2lkdGg6MS41OyIgd2lkdGg9IjYyIiB4PSI1NDUiIHk9IjI4NTEuNjk1MyIvPjx0ZXh0IGZpbGw9IiMwMDAwMDAiIGZvbnQtZmFtaWx5PSJzYW5zLXNlcmlmIiBmb250LXNpemU9IjE0IiBsZW5ndGhBZGp1c3Q9InNwYWNpbmciIHRleHRMZW5ndGg9IjQyIiB4PSI1NTUiIHk9IjI4NzQuOTI5NyI+RGphbmdvPC90ZXh0PjxwYXRoIGQ9Ik00OTUsMjg5Ni42Nzk3IEw1MDUsMjg5Ni42Nzk3IEM1MjAsMjg5Ni42Nzk3IDUyMCwyODY5LjE4NzUgNTM1LDI4NjkuMTg3NSBMNTQ1LDI4NjkuMTg3NSAiIGZpbGw9Im5vbmUiIHN0eWxlPSJzdHJva2U6IzE4MTgxODtzdHJva2Utd2lkdGg6MS4wOyIvPjxyZWN0IGZpbGw9IiNGMUYxRjEiIGhlaWdodD0iMzQuOTg0NCIgcng9IjEyLjUiIHJ5PSIxMi41IiBzdHlsZT0ic3Ryb2tlOiMxODE4MTg7c3Ryb2tlLXdpZHRoOjEuNTsiIHdpZHRoPSI3MCIgeD0iNTQ1IiB5PSIyOTA2LjY3OTciLz48dGV4dCBmaWxsPSIjMDAwMDAwIiBmb250LWZhbWlseT0ic2Fucy1zZXJpZiIgZm9udC1zaXplPSIxNCIgbGVuZ3RoQWRqdXN0PSJzcGFjaW5nIiB0ZXh0TGVuZ3RoPSI1MCIgeD0iNTU1IiB5PSIyOTI5LjkxNDEiPlB5cmFtaWQ8L3RleHQ+PHBhdGggZD0iTTQ5NSwyODk2LjY3OTcgTDUwNSwyODk2LjY3OTcgQzUyMCwyODk2LjY3OTcgNTIwLDI5MjQuMTcxOSA1MzUsMjkyNC4xNzE5IEw1NDUsMjkyNC4xNzE5ICIgZmlsbD0ibm9uZSIgc3R5bGU9InN0cm9rZTojMTgxODE4O3N0cm9rZS13aWR0aDoxLjA7Ii8+PHJlY3QgZmlsbD0iI0YxRjFGMSIgaGVpZ2h0PSIzNC45ODQ0IiByeD0iMTIuNSIgcnk9IjEyLjUiIHN0eWxlPSJzdHJva2U6IzE4MTgxODtzdHJva2Utd2lkdGg6MS41OyIgd2lkdGg9IjY5IiB4PSI1NDUiIHk9IjI5NjEuNjY0MSIvPjx0ZXh0IGZpbGw9IiMwMDAwMDAiIGZvbnQtZmFtaWx5PSJzYW5zLXNlcmlmIiBmb250LXNpemU9IjE0IiBsZW5ndGhBZGp1c3Q9InNwYWNpbmciIHRleHRMZW5ndGg9IjQ5IiB4PSI1NTUiIHk9IjI5ODQuODk4NCI+RmFzdEFQSTwvdGV4dD48cGF0aCBkPSJNNDk1LDI4OTYuNjc5NyBMNTA1LDI4OTYuNjc5NyBDNTIwLDI4OTYuNjc5NyA1MjAsMjk3OS4xNTYzIDUzNSwyOTc5LjE1NjMgTDU0NSwyOTc5LjE1NjMgIiBmaWxsPSJub25lIiBzdHlsZT0ic3Ryb2tlOiMxODE4MTg7c3Ryb2tlLXdpZHRoOjEuMDsiLz48cGF0aCBkPSJNMzE5LDI3ODYuNzEwOSBMMzI5LDI3ODYuNzEwOSBDMzQ0LDI3ODYuNzEwOSAzNDQsMjg5Ni42Nzk3IDM1OSwyODk2LjY3OTcgTDM2OSwyODk2LjY3OTcgIiBmaWxsPSJub25lIiBzdHlsZT0ic3Ryb2tlOiMxODE4MTg7c3Ryb2tlLXdpZHRoOjEuMDsiLz48cmVjdCBmaWxsPSIjRjFGMUYxIiBoZWlnaHQ9IjM0Ljk4NDQiIHJ4PSIxMi41IiByeT0iMTIuNSIgc3R5bGU9InN0cm9rZTojMTgxODE4O3N0cm9rZS13aWR0aDoxLjU7IiB3aWR0aD0iMTMyIiB4PSIzNjkiIHk9IjMxNTQuMTA5NCIvPjx0ZXh0IGZpbGw9IiMwMDAwMDAiIGZvbnQtZmFtaWx5PSJzYW5zLXNlcmlmIiBmb250LXNpemU9IjE0IiBsZW5ndGhBZGp1c3Q9InNwYWNpbmciIHRleHRMZW5ndGg9IjExMiIgeD0iMzc5IiB5PSIzMTc3LjM0MzgiPk1hY2hpbmUgTGVhcm5pbmc8L3RleHQ+PHJlY3QgZmlsbD0iI0YxRjFGMSIgaGVpZ2h0PSIzNC45ODQ0IiByeD0iMTIuNSIgcnk9IjEyLjUiIHN0eWxlPSJzdHJva2U6IzE4MTgxODtzdHJva2Utd2lkdGg6MS41OyIgd2lkdGg9IjkxIiB4PSI1NTEiIHk9IjMwMTYuNjQ4NCIvPjx0ZXh0IGZpbGw9IiMwMDAwMDAiIGZvbnQtZmFtaWx5PSJzYW5zLXNlcmlmIiBmb250LXNpemU9IjE0IiBsZW5ndGhBZGp1c3Q9InNwYWNpbmciIHRleHRMZW5ndGg9IjcxIiB4PSI1NjEiIHk9IjMwMzkuODgyOCI+VGVuc29yRmxvdzwvdGV4dD48cGF0aCBkPSJNNTAxLDMxNzEuNjAxNiBMNTExLDMxNzEuNjAxNiBDNTI2LDMxNzEuNjAxNiA1MjYsMzAzNC4xNDA2IDU0MSwzMDM0LjE0MDYgTDU1MSwzMDM0LjE0MDYgIiBmaWxsPSJub25lIiBzdHlsZT0ic3Ryb2tlOiMxODE4MTg7c3Ryb2tlLXdpZHRoOjEuMDsiLz48cmVjdCBmaWxsPSIjRjFGMUYxIiBoZWlnaHQ9IjM0Ljk4NDQiIHJ4PSIxMi41IiByeT0iMTIuNSIgc3R5bGU9InN0cm9rZTojMTgxODE4O3N0cm9rZS13aWR0aDoxLjU7IiB3aWR0aD0iNTUiIHg9IjU1MSIgeT0iMzA3MS42MzI4Ii8+PHRleHQgZmlsbD0iIzAwMDAwMCIgZm9udC1mYW1pbHk9InNhbnMtc2VyaWYiIGZvbnQtc2l6ZT0iMTQiIGxlbmd0aEFkanVzdD0ic3BhY2luZyIgdGV4dExlbmd0aD0iMzUiIHg9IjU2MSIgeT0iMzA5NC44NjcyIj5LZXJhczwvdGV4dD48cGF0aCBkPSJNNTAxLDMxNzEuNjAxNiBMNTExLDMxNzEuNjAxNiBDNTI2LDMxNzEuNjAxNiA1MjYsMzA4OS4xMjUgNTQxLDMwODkuMTI1IEw1NTEsMzA4OS4xMjUgIiBmaWxsPSJub25lIiBzdHlsZT0ic3Ryb2tlOiMxODE4MTg7c3Ryb2tlLXdpZHRoOjEuMDsiLz48cmVjdCBmaWxsPSIjRjFGMUYxIiBoZWlnaHQ9IjM0Ljk4NDQiIHJ4PSIxMi41IiByeT0iMTIuNSIgc3R5bGU9InN0cm9rZTojMTgxODE4O3N0cm9rZS13aWR0aDoxLjU7IiB3aWR0aD0iNjkiIHg9IjU1MSIgeT0iMzEyNi42MTcyIi8+PHRleHQgZmlsbD0iIzAwMDAwMCIgZm9udC1mYW1pbHk9InNhbnMtc2VyaWYiIGZvbnQtc2l6ZT0iMTQiIGxlbmd0aEFkanVzdD0ic3BhY2luZyIgdGV4dExlbmd0aD0iNDkiIHg9IjU2MSIgeT0iMzE0OS44NTE2Ij5QeVRvcmNoPC90ZXh0PjxwYXRoIGQ9Ik01MDEsMzE3MS42MDE2IEw1MTEsMzE3MS42MDE2IEM1MjYsMzE3MS42MDE2IDUyNiwzMTQ0LjEwOTQgNTQxLDMxNDQuMTA5NCBMNTUxLDMxNDQuMTA5NCAiIGZpbGw9Im5vbmUiIHN0eWxlPSJzdHJva2U6IzE4MTgxODtzdHJva2Utd2lkdGg6MS4wOyIvPjxyZWN0IGZpbGw9IiNGMUYxRjEiIGhlaWdodD0iMzQuOTg0NCIgcng9IjEyLjUiIHJ5PSIxMi41IiBzdHlsZT0ic3Ryb2tlOiMxODE4MTg7c3Ryb2tlLXdpZHRoOjEuNTsiIHdpZHRoPSIxMDQiIHg9IjU1MSIgeT0iMzE4MS42MDE2Ii8+PHRleHQgZmlsbD0iIzAwMDAwMCIgZm9udC1mYW1pbHk9InNhbnMtc2VyaWYiIGZvbnQtc2l6ZT0iMTQiIGxlbmd0aEFkanVzdD0ic3BhY2luZyIgdGV4dExlbmd0aD0iODQiIHg9IjU2MSIgeT0iMzIwNC44MzU5Ij5TY2lraXQtbGVhcm48L3RleHQ+PHBhdGggZD0iTTUwMSwzMTcxLjYwMTYgTDUxMSwzMTcxLjYwMTYgQzUyNiwzMTcxLjYwMTYgNTI2LDMxOTkuMDkzOCA1NDEsMzE5OS4wOTM4IEw1NTEsMzE5OS4wOTM4ICIgZmlsbD0ibm9uZSIgc3R5bGU9InN0cm9rZTojMTgxODE4O3N0cm9rZS13aWR0aDoxLjA7Ii8+PHJlY3QgZmlsbD0iI0YxRjFGMSIgaGVpZ2h0PSIzNC45ODQ0IiByeD0iMTIuNSIgcnk9IjEyLjUiIHN0eWxlPSJzdHJva2U6IzE4MTgxODtzdHJva2Utd2lkdGg6MS41OyIgd2lkdGg9IjYyIiB4PSI1NTEiIHk9IjMyMzYuNTg1OSIvPjx0ZXh0IGZpbGw9IiMwMDAwMDAiIGZvbnQtZmFtaWx5PSJzYW5zLXNlcmlmIiBmb250LXNpemU9IjE0IiBsZW5ndGhBZGp1c3Q9InNwYWNpbmciIHRleHRMZW5ndGg9IjQyIiB4PSI1NjEiIHk9IjMyNTkuODIwMyI+T3BlbkNWPC90ZXh0PjxwYXRoIGQ9Ik01MDEsMzE3MS42MDE2IEw1MTEsMzE3MS42MDE2IEM1MjYsMzE3MS42MDE2IDUyNiwzMjU0LjA3ODEgNTQxLDMyNTQuMDc4MSBMNTUxLDMyNTQuMDc4MSAiIGZpbGw9Im5vbmUiIHN0eWxlPSJzdHJva2U6IzE4MTgxODtzdHJva2Utd2lkdGg6MS4wOyIvPjxyZWN0IGZpbGw9IiNGMUYxRjEiIGhlaWdodD0iMzQuOTg0NCIgcng9IjEyLjUiIHJ5PSIxMi41IiBzdHlsZT0ic3Ryb2tlOiMxODE4MTg7c3Ryb2tlLXdpZHRoOjEuNTsiIHdpZHRoPSIxODgiIHg9IjU1MSIgeT0iMzI5MS41NzAzIi8+PHRleHQgZmlsbD0iIzAwMDAwMCIgZm9udC1mYW1pbHk9InNhbnMtc2VyaWYiIGZvbnQtc2l6ZT0iMTQiIGxlbmd0aEFkanVzdD0ic3BhY2luZyIgdGV4dExlbmd0aD0iMTY4IiB4PSI1NjEiIHk9IjMzMTQuODA0NyI+TmF0dXJhbCBMYW5ndWFnZSBUb29sa2l0PC90ZXh0PjxwYXRoIGQ9Ik01MDEsMzE3MS42MDE2IEw1MTEsMzE3MS42MDE2IEM1MjYsMzE3MS42MDE2IDUyNiwzMzA5LjA2MjUgNTQxLDMzMDkuMDYyNSBMNTUxLDMzMDkuMDYyNSAiIGZpbGw9Im5vbmUiIHN0eWxlPSJzdHJva2U6IzE4MTgxODtzdHJva2Utd2lkdGg6MS4wOyIvPjxwYXRoIGQ9Ik0zMTksMjc4Ni43MTA5IEwzMjksMjc4Ni43MTA5IEMzNDQsMjc4Ni43MTA5IDM0NCwzMTcxLjYwMTYgMzU5LDMxNzEuNjAxNiBMMzY5LDMxNzEuNjAxNiAiIGZpbGw9Im5vbmUiIHN0eWxlPSJzdHJva2U6IzE4MTgxODtzdHJva2Utd2lkdGg6MS4wOyIvPjxwYXRoIGQ9Ik0yMjEsMzk4Mi42MjExIEwyMzEsMzk4Mi42MjExIEMyNDYsMzk4Mi42MjExIDI0NiwyNzg2LjcxMDkgMjYxLDI3ODYuNzEwOSBMMjcxLDI3ODYuNzEwOSAiIGZpbGw9Im5vbmUiIHN0eWxlPSJzdHJva2U6IzE4MTgxODtzdHJva2Utd2lkdGg6MS4wOyIvPjxyZWN0IGZpbGw9IiNGMUYxRjEiIGhlaWdodD0iMzQuOTg0NCIgcng9IjEyLjUiIHJ5PSIxMi41IiBzdHlsZT0ic3Ryb2tlOiMxODE4MTg7c3Ryb2tlLXdpZHRoOjEuNTsiIHdpZHRoPSI4MyIgeD0iMjcxIiB5PSI0OTQxLjEwMTYiLz48dGV4dCBmaWxsPSIjMDAwMDAwIiBmb250LWZhbWlseT0ic2Fucy1zZXJpZiIgZm9udC1zaXplPSIxNCIgbGVuZ3RoQWRqdXN0PSJzcGFjaW5nIiB0ZXh0TGVuZ3RoPSI2MyIgeD0iMjgxIiB5PSI0OTY0LjMzNTkiPkxpYnJhcmllczwvdGV4dD48cmVjdCBmaWxsPSIjRjFGMUYxIiBoZWlnaHQ9IjM0Ljk4NDQiIHJ4PSIxMi41IiByeT0iMTIuNSIgc3R5bGU9InN0cm9rZTojMTgxODE4O3N0cm9rZS13aWR0aDoxLjU7IiB3aWR0aD0iOTAiIHg9IjQwNCIgeT0iMzQwMS41MzkxIi8+PHRleHQgZmlsbD0iIzAwMDAwMCIgZm9udC1mYW1pbHk9InNhbnMtc2VyaWYiIGZvbnQtc2l6ZT0iMTQiIGxlbmd0aEFkanVzdD0ic3BhY2luZyIgdGV4dExlbmd0aD0iNzAiIHg9IjQxNCIgeT0iMzQyNC43NzM0Ij5NYXRwbG90bGliPC90ZXh0PjxyZWN0IGZpbGw9IiNGMUYxRjEiIGhlaWdodD0iMzQuOTg0NCIgcng9IjEyLjUiIHJ5PSIxMi41IiBzdHlsZT0ic3Ryb2tlOiMxODE4MTg7c3Ryb2tlLXdpZHRoOjEuNTsiIHdpZHRoPSI2MiIgeD0iNTQ0IiB5PSIzMzQ2LjU1NDciLz48dGV4dCBmaWxsPSIjMDAwMDAwIiBmb250LWZhbWlseT0ic2Fucy1zZXJpZiIgZm9udC1zaXplPSIxNCIgbGVuZ3RoQWRqdXN0PSJzcGFjaW5nIiB0ZXh0TGVuZ3RoPSI0MiIgeD0iNTU0IiB5PSIzMzY5Ljc4OTEiPlB5cGxvdDwvdGV4dD48cGF0aCBkPSJNNDk0LDM0MTkuMDMxMyBMNTA0LDM0MTkuMDMxMyBDNTE5LDM0MTkuMDMxMyA1MTksMzM2NC4wNDY5IDUzNCwzMzY0LjA0NjkgTDU0NCwzMzY0LjA0NjkgIiBmaWxsPSJub25lIiBzdHlsZT0ic3Ryb2tlOiMxODE4MTg7c3Ryb2tlLXdpZHRoOjEuMDsiLz48cmVjdCBmaWxsPSIjRjFGMUYxIiBoZWlnaHQ9IjM0Ljk4NDQiIHJ4PSIxMi41IiByeT0iMTIuNSIgc3R5bGU9InN0cm9rZTojMTgxODE4O3N0cm9rZS13aWR0aDoxLjU7IiB3aWR0aD0iODQiIHg9IjU0NCIgeT0iMzQwMS41MzkxIi8+PHRleHQgZmlsbD0iIzAwMDAwMCIgZm9udC1mYW1pbHk9InNhbnMtc2VyaWYiIGZvbnQtc2l6ZT0iMTQiIGxlbmd0aEFkanVzdD0ic3BhY2luZyIgdGV4dExlbmd0aD0iNjQiIHg9IjU1NCIgeT0iMzQyNC43NzM0Ij5BbmltYXRpb248L3RleHQ+PHBhdGggZD0iTTQ5NCwzNDE5LjAzMTMgTDUwNCwzNDE5LjAzMTMgQzUxOSwzNDE5LjAzMTMgNTE5LDM0MTkuMDMxMyA1MzQsMzQxOS4wMzEzIEw1NDQsMzQxOS4wMzEzICIgZmlsbD0ibm9uZSIgc3R5bGU9InN0cm9rZTojMTgxODE4O3N0cm9rZS13aWR0aDoxLjA7Ii8+PHJlY3QgZmlsbD0iI0YxRjFGMSIgaGVpZ2h0PSIzNC45ODQ0IiByeD0iMTIuNSIgcnk9IjEyLjUiIHN0eWxlPSJzdHJva2U6IzE4MTgxODtzdHJva2Utd2lkdGg6MS41OyIgd2lkdGg9Ijc2IiB4PSI1NDQiIHk9IjM0NTYuNTIzNCIvPjx0ZXh0IGZpbGw9IiMwMDAwMDAiIGZvbnQtZmFtaWx5PSJzYW5zLXNlcmlmIiBmb250LXNpemU9IjE0IiBsZW5ndGhBZGp1c3Q9InNwYWNpbmciIHRleHRMZW5ndGg9IjU2IiB4PSI1NTQiIHk9IjM0NzkuNzU3OCI+M0QgUGxvdHM8L3RleHQ+PHBhdGggZD0iTTQ5NCwzNDE5LjAzMTMgTDUwNCwzNDE5LjAzMTMgQzUxOSwzNDE5LjAzMTMgNTE5LDM0NzQuMDE1NiA1MzQsMzQ3NC4wMTU2IEw1NDQsMzQ3NC4wMTU2ICIgZmlsbD0ibm9uZSIgc3R5bGU9InN0cm9rZTojMTgxODE4O3N0cm9rZS13aWR0aDoxLjA7Ii8+PHBhdGggZD0iTTM1NCw0OTU4LjU5MzggTDM2NCw0OTU4LjU5MzggQzM3OSw0OTU4LjU5MzggMzc5LDM0MTkuMDMxMyAzOTQsMzQxOS4wMzEzIEw0MDQsMzQxOS4wMzEzICIgZmlsbD0ibm9uZSIgc3R5bGU9InN0cm9rZTojMTgxODE4O3N0cm9rZS13aWR0aDoxLjA7Ii8+PHJlY3QgZmlsbD0iI0YxRjFGMSIgaGVpZ2h0PSIzNC45ODQ0IiByeD0iMTIuNSIgcnk9IjEyLjUiIHN0eWxlPSJzdHJva2U6IzE4MTgxODtzdHJva2Utd2lkdGg6MS41OyIgd2lkdGg9IjU2IiB4PSI0MDQiIHk9IjM1NjYuNDkyMiIvPjx0ZXh0IGZpbGw9IiMwMDAwMDAiIGZvbnQtZmFtaWx5PSJzYW5zLXNlcmlmIiBmb250LXNpemU9IjE0IiBsZW5ndGhBZGp1c3Q9InNwYWNpbmciIHRleHRMZW5ndGg9IjM2IiB4PSI0MTQiIHk9IjM1ODkuNzI2NiI+U3ltUHk8L3RleHQ+PHJlY3QgZmlsbD0iI0YxRjFGMSIgaGVpZ2h0PSIzNC45ODQ0IiByeD0iMTIuNSIgcnk9IjEyLjUiIHN0eWxlPSJzdHJva2U6IzE4MTgxODtzdHJva2Utd2lkdGg6MS41OyIgd2lkdGg9IjE2MiIgeD0iNTEwIiB5PSIzNTExLjUwNzgiLz48dGV4dCBmaWxsPSIjMDAwMDAwIiBmb250LWZhbWlseT0ic2Fucy1zZXJpZiIgZm9udC1zaXplPSIxNCIgbGVuZ3RoQWRqdXN0PSJzcGFjaW5nIiB0ZXh0TGVuZ3RoPSIxNDIiIHg9IjUyMCIgeT0iMzUzNC43NDIyIj5TeW1ib2xpYyBDb21wdXRhdGlvbjwvdGV4dD48cGF0aCBkPSJNNDYwLDM1ODMuOTg0NCBMNDcwLDM1ODMuOTg0NCBDNDg1LDM1ODMuOTg0NCA0ODUsMzUyOSA1MDAsMzUyOSBMNTEwLDM1MjkgIiBmaWxsPSJub25lIiBzdHlsZT0ic3Ryb2tlOiMxODE4MTg7c3Ryb2tlLXdpZHRoOjEuMDsiLz48cmVjdCBmaWxsPSIjRjFGMUYxIiBoZWlnaHQ9IjM0Ljk4NDQiIHJ4PSIxMi41IiByeT0iMTIuNSIgc3R5bGU9InN0cm9rZTojMTgxODE4O3N0cm9rZS13aWR0aDoxLjU7IiB3aWR0aD0iNzYiIHg9IjUxMCIgeT0iMzU2Ni40OTIyIi8+PHRleHQgZmlsbD0iIzAwMDAwMCIgZm9udC1mYW1pbHk9InNhbnMtc2VyaWYiIGZvbnQtc2l6ZT0iMTQiIGxlbmd0aEFkanVzdD0ic3BhY2luZyIgdGV4dExlbmd0aD0iNTYiIHg9IjUyMCIgeT0iMzU4OS43MjY2Ij5DYWxjdWx1czwvdGV4dD48cGF0aCBkPSJNNDYwLDM1ODMuOTg0NCBMNDcwLDM1ODMuOTg0NCBDNDg1LDM1ODMuOTg0NCA0ODUsMzU4My45ODQ0IDUwMCwzNTgzLjk4NDQgTDUxMCwzNTgzLjk4NDQgIiBmaWxsPSJub25lIiBzdHlsZT0ic3Ryb2tlOiMxODE4MTg7c3Ryb2tlLXdpZHRoOjEuMDsiLz48cmVjdCBmaWxsPSIjRjFGMUYxIiBoZWlnaHQ9IjM0Ljk4NDQiIHJ4PSIxMi41IiByeT0iMTIuNSIgc3R5bGU9InN0cm9rZTojMTgxODE4O3N0cm9rZS13aWR0aDoxLjU7IiB3aWR0aD0iNjkiIHg9IjUxMCIgeT0iMzYyMS40NzY2Ii8+PHRleHQgZmlsbD0iIzAwMDAwMCIgZm9udC1mYW1pbHk9InNhbnMtc2VyaWYiIGZvbnQtc2l6ZT0iMTQiIGxlbmd0aEFkanVzdD0ic3BhY2luZyIgdGV4dExlbmd0aD0iNDkiIHg9IjUyMCIgeT0iMzY0NC43MTA5Ij5BbGdlYnJhPC90ZXh0PjxwYXRoIGQ9Ik00NjAsMzU4My45ODQ0IEw0NzAsMzU4My45ODQ0IEM0ODUsMzU4My45ODQ0IDQ4NSwzNjM4Ljk2ODggNTAwLDM2MzguOTY4OCBMNTEwLDM2MzguOTY4OCAiIGZpbGw9Im5vbmUiIHN0eWxlPSJzdHJva2U6IzE4MTgxODtzdHJva2Utd2lkdGg6MS4wOyIvPjxwYXRoIGQ9Ik0zNTQsNDk1OC41OTM4IEwzNjQsNDk1OC41OTM4IEMzNzksNDk1OC41OTM4IDM3OSwzNTgzLjk4NDQgMzk0LDM1ODMuOTg0NCBMNDA0LDM1ODMuOTg0NCAiIGZpbGw9Im5vbmUiIHN0eWxlPSJzdHJva2U6IzE4MTgxODtzdHJva2Utd2lkdGg6MS4wOyIvPjxyZWN0IGZpbGw9IiNGMUYxRjEiIGhlaWdodD0iMzQuOTg0NCIgcng9IjEyLjUiIHJ5PSIxMi41IiBzdHlsZT0ic3Ryb2tlOiMxODE4MTg7c3Ryb2tlLXdpZHRoOjEuNTsiIHdpZHRoPSI1NSIgeD0iNDA0IiB5PSIzNzg2LjQyOTciLz48dGV4dCBmaWxsPSIjMDAwMDAwIiBmb250LWZhbWlseT0ic2Fucy1zZXJpZiIgZm9udC1zaXplPSIxNCIgbGVuZ3RoQWRqdXN0PSJzcGFjaW5nIiB0ZXh0TGVuZ3RoPSIzNSIgeD0iNDE0IiB5PSIzODA5LjY2NDEiPlNjaVB5PC90ZXh0PjxyZWN0IGZpbGw9IiNGMUYxRjEiIGhlaWdodD0iMzQuOTg0NCIgcng9IjEyLjUiIHJ5PSIxMi41IiBzdHlsZT0ic3Ryb2tlOiMxODE4MTg7c3Ryb2tlLXdpZHRoOjEuNTsiIHdpZHRoPSIxMDUiIHg9IjUwOSIgeT0iMzY3Ni40NjA5Ii8+PHRleHQgZmlsbD0iIzAwMDAwMCIgZm9udC1mYW1pbHk9InNhbnMtc2VyaWYiIGZvbnQtc2l6ZT0iMTQiIGxlbmd0aEFkanVzdD0ic3BhY2luZyIgdGV4dExlbmd0aD0iODUiIHg9IjUxOSIgeT0iMzY5OS42OTUzIj5PcHRpbWl6YXRpb248L3RleHQ+PHBhdGggZD0iTTQ1OSwzODAzLjkyMTkgTDQ2OSwzODAzLjkyMTkgQzQ4NCwzODAzLjkyMTkgNDg0LDM2OTMuOTUzMSA0OTksMzY5My45NTMxIEw1MDksMzY5My45NTMxICIgZmlsbD0ibm9uZSIgc3R5bGU9InN0cm9rZTojMTgxODE4O3N0cm9rZS13aWR0aDoxLjA7Ii8+PHJlY3QgZmlsbD0iI0YxRjFGMSIgaGVpZ2h0PSIzNC45ODQ0IiByeD0iMTIuNSIgcnk9IjEyLjUiIHN0eWxlPSJzdHJva2U6IzE4MTgxODtzdHJva2Utd2lkdGg6MS41OyIgd2lkdGg9IjExOCIgeD0iNTA5IiB5PSIzNzMxLjQ0NTMiLz48dGV4dCBmaWxsPSIjMDAwMDAwIiBmb250LWZhbWlseT0ic2Fucy1zZXJpZiIgZm9udC1zaXplPSIxNCIgbGVuZ3RoQWRqdXN0PSJzcGFjaW5nIiB0ZXh0TGVuZ3RoPSI5OCIgeD0iNTE5IiB5PSIzNzU0LjY3OTciPkxpbmVhciBBbGdlYnJhPC90ZXh0PjxwYXRoIGQ9Ik00NTksMzgwMy45MjE5IEw0NjksMzgwMy45MjE5IEM0ODQsMzgwMy45MjE5IDQ4NCwzNzQ4LjkzNzUgNDk5LDM3NDguOTM3NSBMNTA5LDM3NDguOTM3NSAiIGZpbGw9Im5vbmUiIHN0eWxlPSJzdHJva2U6IzE4MTgxODtzdHJva2Utd2lkdGg6MS4wOyIvPjxyZWN0IGZpbGw9IiNGMUYxRjEiIGhlaWdodD0iMzQuOTg0NCIgcng9IjEyLjUiIHJ5PSIxMi41IiBzdHlsZT0ic3Ryb2tlOiMxODE4MTg7c3Ryb2tlLXdpZHRoOjEuNTsiIHdpZHRoPSI5NyIgeD0iNTA5IiB5PSIzNzg2LjQyOTciLz48dGV4dCBmaWxsPSIjMDAwMDAwIiBmb250LWZhbWlseT0ic2Fucy1zZXJpZiIgZm9udC1zaXplPSIxNCIgbGVuZ3RoQWRqdXN0PSJzcGFjaW5nIiB0ZXh0TGVuZ3RoPSI3NyIgeD0iNTE5IiB5PSIzODA5LjY2NDEiPkludGVncmF0aW9uPC90ZXh0PjxwYXRoIGQ9Ik00NTksMzgwMy45MjE5IEw0NjksMzgwMy45MjE5IEM0ODQsMzgwMy45MjE5IDQ4NCwzODAzLjkyMTkgNDk5LDM4MDMuOTIxOSBMNTA5LDM4MDMuOTIxOSAiIGZpbGw9Im5vbmUiIHN0eWxlPSJzdHJva2U6IzE4MTgxODtzdHJva2Utd2lkdGg6MS4wOyIvPjxyZWN0IGZpbGw9IiNGMUYxRjEiIGhlaWdodD0iMzQuOTg0NCIgcng9IjEyLjUiIHJ5PSIxMi41IiBzdHlsZT0ic3Ryb2tlOiMxODE4MTg7c3Ryb2tlLXdpZHRoOjEuNTsiIHdpZHRoPSIxMzkiIHg9IjUwOSIgeT0iMzg0MS40MTQxIi8+PHRleHQgZmlsbD0iIzAwMDAwMCIgZm9udC1mYW1pbHk9InNhbnMtc2VyaWYiIGZvbnQtc2l6ZT0iMTQiIGxlbmd0aEFkanVzdD0ic3BhY2luZyIgdGV4dExlbmd0aD0iMTE5IiB4PSI1MTkiIHk9IjM4NjQuNjQ4NCI+U2lnbmFsIFByb2Nlc3Npbmc8L3RleHQ+PHBhdGggZD0iTTQ1OSwzODAzLjkyMTkgTDQ2OSwzODAzLjkyMTkgQzQ4NCwzODAzLjkyMTkgNDg0LDM4NTguOTA2MyA0OTksMzg1OC45MDYzIEw1MDksMzg1OC45MDYzICIgZmlsbD0ibm9uZSIgc3R5bGU9InN0cm9rZTojMTgxODE4O3N0cm9rZS13aWR0aDoxLjA7Ii8+PHJlY3QgZmlsbD0iI0YxRjFGMSIgaGVpZ2h0PSIzNC45ODQ0IiByeD0iMTIuNSIgcnk9IjEyLjUiIHN0eWxlPSJzdHJva2U6IzE4MTgxODtzdHJva2Utd2lkdGg6MS41OyIgd2lkdGg9IjE0MCIgeD0iNTA5IiB5PSIzODk2LjM5ODQiLz48dGV4dCBmaWxsPSIjMDAwMDAwIiBmb250LWZhbWlseT0ic2Fucy1zZXJpZiIgZm9udC1zaXplPSIxNCIgbGVuZ3RoQWRqdXN0PSJzcGFjaW5nIiB0ZXh0TGVuZ3RoPSIxMjAiIHg9IjUxOSIgeT0iMzkxOS42MzI4Ij5Gb3VyaWVyIFRyYW5zZm9ybTwvdGV4dD48cGF0aCBkPSJNNDU5LDM4MDMuOTIxOSBMNDY5LDM4MDMuOTIxOSBDNDg0LDM4MDMuOTIxOSA0ODQsMzkxMy44OTA2IDQ5OSwzOTEzLjg5MDYgTDUwOSwzOTEzLjg5MDYgIiBmaWxsPSJub25lIiBzdHlsZT0ic3Ryb2tlOiMxODE4MTg7c3Ryb2tlLXdpZHRoOjEuMDsiLz48cGF0aCBkPSJNMzU0LDQ5NTguNTkzOCBMMzY0LDQ5NTguNTkzOCBDMzc5LDQ5NTguNTkzOCAzNzksMzgwMy45MjE5IDM5NCwzODAzLjkyMTkgTDQwNCwzODAzLjkyMTkgIiBmaWxsPSJub25lIiBzdHlsZT0ic3Ryb2tlOiMxODE4MTg7c3Ryb2tlLXdpZHRoOjEuMDsiLz48cmVjdCBmaWxsPSIjRjFGMUYxIiBoZWlnaHQ9IjM0Ljk4NDQiIHJ4PSIxMi41IiByeT0iMTIuNSIgc3R5bGU9InN0cm9rZTojMTgxODE4O3N0cm9rZS13aWR0aDoxLjU7IiB3aWR0aD0iNTYiIHg9IjQwNCIgeT0iNDA4OC44NDM4Ii8+PHRleHQgZmlsbD0iIzAwMDAwMCIgZm9udC1mYW1pbHk9InNhbnMtc2VyaWYiIGZvbnQtc2l6ZT0iMTQiIGxlbmd0aEFkanVzdD0ic3BhY2luZyIgdGV4dExlbmd0aD0iMzYiIHg9IjQxNCIgeT0iNDExMi4wNzgxIj5OdW1QeTwvdGV4dD48cmVjdCBmaWxsPSIjRjFGMUYxIiBoZWlnaHQ9IjM0Ljk4NDQiIHJ4PSIxMi41IiByeT0iMTIuNSIgc3R5bGU9InN0cm9rZTojMTgxODE4O3N0cm9rZS13aWR0aDoxLjU7IiB3aWR0aD0iNjIiIHg9IjUxMCIgeT0iMzk1MS4zODI4Ii8+PHRleHQgZmlsbD0iIzAwMDAwMCIgZm9udC1mYW1pbHk9InNhbnMtc2VyaWYiIGZvbnQtc2l6ZT0iMTQiIGxlbmd0aEFkanVzdD0ic3BhY2luZyIgdGV4dExlbmd0aD0iNDIiIHg9IjUyMCIgeT0iMzk3NC42MTcyIj5BcnJheXM8L3RleHQ+PHBhdGggZD0iTTQ2MCw0MTA2LjMzNTkgTDQ3MCw0MTA2LjMzNTkgQzQ4NSw0MTA2LjMzNTkgNDg1LDM5NjguODc1IDUwMCwzOTY4Ljg3NSBMNTEwLDM5NjguODc1ICIgZmlsbD0ibm9uZSIgc3R5bGU9InN0cm9rZTojMTgxODE4O3N0cm9rZS13aWR0aDoxLjA7Ii8+PHJlY3QgZmlsbD0iI0YxRjFGMSIgaGVpZ2h0PSIzNC45ODQ0IiByeD0iMTIuNSIgcnk9IjEyLjUiIHN0eWxlPSJzdHJva2U6IzE4MTgxODtzdHJva2Utd2lkdGg6MS41OyIgd2lkdGg9Ijc2IiB4PSI1MTAiIHk9IjQwMDYuMzY3MiIvPjx0ZXh0IGZpbGw9IiMwMDAwMDAiIGZvbnQtZmFtaWx5PSJzYW5zLXNlcmlmIiBmb250LXNpemU9IjE0IiBsZW5ndGhBZGp1c3Q9InNwYWNpbmciIHRleHRMZW5ndGg9IjU2IiB4PSI1MjAiIHk9IjQwMjkuNjAxNiI+TWF0cmljZXM8L3RleHQ+PHBhdGggZD0iTTQ2MCw0MTA2LjMzNTkgTDQ3MCw0MTA2LjMzNTkgQzQ4NSw0MTA2LjMzNTkgNDg1LDQwMjMuODU5NCA1MDAsNDAyMy44NTk0IEw1MTAsNDAyMy44NTk0ICIgZmlsbD0ibm9uZSIgc3R5bGU9InN0cm9rZTojMTgxODE4O3N0cm9rZS13aWR0aDoxLjA7Ii8+PHJlY3QgZmlsbD0iI0YxRjFGMSIgaGVpZ2h0PSIzNC45ODQ0IiByeD0iMTIuNSIgcnk9IjEyLjUiIHN0eWxlPSJzdHJva2U6IzE4MTgxODtzdHJva2Utd2lkdGg6MS41OyIgd2lkdGg9IjE5MCIgeD0iNTEwIiB5PSI0MDYxLjM1MTYiLz48dGV4dCBmaWxsPSIjMDAwMDAwIiBmb250LWZhbWlseT0ic2Fucy1zZXJpZiIgZm9udC1zaXplPSIxNCIgbGVuZ3RoQWRqdXN0PSJzcGFjaW5nIiB0ZXh0TGVuZ3RoPSIxNzAiIHg9IjUyMCIgeT0iNDA4NC41ODU5Ij5SYW5kb20gTnVtYmVyIEdlbmVyYXRpb248L3RleHQ+PHBhdGggZD0iTTQ2MCw0MTA2LjMzNTkgTDQ3MCw0MTA2LjMzNTkgQzQ4NSw0MTA2LjMzNTkgNDg1LDQwNzguODQzOCA1MDAsNDA3OC44NDM4IEw1MTAsNDA3OC44NDM4ICIgZmlsbD0ibm9uZSIgc3R5bGU9InN0cm9rZTojMTgxODE4O3N0cm9rZS13aWR0aDoxLjA7Ii8+PHJlY3QgZmlsbD0iI0YxRjFGMSIgaGVpZ2h0PSIzNC45ODQ0IiByeD0iMTIuNSIgcnk9IjEyLjUiIHN0eWxlPSJzdHJva2U6IzE4MTgxODtzdHJva2Utd2lkdGg6MS41OyIgd2lkdGg9IjEwNCIgeD0iNTEwIiB5PSI0MTE2LjMzNTkiLz48dGV4dCBmaWxsPSIjMDAwMDAwIiBmb250LWZhbWlseT0ic2Fucy1zZXJpZiIgZm9udC1zaXplPSIxNCIgbGVuZ3RoQWRqdXN0PSJzcGFjaW5nIiB0ZXh0TGVuZ3RoPSI4NCIgeD0iNTIwIiB5PSI0MTM5LjU3MDMiPkJyb2FkY2FzdGluZzwvdGV4dD48cGF0aCBkPSJNNDYwLDQxMDYuMzM1OSBMNDcwLDQxMDYuMzM1OSBDNDg1LDQxMDYuMzM1OSA0ODUsNDEzMy44MjgxIDUwMCw0MTMzLjgyODEgTDUxMCw0MTMzLjgyODEgIiBmaWxsPSJub25lIiBzdHlsZT0ic3Ryb2tlOiMxODE4MTg7c3Ryb2tlLXdpZHRoOjEuMDsiLz48cmVjdCBmaWxsPSIjRjFGMUYxIiBoZWlnaHQ9IjM0Ljk4NDQiIHJ4PSIxMi41IiByeT0iMTIuNSIgc3R5bGU9InN0cm9rZTojMTgxODE4O3N0cm9rZS13aWR0aDoxLjU7IiB3aWR0aD0iNzYiIHg9IjUxMCIgeT0iNDE3MS4zMjAzIi8+PHRleHQgZmlsbD0iIzAwMDAwMCIgZm9udC1mYW1pbHk9InNhbnMtc2VyaWYiIGZvbnQtc2l6ZT0iMTQiIGxlbmd0aEFkanVzdD0ic3BhY2luZyIgdGV4dExlbmd0aD0iNTYiIHg9IjUyMCIgeT0iNDE5NC41NTQ3Ij5JbmRleGluZzwvdGV4dD48cGF0aCBkPSJNNDYwLDQxMDYuMzM1OSBMNDcwLDQxMDYuMzM1OSBDNDg1LDQxMDYuMzM1OSA0ODUsNDE4OC44MTI1IDUwMCw0MTg4LjgxMjUgTDUxMCw0MTg4LjgxMjUgIiBmaWxsPSJub25lIiBzdHlsZT0ic3Ryb2tlOiMxODE4MTg7c3Ryb2tlLXdpZHRoOjEuMDsiLz48cmVjdCBmaWxsPSIjRjFGMUYxIiBoZWlnaHQ9IjM0Ljk4NDQiIHJ4PSIxMi41IiByeT0iMTIuNSIgc3R5bGU9InN0cm9rZTojMTgxODE4O3N0cm9rZS13aWR0aDoxLjU7IiB3aWR0aD0iNjkiIHg9IjUxMCIgeT0iNDIyNi4zMDQ3Ii8+PHRleHQgZmlsbD0iIzAwMDAwMCIgZm9udC1mYW1pbHk9InNhbnMtc2VyaWYiIGZvbnQtc2l6ZT0iMTQiIGxlbmd0aEFkanVzdD0ic3BhY2luZyIgdGV4dExlbmd0aD0iNDkiIHg9IjUyMCIgeT0iNDI0OS41MzkxIj5TbGljaW5nPC90ZXh0PjxwYXRoIGQ9Ik00NjAsNDEwNi4zMzU5IEw0NzAsNDEwNi4zMzU5IEM0ODUsNDEwNi4zMzU5IDQ4NSw0MjQzLjc5NjkgNTAwLDQyNDMuNzk2OSBMNTEwLDQyNDMuNzk2OSAiIGZpbGw9Im5vbmUiIHN0eWxlPSJzdHJva2U6IzE4MTgxODtzdHJva2Utd2lkdGg6MS4wOyIvPjxwYXRoIGQ9Ik0zNTQsNDk1OC41OTM4IEwzNjQsNDk1OC41OTM4IEMzNzksNDk1OC41OTM4IDM3OSw0MTA2LjMzNTkgMzk0LDQxMDYuMzM1OSBMNDA0LDQxMDYuMzM1OSAiIGZpbGw9Im5vbmUiIHN0eWxlPSJzdHJva2U6IzE4MTgxODtzdHJva2Utd2lkdGg6MS4wOyIvPjxyZWN0IGZpbGw9IiNGMUYxRjEiIGhlaWdodD0iMzQuOTg0NCIgcng9IjEyLjUiIHJ5PSIxMi41IiBzdHlsZT0ic3Ryb2tlOiMxODE4MTg7c3Ryb2tlLXdpZHRoOjEuNTsiIHdpZHRoPSI2MiIgeD0iNDA0IiB5PSI0NTAxLjIyNjYiLz48dGV4dCBmaWxsPSIjMDAwMDAwIiBmb250LWZhbWlseT0ic2Fucy1zZXJpZiIgZm9udC1zaXplPSIxNCIgbGVuZ3RoQWRqdXN0PSJzcGFjaW5nIiB0ZXh0TGVuZ3RoPSI0MiIgeD0iNDE0IiB5PSI0NTI0LjQ2MDkiPlBhbmRhczwvdGV4dD48cmVjdCBmaWxsPSIjRjFGMUYxIiBoZWlnaHQ9IjM0Ljk4NDQiIHJ4PSIxMi41IiByeT0iMTIuNSIgc3R5bGU9InN0cm9rZTojMTgxODE4O3N0cm9rZS13aWR0aDoxLjU7IiB3aWR0aD0iOTEiIHg9IjUxNiIgeT0iNDI4MS4yODkxIi8+PHRleHQgZmlsbD0iIzAwMDAwMCIgZm9udC1mYW1pbHk9InNhbnMtc2VyaWYiIGZvbnQtc2l6ZT0iMTQiIGxlbmd0aEFkanVzdD0ic3BhY2luZyIgdGV4dExlbmd0aD0iNzEiIHg9IjUyNiIgeT0iNDMwNC41MjM0Ij5EYXRhRnJhbWVzPC90ZXh0PjxwYXRoIGQ9Ik00NjYsNDUxOC43MTg4IEw0NzYsNDUxOC43MTg4IEM0OTEsNDUxOC43MTg4IDQ5MSw0Mjk4Ljc4MTMgNTA2LDQyOTguNzgxMyBMNTE2LDQyOTguNzgxMyAiIGZpbGw9Im5vbmUiIHN0eWxlPSJzdHJva2U6IzE4MTgxODtzdHJva2Utd2lkdGg6MS4wOyIvPjxyZWN0IGZpbGw9IiNGMUYxRjEiIGhlaWdodD0iMzQuOTg0NCIgcng9IjEyLjUiIHJ5PSIxMi41IiBzdHlsZT0ic3Ryb2tlOiMxODE4MTg7c3Ryb2tlLXdpZHRoOjEuNTsiIHdpZHRoPSI2MiIgeD0iNTE2IiB5PSI0MzM2LjI3MzQiLz48dGV4dCBmaWxsPSIjMDAwMDAwIiBmb250LWZhbWlseT0ic2Fucy1zZXJpZiIgZm9udC1zaXplPSIxNCIgbGVuZ3RoQWRqdXN0PSJzcGFjaW5nIiB0ZXh0TGVuZ3RoPSI0MiIgeD0iNTI2IiB5PSI0MzU5LjUwNzgiPlNlcmllczwvdGV4dD48cGF0aCBkPSJNNDY2LDQ1MTguNzE4OCBMNDc2LDQ1MTguNzE4OCBDNDkxLDQ1MTguNzE4OCA0OTEsNDM1My43NjU2IDUwNiw0MzUzLjc2NTYgTDUxNiw0MzUzLjc2NTYgIiBmaWxsPSJub25lIiBzdHlsZT0ic3Ryb2tlOiMxODE4MTg7c3Ryb2tlLXdpZHRoOjEuMDsiLz48cmVjdCBmaWxsPSIjRjFGMUYxIiBoZWlnaHQ9IjM0Ljk4NDQiIHJ4PSIxMi41IiByeT0iMTIuNSIgc3R5bGU9InN0cm9rZTojMTgxODE4O3N0cm9rZS13aWR0aDoxLjU7IiB3aWR0aD0iODMiIHg9IjUxNiIgeT0iNDM5MS4yNTc4Ii8+PHRleHQgZmlsbD0iIzAwMDAwMCIgZm9udC1mYW1pbHk9InNhbnMtc2VyaWYiIGZvbnQtc2l6ZT0iMTQiIGxlbmd0aEFkanVzdD0ic3BhY2luZyIgdGV4dExlbmd0aD0iNjMiIHg9IjUyNiIgeT0iNDQxNC40OTIyIj5JL08gVG9vbHM8L3RleHQ+PHBhdGggZD0iTTQ2Niw0NTE4LjcxODggTDQ3Niw0NTE4LjcxODggQzQ5MSw0NTE4LjcxODggNDkxLDQ0MDguNzUgNTA2LDQ0MDguNzUgTDUxNiw0NDA4Ljc1ICIgZmlsbD0ibm9uZSIgc3R5bGU9InN0cm9rZTojMTgxODE4O3N0cm9rZS13aWR0aDoxLjA7Ii8+PHJlY3QgZmlsbD0iI0YxRjFGMSIgaGVpZ2h0PSIzNC45ODQ0IiByeD0iMTIuNSIgcnk9IjEyLjUiIHN0eWxlPSJzdHJva2U6IzE4MTgxODtzdHJva2Utd2lkdGg6MS41OyIgd2lkdGg9IjgzIiB4PSI1MTYiIHk9IjQ0NDYuMjQyMiIvPjx0ZXh0IGZpbGw9IiMwMDAwMDAiIGZvbnQtZmFtaWx5PSJzYW5zLXNlcmlmIiBmb250LXNpemU9IjE0IiBsZW5ndGhBZGp1c3Q9InNwYWNpbmciIHRleHRMZW5ndGg9IjYzIiB4PSI1MjYiIHk9IjQ0NjkuNDc2NiI+UmVzaGFwaW5nPC90ZXh0PjxwYXRoIGQ9Ik00NjYsNDUxOC43MTg4IEw0NzYsNDUxOC43MTg4IEM0OTEsNDUxOC43MTg4IDQ5MSw0NDYzLjczNDQgNTA2LDQ0NjMuNzM0NCBMNTE2LDQ0NjMuNzM0NCAiIGZpbGw9Im5vbmUiIHN0eWxlPSJzdHJva2U6IzE4MTgxODtzdHJva2Utd2lkdGg6MS4wOyIvPjxyZWN0IGZpbGw9IiNGMUYxRjEiIGhlaWdodD0iMzQuOTg0NCIgcng9IjEyLjUiIHJ5PSIxMi41IiBzdHlsZT0ic3Ryb2tlOiMxODE4MTg7c3Ryb2tlLXdpZHRoOjEuNTsiIHdpZHRoPSI2OSIgeD0iNTE2IiB5PSI0NTAxLjIyNjYiLz48dGV4dCBmaWxsPSIjMDAwMDAwIiBmb250LWZhbWlseT0ic2Fucy1zZXJpZiIgZm9udC1zaXplPSIxNCIgbGVuZ3RoQWRqdXN0PSJzcGFjaW5nIiB0ZXh0TGVuZ3RoPSI0OSIgeD0iNTI2IiB5PSI0NTI0LjQ2MDkiPk1lcmdpbmc8L3RleHQ+PHBhdGggZD0iTTQ2Niw0NTE4LjcxODggTDQ3Niw0NTE4LjcxODggQzQ5MSw0NTE4LjcxODggNDkxLDQ1MTguNzE4OCA1MDYsNDUxOC43MTg4IEw1MTYsNDUxOC43MTg4ICIgZmlsbD0ibm9uZSIgc3R5bGU9InN0cm9rZTojMTgxODE4O3N0cm9rZS13aWR0aDoxLjA7Ii8+PHJlY3QgZmlsbD0iI0YxRjFGMSIgaGVpZ2h0PSIzNC45ODQ0IiByeD0iMTIuNSIgcnk9IjEyLjUiIHN0eWxlPSJzdHJva2U6IzE4MTgxODtzdHJva2Utd2lkdGg6MS41OyIgd2lkdGg9Ijc2IiB4PSI1MTYiIHk9IjQ1NTYuMjEwOSIvPjx0ZXh0IGZpbGw9IiMwMDAwMDAiIGZvbnQtZmFtaWx5PSJzYW5zLXNlcmlmIiBmb250LXNpemU9IjE0IiBsZW5ndGhBZGp1c3Q9InNwYWNpbmciIHRleHRMZW5ndGg9IjU2IiB4PSI1MjYiIHk9IjQ1NzkuNDQ1MyI+R3JvdXBpbmc8L3RleHQ+PHBhdGggZD0iTTQ2Niw0NTE4LjcxODggTDQ3Niw0NTE4LjcxODggQzQ5MSw0NTE4LjcxODggNDkxLDQ1NzMuNzAzMSA1MDYsNDU3My43MDMxIEw1MTYsNDU3My43MDMxICIgZmlsbD0ibm9uZSIgc3R5bGU9InN0cm9rZTojMTgxODE4O3N0cm9rZS13aWR0aDoxLjA7Ii8+PHJlY3QgZmlsbD0iI0YxRjFGMSIgaGVpZ2h0PSIzNC45ODQ0IiByeD0iMTIuNSIgcnk9IjEyLjUiIHN0eWxlPSJzdHJva2U6IzE4MTgxODtzdHJva2Utd2lkdGg6MS41OyIgd2lkdGg9Ijk3IiB4PSI1MTYiIHk9IjQ2MTEuMTk1MyIvPjx0ZXh0IGZpbGw9IiMwMDAwMDAiIGZvbnQtZmFtaWx5PSJzYW5zLXNlcmlmIiBmb250LXNpemU9IjE0IiBsZW5ndGhBZGp1c3Q9InNwYWNpbmciIHRleHRMZW5ndGg9Ijc3IiB4PSI1MjYiIHk9IjQ2MzQuNDI5NyI+QWdncmVnYXRpbmc8L3RleHQ+PHBhdGggZD0iTTQ2Niw0NTE4LjcxODggTDQ3Niw0NTE4LjcxODggQzQ5MSw0NTE4LjcxODggNDkxLDQ2MjguNjg3NSA1MDYsNDYyOC42ODc1IEw1MTYsNDYyOC42ODc1ICIgZmlsbD0ibm9uZSIgc3R5bGU9InN0cm9rZTojMTgxODE4O3N0cm9rZS13aWR0aDoxLjA7Ii8+PHJlY3QgZmlsbD0iI0YxRjFGMSIgaGVpZ2h0PSIzNC45ODQ0IiByeD0iMTIuNSIgcnk9IjEyLjUiIHN0eWxlPSJzdHJva2U6IzE4MTgxODtzdHJva2Utd2lkdGg6MS41OyIgd2lkdGg9IjEwNCIgeD0iNTE2IiB5PSI0NjY2LjE3OTciLz48dGV4dCBmaWxsPSIjMDAwMDAwIiBmb250LWZhbWlseT0ic2Fucy1zZXJpZiIgZm9udC1zaXplPSIxNCIgbGVuZ3RoQWRqdXN0PSJzcGFjaW5nIiB0ZXh0TGVuZ3RoPSI4NCIgeD0iNTI2IiB5PSI0Njg5LjQxNDEiPlBpdm90IFRhYmxlczwvdGV4dD48cGF0aCBkPSJNNDY2LDQ1MTguNzE4OCBMNDc2LDQ1MTguNzE4OCBDNDkxLDQ1MTguNzE4OCA0OTEsNDY4My42NzE5IDUwNiw0NjgzLjY3MTkgTDUxNiw0NjgzLjY3MTkgIiBmaWxsPSJub25lIiBzdHlsZT0ic3Ryb2tlOiMxODE4MTg7c3Ryb2tlLXdpZHRoOjEuMDsiLz48cmVjdCBmaWxsPSIjRjFGMUYxIiBoZWlnaHQ9IjM0Ljk4NDQiIHJ4PSIxMi41IiByeT0iMTIuNSIgc3R5bGU9InN0cm9rZTojMTgxODE4O3N0cm9rZS13aWR0aDoxLjU7IiB3aWR0aD0iOTgiIHg9IjUxNiIgeT0iNDcyMS4xNjQxIi8+PHRleHQgZmlsbD0iIzAwMDAwMCIgZm9udC1mYW1pbHk9InNhbnMtc2VyaWYiIGZvbnQtc2l6ZT0iMTQiIGxlbmd0aEFkanVzdD0ic3BhY2luZyIgdGV4dExlbmd0aD0iNzgiIHg9IjUyNiIgeT0iNDc0NC4zOTg0Ij5UaW1lIFNlcmllczwvdGV4dD48cGF0aCBkPSJNNDY2LDQ1MTguNzE4OCBMNDc2LDQ1MTguNzE4OCBDNDkxLDQ1MTguNzE4OCA0OTEsNDczOC42NTYzIDUwNiw0NzM4LjY1NjMgTDUxNiw0NzM4LjY1NjMgIiBmaWxsPSJub25lIiBzdHlsZT0ic3Ryb2tlOiMxODE4MTg7c3Ryb2tlLXdpZHRoOjEuMDsiLz48cGF0aCBkPSJNMzU0LDQ5NTguNTkzOCBMMzY0LDQ5NTguNTkzOCBDMzc5LDQ5NTguNTkzOCAzNzksNDUxOC43MTg4IDM5NCw0NTE4LjcxODggTDQwNCw0NTE4LjcxODggIiBmaWxsPSJub25lIiBzdHlsZT0ic3Ryb2tlOiMxODE4MTg7c3Ryb2tlLXdpZHRoOjEuMDsiLz48cmVjdCBmaWxsPSIjRjFGMUYxIiBoZWlnaHQ9IjM0Ljk4NDQiIHJ4PSIxMi41IiByeT0iMTIuNSIgc3R5bGU9InN0cm9rZTojMTgxODE4O3N0cm9rZS13aWR0aDoxLjU7IiB3aWR0aD0iMTA0IiB4PSI0MDQiIHk9IjQ4ODYuMTE3MiIvPjx0ZXh0IGZpbGw9IiMwMDAwMDAiIGZvbnQtZmFtaWx5PSJzYW5zLXNlcmlmIiBmb250LXNpemU9IjE0IiBsZW5ndGhBZGp1c3Q9InNwYWNpbmciIHRleHRMZW5ndGg9Ijg0IiB4PSI0MTQiIHk9IjQ5MDkuMzUxNiI+U2Npa2l0LWxlYXJuPC90ZXh0PjxyZWN0IGZpbGw9IiNGMUYxRjEiIGhlaWdodD0iMzQuOTg0NCIgcng9IjEyLjUiIHJ5PSIxMi41IiBzdHlsZT0ic3Ryb2tlOiMxODE4MTg7c3Ryb2tlLXdpZHRoOjEuNTsiIHdpZHRoPSIxNTMiIHg9IjU1OCIgeT0iNDc3Ni4xNDg0Ii8+PHRleHQgZmlsbD0iIzAwMDAwMCIgZm9udC1mYW1pbHk9InNhbnMtc2VyaWYiIGZvbnQtc2l6ZT0iMTQiIGxlbmd0aEFkanVzdD0ic3BhY2luZyIgdGV4dExlbmd0aD0iMTMzIiB4PSI1NjgiIHk9IjQ3OTkuMzgyOCI+U3VwZXJ2aXNlZCBMZWFybmluZzwvdGV4dD48cGF0aCBkPSJNNTA4LDQ5MDMuNjA5NCBMNTE4LDQ5MDMuNjA5NCBDNTMzLDQ5MDMuNjA5NCA1MzMsNDc5My42NDA2IDU0OCw0NzkzLjY0MDYgTDU1OCw0NzkzLjY0MDYgIiBmaWxsPSJub25lIiBzdHlsZT0ic3Ryb2tlOiMxODE4MTg7c3Ryb2tlLXdpZHRoOjEuMDsiLz48cmVjdCBmaWxsPSIjRjFGMUYxIiBoZWlnaHQ9IjM0Ljk4NDQiIHJ4PSIxMi41IiByeT0iMTIuNSIgc3R5bGU9InN0cm9rZTojMTgxODE4O3N0cm9rZS13aWR0aDoxLjU7IiB3aWR0aD0iMTY3IiB4PSI1NTgiIHk9IjQ4MzEuMTMyOCIvPjx0ZXh0IGZpbGw9IiMwMDAwMDAiIGZvbnQtZmFtaWx5PSJzYW5zLXNlcmlmIiBmb250LXNpemU9IjE0IiBsZW5ndGhBZGp1c3Q9InNwYWNpbmciIHRleHRMZW5ndGg9IjE0NyIgeD0iNTY4IiB5PSI0ODU0LjM2NzIiPlVuc3VwZXJ2aXNlZCBMZWFybmluZzwvdGV4dD48cGF0aCBkPSJNNTA4LDQ5MDMuNjA5NCBMNTE4LDQ5MDMuNjA5NCBDNTMzLDQ5MDMuNjA5NCA1MzMsNDg0OC42MjUgNTQ4LDQ4NDguNjI1IEw1NTgsNDg0OC42MjUgIiBmaWxsPSJub25lIiBzdHlsZT0ic3Ryb2tlOiMxODE4MTg7c3Ryb2tlLXdpZHRoOjEuMDsiLz48cmVjdCBmaWxsPSIjRjFGMUYxIiBoZWlnaHQ9IjM0Ljk4NDQiIHJ4PSIxMi41IiByeT0iMTIuNSIgc3R5bGU9InN0cm9rZTojMTgxODE4O3N0cm9rZS13aWR0aDoxLjU7IiB3aWR0aD0iMTg5IiB4PSI1NTgiIHk9IjQ4ODYuMTE3MiIvPjx0ZXh0IGZpbGw9IiMwMDAwMDAiIGZvbnQtZmFtaWx5PSJzYW5zLXNlcmlmIiBmb250LXNpemU9IjE0IiBsZW5ndGhBZGp1c3Q9InNwYWNpbmciIHRleHRMZW5ndGg9IjE2OSIgeD0iNTY4IiB5PSI0OTA5LjM1MTYiPkRpbWVuc2lvbmFsaXR5IFJlZHVjdGlvbjwvdGV4dD48cGF0aCBkPSJNNTA4LDQ5MDMuNjA5NCBMNTE4LDQ5MDMuNjA5NCBDNTMzLDQ5MDMuNjA5NCA1MzMsNDkwMy42MDk0IDU0OCw0OTAzLjYwOTQgTDU1OCw0OTAzLjYwOTQgIiBmaWxsPSJub25lIiBzdHlsZT0ic3Ryb2tlOiMxODE4MTg7c3Ryb2tlLXdpZHRoOjEuMDsiLz48cmVjdCBmaWxsPSIjRjFGMUYxIiBoZWlnaHQ9IjM0Ljk4NDQiIHJ4PSIxMi41IiByeT0iMTIuNSIgc3R5bGU9InN0cm9rZTojMTgxODE4O3N0cm9rZS13aWR0aDoxLjU7IiB3aWR0aD0iMTI1IiB4PSI1NTgiIHk9IjQ5NDEuMTAxNiIvPjx0ZXh0IGZpbGw9IiMwMDAwMDAiIGZvbnQtZmFtaWx5PSJzYW5zLXNlcmlmIiBmb250LXNpemU9IjE0IiBsZW5ndGhBZGp1c3Q9InNwYWNpbmciIHRleHRMZW5ndGg9IjEwNSIgeD0iNTY4IiB5PSI0OTY0LjMzNTkiPk1vZGVsIFNlbGVjdGlvbjwvdGV4dD48cGF0aCBkPSJNNTA4LDQ5MDMuNjA5NCBMNTE4LDQ5MDMuNjA5NCBDNTMzLDQ5MDMuNjA5NCA1MzMsNDk1OC41OTM4IDU0OCw0OTU4LjU5MzggTDU1OCw0OTU4LjU5MzggIiBmaWxsPSJub25lIiBzdHlsZT0ic3Ryb2tlOiMxODE4MTg7c3Ryb2tlLXdpZHRoOjEuMDsiLz48cmVjdCBmaWxsPSIjRjFGMUYxIiBoZWlnaHQ9IjM0Ljk4NDQiIHJ4PSIxMi41IiByeT0iMTIuNSIgc3R5bGU9InN0cm9rZTojMTgxODE4O3N0cm9rZS13aWR0aDoxLjU7IiB3aWR0aD0iMTExIiB4PSI1NTgiIHk9IjQ5OTYuMDg1OSIvPjx0ZXh0IGZpbGw9IiMwMDAwMDAiIGZvbnQtZmFtaWx5PSJzYW5zLXNlcmlmIiBmb250LXNpemU9IjE0IiBsZW5ndGhBZGp1c3Q9InNwYWNpbmciIHRleHRMZW5ndGg9IjkxIiB4PSI1NjgiIHk9IjUwMTkuMzIwMyI+UHJlcHJvY2Vzc2luZzwvdGV4dD48cGF0aCBkPSJNNTA4LDQ5MDMuNjA5NCBMNTE4LDQ5MDMuNjA5NCBDNTMzLDQ5MDMuNjA5NCA1MzMsNTAxMy41NzgxIDU0OCw1MDEzLjU3ODEgTDU1OCw1MDEzLjU3ODEgIiBmaWxsPSJub25lIiBzdHlsZT0ic3Ryb2tlOiMxODE4MTg7c3Ryb2tlLXdpZHRoOjEuMDsiLz48cGF0aCBkPSJNMzU0LDQ5NTguNTkzOCBMMzY0LDQ5NTguNTkzOCBDMzc5LDQ5NTguNTkzOCAzNzksNDkwMy42MDk0IDM5NCw0OTAzLjYwOTQgTDQwNCw0OTAzLjYwOTQgIiBmaWxsPSJub25lIiBzdHlsZT0ic3Ryb2tlOiMxODE4MTg7c3Ryb2tlLXdpZHRoOjEuMDsiLz48cmVjdCBmaWxsPSIjRjFGMUYxIiBoZWlnaHQ9IjM0Ljk4NDQiIHJ4PSIxMi41IiByeT0iMTIuNSIgc3R5bGU9InN0cm9rZTojMTgxODE4O3N0cm9rZS13aWR0aDoxLjU7IiB3aWR0aD0iOTEiIHg9IjQwNCIgeT0iNTIxNi4wMjM0Ii8+PHRleHQgZmlsbD0iIzAwMDAwMCIgZm9udC1mYW1pbHk9InNhbnMtc2VyaWYiIGZvbnQtc2l6ZT0iMTQiIGxlbmd0aEFkanVzdD0ic3BhY2luZyIgdGV4dExlbmd0aD0iNzEiIHg9IjQxNCIgeT0iNTIzOS4yNTc4Ij5UZW5zb3JGbG93PC90ZXh0PjxyZWN0IGZpbGw9IiNGMUYxRjEiIGhlaWdodD0iMzQuOTg0NCIgcng9IjEyLjUiIHJ5PSIxMi41IiBzdHlsZT0ic3Ryb2tlOiMxODE4MTg7c3Ryb2tlLXdpZHRoOjEuNTsiIHdpZHRoPSIxMjYiIHg9IjU0NSIgeT0iNTA1MS4wNzAzIi8+PHRleHQgZmlsbD0iIzAwMDAwMCIgZm9udC1mYW1pbHk9InNhbnMtc2VyaWYiIGZvbnQtc2l6ZT0iMTQiIGxlbmd0aEFkanVzdD0ic3BhY2luZyIgdGV4dExlbmd0aD0iMTA2IiB4PSI1NTUiIHk9IjUwNzQuMzA0NyI+TmV1cmFsIE5ldHdvcmtzPC90ZXh0PjxwYXRoIGQ9Ik00OTUsNTIzMy41MTU2IEw1MDUsNTIzMy41MTU2IEM1MjAsNTIzMy41MTU2IDUyMCw1MDY4LjU2MjUgNTM1LDUwNjguNTYyNSBMNTQ1LDUwNjguNTYyNSAiIGZpbGw9Im5vbmUiIHN0eWxlPSJzdHJva2U6IzE4MTgxODtzdHJva2Utd2lkdGg6MS4wOyIvPjxyZWN0IGZpbGw9IiNGMUYxRjEiIGhlaWdodD0iMzQuOTg0NCIgcng9IjEyLjUiIHJ5PSIxMi41IiBzdHlsZT0ic3Ryb2tlOiMxODE4MTg7c3Ryb2tlLXdpZHRoOjEuNTsiIHdpZHRoPSIyMjQiIHg9IjU0NSIgeT0iNTEwNi4wNTQ3Ii8+PHRleHQgZmlsbD0iIzAwMDAwMCIgZm9udC1mYW1pbHk9InNhbnMtc2VyaWYiIGZvbnQtc2l6ZT0iMTQiIGxlbmd0aEFkanVzdD0ic3BhY2luZyIgdGV4dExlbmd0aD0iMjA0IiB4PSI1NTUiIHk9IjUxMjkuMjg5MSI+Q29udm9sdXRpb25hbCBOZXVyYWwgTmV0d29ya3M8L3RleHQ+PHBhdGggZD0iTTQ5NSw1MjMzLjUxNTYgTDUwNSw1MjMzLjUxNTYgQzUyMCw1MjMzLjUxNTYgNTIwLDUxMjMuNTQ2OSA1MzUsNTEyMy41NDY5IEw1NDUsNTEyMy41NDY5ICIgZmlsbD0ibm9uZSIgc3R5bGU9InN0cm9rZTojMTgxODE4O3N0cm9rZS13aWR0aDoxLjA7Ii8+PHJlY3QgZmlsbD0iI0YxRjFGMSIgaGVpZ2h0PSIzNC45ODQ0IiByeD0iMTIuNSIgcnk9IjEyLjUiIHN0eWxlPSJzdHJva2U6IzE4MTgxODtzdHJva2Utd2lkdGg6MS41OyIgd2lkdGg9IjE5NiIgeD0iNTQ1IiB5PSI1MTYxLjAzOTEiLz48dGV4dCBmaWxsPSIjMDAwMDAwIiBmb250LWZhbWlseT0ic2Fucy1zZXJpZiIgZm9udC1zaXplPSIxNCIgbGVuZ3RoQWRqdXN0PSJzcGFjaW5nIiB0ZXh0TGVuZ3RoPSIxNzYiIHg9IjU1NSIgeT0iNTE4NC4yNzM0Ij5SZWN1cnJlbnQgTmV1cmFsIE5ldHdvcmtzPC90ZXh0PjxwYXRoIGQ9Ik00OTUsNTIzMy41MTU2IEw1MDUsNTIzMy41MTU2IEM1MjAsNTIzMy41MTU2IDUyMCw1MTc4LjUzMTMgNTM1LDUxNzguNTMxMyBMNTQ1LDUxNzguNTMxMyAiIGZpbGw9Im5vbmUiIHN0eWxlPSJzdHJva2U6IzE4MTgxODtzdHJva2Utd2lkdGg6MS4wOyIvPjxyZWN0IGZpbGw9IiNGMUYxRjEiIGhlaWdodD0iMzQuOTg0NCIgcng9IjEyLjUiIHJ5PSIxMi41IiBzdHlsZT0ic3Ryb2tlOiMxODE4MTg7c3Ryb2tlLXdpZHRoOjEuNTsiIHdpZHRoPSIxMDQiIHg9IjU0NSIgeT0iNTIxNi4wMjM0Ii8+PHRleHQgZmlsbD0iIzAwMDAwMCIgZm9udC1mYW1pbHk9InNhbnMtc2VyaWYiIGZvbnQtc2l6ZT0iMTQiIGxlbmd0aEFkanVzdD0ic3BhY2luZyIgdGV4dExlbmd0aD0iODQiIHg9IjU1NSIgeT0iNTIzOS4yNTc4Ij5BdXRvZW5jb2RlcnM8L3RleHQ+PHBhdGggZD0iTTQ5NSw1MjMzLjUxNTYgTDUwNSw1MjMzLjUxNTYgQzUyMCw1MjMzLjUxNTYgNTIwLDUyMzMuNTE1NiA1MzUsNTIzMy41MTU2IEw1NDUsNTIzMy41MTU2ICIgZmlsbD0ibm9uZSIgc3R5bGU9InN0cm9rZTojMTgxODE4O3N0cm9rZS13aWR0aDoxLjA7Ii8+PHJlY3QgZmlsbD0iI0YxRjFGMSIgaGVpZ2h0PSIzNC45ODQ0IiByeD0iMTIuNSIgcnk9IjEyLjUiIHN0eWxlPSJzdHJva2U6IzE4MTgxODtzdHJva2Utd2lkdGg6MS41OyIgd2lkdGg9IjEzOSIgeD0iNTQ1IiB5PSI1MjcxLjAwNzgiLz48dGV4dCBmaWxsPSIjMDAwMDAwIiBmb250LWZhbWlseT0ic2Fucy1zZXJpZiIgZm9udC1zaXplPSIxNCIgbGVuZ3RoQWRqdXN0PSJzcGFjaW5nIiB0ZXh0TGVuZ3RoPSIxMTkiIHg9IjU1NSIgeT0iNTI5NC4yNDIyIj5UcmFuc2ZlciBMZWFybmluZzwvdGV4dD48cGF0aCBkPSJNNDk1LDUyMzMuNTE1NiBMNTA1LDUyMzMuNTE1NiBDNTIwLDUyMzMuNTE1NiA1MjAsNTI4OC41IDUzNSw1Mjg4LjUgTDU0NSw1Mjg4LjUgIiBmaWxsPSJub25lIiBzdHlsZT0ic3Ryb2tlOiMxODE4MTg7c3Ryb2tlLXdpZHRoOjEuMDsiLz48cmVjdCBmaWxsPSIjRjFGMUYxIiBoZWlnaHQ9IjM0Ljk4NDQiIHJ4PSIxMi41IiByeT0iMTIuNSIgc3R5bGU9InN0cm9rZTojMTgxODE4O3N0cm9rZS13aWR0aDoxLjU7IiB3aWR0aD0iMTc1IiB4PSI1NDUiIHk9IjUzMjUuOTkyMiIvPjx0ZXh0IGZpbGw9IiMwMDAwMDAiIGZvbnQtZmFtaWx5PSJzYW5zLXNlcmlmIiBmb250LXNpemU9IjE0IiBsZW5ndGhBZGp1c3Q9InNwYWNpbmciIHRleHRMZW5ndGg9IjE1NSIgeD0iNTU1IiB5PSI1MzQ5LjIyNjYiPlJlaW5mb3JjZW1lbnQgTGVhcm5pbmc8L3RleHQ+PHBhdGggZD0iTTQ5NSw1MjMzLjUxNTYgTDUwNSw1MjMzLjUxNTYgQzUyMCw1MjMzLjUxNTYgNTIwLDUzNDMuNDg0NCA1MzUsNTM0My40ODQ0IEw1NDUsNTM0My40ODQ0ICIgZmlsbD0ibm9uZSIgc3R5bGU9InN0cm9rZTojMTgxODE4O3N0cm9rZS13aWR0aDoxLjA7Ii8+PHJlY3QgZmlsbD0iI0YxRjFGMSIgaGVpZ2h0PSIzNC45ODQ0IiByeD0iMTIuNSIgcnk9IjEyLjUiIHN0eWxlPSJzdHJva2U6IzE4MTgxODtzdHJva2Utd2lkdGg6MS41OyIgd2lkdGg9Ijk3IiB4PSI1NDUiIHk9IjUzODAuOTc2NiIvPjx0ZXh0IGZpbGw9IiMwMDAwMDAiIGZvbnQtZmFtaWx5PSJzYW5zLXNlcmlmIiBmb250LXNpemU9IjE0IiBsZW5ndGhBZGp1c3Q9InNwYWNpbmciIHRleHRMZW5ndGg9Ijc3IiB4PSI1NTUiIHk9IjU0MDQuMjEwOSI+VGVuc29yQm9hcmQ8L3RleHQ+PHBhdGggZD0iTTQ5NSw1MjMzLjUxNTYgTDUwNSw1MjMzLjUxNTYgQzUyMCw1MjMzLjUxNTYgNTIwLDUzOTguNDY4OCA1MzUsNTM5OC40Njg4IEw1NDUsNTM5OC40Njg4ICIgZmlsbD0ibm9uZSIgc3R5bGU9InN0cm9rZTojMTgxODE4O3N0cm9rZS13aWR0aDoxLjA7Ii8+PHBhdGggZD0iTTM1NCw0OTU4LjU5MzggTDM2NCw0OTU4LjU5MzggQzM3OSw0OTU4LjU5MzggMzc5LDUyMzMuNTE1NiAzOTQsNTIzMy41MTU2IEw0MDQsNTIzMy41MTU2ICIgZmlsbD0ibm9uZSIgc3R5bGU9InN0cm9rZTojMTgxODE4O3N0cm9rZS13aWR0aDoxLjA7Ii8+PHJlY3QgZmlsbD0iI0YxRjFGMSIgaGVpZ2h0PSIzNC45ODQ0IiByeD0iMTIuNSIgcnk9IjEyLjUiIHN0eWxlPSJzdHJva2U6IzE4MTgxODtzdHJva2Utd2lkdGg6MS41OyIgd2lkdGg9IjY5IiB4PSI0MDQiIHk9IjU2MjguNDA2MyIvPjx0ZXh0IGZpbGw9IiMwMDAwMDAiIGZvbnQtZmFtaWx5PSJzYW5zLXNlcmlmIiBmb250LXNpemU9IjE0IiBsZW5ndGhBZGp1c3Q9InNwYWNpbmciIHRleHRMZW5ndGg9IjQ5IiB4PSI0MTQiIHk9IjU2NTEuNjQwNiI+UHlUb3JjaDwvdGV4dD48cmVjdCBmaWxsPSIjRjFGMUYxIiBoZWlnaHQ9IjM0Ljk4NDQiIHJ4PSIxMi41IiByeT0iMTIuNSIgc3R5bGU9InN0cm9rZTojMTgxODE4O3N0cm9rZS13aWR0aDoxLjU7IiB3aWR0aD0iMTQ3IiB4PSI1MjMiIHk9IjU0MzUuOTYwOSIvPjx0ZXh0IGZpbGw9IiMwMDAwMDAiIGZvbnQtZmFtaWx5PSJzYW5zLXNlcmlmIiBmb250LXNpemU9IjE0IiBsZW5ndGhBZGp1c3Q9InNwYWNpbmciIHRleHRMZW5ndGg9IjEyNyIgeD0iNTMzIiB5PSI1NDU5LjE5NTMiPlRlbnNvciBDb21wdXRhdGlvbjwvdGV4dD48cGF0aCBkPSJNNDczLDU2NDUuODk4NCBMNDgzLDU2NDUuODk4NCBDNDk4LDU2NDUuODk4NCA0OTgsNTQ1My40NTMxIDUxMyw1NDUzLjQ1MzEgTDUyMyw1NDUzLjQ1MzEgIiBmaWxsPSJub25lIiBzdHlsZT0ic3Ryb2tlOiMxODE4MTg7c3Ryb2tlLXdpZHRoOjEuMDsiLz48cmVjdCBmaWxsPSIjRjFGMUYxIiBoZWlnaHQ9IjM0Ljk4NDQiIHJ4PSIxMi41IiByeT0iMTIuNSIgc3R5bGU9InN0cm9rZTojMTgxODE4O3N0cm9rZS13aWR0aDoxLjU7IiB3aWR0aD0iMTI2IiB4PSI1MjMiIHk9IjU0OTAuOTQ1MyIvPjx0ZXh0IGZpbGw9IiMwMDAwMDAiIGZvbnQtZmFtaWx5PSJzYW5zLXNlcmlmIiBmb250LXNpemU9IjE0IiBsZW5ndGhBZGp1c3Q9InNwYWNpbmciIHRleHRMZW5ndGg9IjEwNiIgeD0iNTMzIiB5PSI1NTE0LjE3OTciPkF1dG9ncmFkIFN5c3RlbTwvdGV4dD48cGF0aCBkPSJNNDczLDU2NDUuODk4NCBMNDgzLDU2NDUuODk4NCBDNDk4LDU2NDUuODk4NCA0OTgsNTUwOC40Mzc1IDUxMyw1NTA4LjQzNzUgTDUyMyw1NTA4LjQzNzUgIiBmaWxsPSJub25lIiBzdHlsZT0ic3Ryb2tlOiMxODE4MTg7c3Ryb2tlLXdpZHRoOjEuMDsiLz48cmVjdCBmaWxsPSIjRjFGMUYxIiBoZWlnaHQ9IjM0Ljk4NDQiIHJ4PSIxMi41IiByeT0iMTIuNSIgc3R5bGU9InN0cm9rZTojMTgxODE4O3N0cm9rZS13aWR0aDoxLjU7IiB3aWR0aD0iMTI2IiB4PSI1MjMiIHk9IjU1NDUuOTI5NyIvPjx0ZXh0IGZpbGw9IiMwMDAwMDAiIGZvbnQtZmFtaWx5PSJzYW5zLXNlcmlmIiBmb250LXNpemU9IjE0IiBsZW5ndGhBZGp1c3Q9InNwYWNpbmciIHRleHRMZW5ndGg9IjEwNiIgeD0iNTMzIiB5PSI1NTY5LjE2NDEiPk5ldXJhbCBOZXR3b3JrczwvdGV4dD48cGF0aCBkPSJNNDczLDU2NDUuODk4NCBMNDgzLDU2NDUuODk4NCBDNDk4LDU2NDUuODk4NCA0OTgsNTU2My40MjE5IDUxMyw1NTYzLjQyMTkgTDUyMyw1NTYzLjQyMTkgIiBmaWxsPSJub25lIiBzdHlsZT0ic3Ryb2tlOiMxODE4MTg7c3Ryb2tlLXdpZHRoOjEuMDsiLz48cmVjdCBmaWxsPSIjRjFGMUYxIiBoZWlnaHQ9IjM0Ljk4NDQiIHJ4PSIxMi41IiByeT0iMTIuNSIgc3R5bGU9InN0cm9rZTojMTgxODE4O3N0cm9rZS13aWR0aDoxLjU7IiB3aWR0aD0iMjI0IiB4PSI1MjMiIHk9IjU2MDAuOTE0MSIvPjx0ZXh0IGZpbGw9IiMwMDAwMDAiIGZvbnQtZmFtaWx5PSJzYW5zLXNlcmlmIiBmb250LXNpemU9IjE0IiBsZW5ndGhBZGp1c3Q9InNwYWNpbmciIHRleHRMZW5ndGg9IjIwNCIgeD0iNTMzIiB5PSI1NjI0LjE0ODQiPkNvbnZvbHV0aW9uYWwgTmV1cmFsIE5ldHdvcmtzPC90ZXh0PjxwYXRoIGQ9Ik00NzMsNTY0NS44OTg0IEw0ODMsNTY0NS44OTg0IEM0OTgsNTY0NS44OTg0IDQ5OCw1NjE4LjQwNjMgNTEzLDU2MTguNDA2MyBMNTIzLDU2MTguNDA2MyAiIGZpbGw9Im5vbmUiIHN0eWxlPSJzdHJva2U6IzE4MTgxODtzdHJva2Utd2lkdGg6MS4wOyIvPjxyZWN0IGZpbGw9IiNGMUYxRjEiIGhlaWdodD0iMzQuOTg0NCIgcng9IjEyLjUiIHJ5PSIxMi41IiBzdHlsZT0ic3Ryb2tlOiMxODE4MTg7c3Ryb2tlLXdpZHRoOjEuNTsiIHdpZHRoPSIxOTYiIHg9IjUyMyIgeT0iNTY1NS44OTg0Ii8+PHRleHQgZmlsbD0iIzAwMDAwMCIgZm9udC1mYW1pbHk9InNhbnMtc2VyaWYiIGZvbnQtc2l6ZT0iMTQiIGxlbmd0aEFkanVzdD0ic3BhY2luZyIgdGV4dExlbmd0aD0iMTc2IiB4PSI1MzMiIHk9IjU2NzkuMTMyOCI+UmVjdXJyZW50IE5ldXJhbCBOZXR3b3JrczwvdGV4dD48cGF0aCBkPSJNNDczLDU2NDUuODk4NCBMNDgzLDU2NDUuODk4NCBDNDk4LDU2NDUuODk4NCA0OTgsNTY3My4zOTA2IDUxMyw1NjczLjM5MDYgTDUyMyw1NjczLjM5MDYgIiBmaWxsPSJub25lIiBzdHlsZT0ic3Ryb2tlOiMxODE4MTg7c3Ryb2tlLXdpZHRoOjEuMDsiLz48cmVjdCBmaWxsPSIjRjFGMUYxIiBoZWlnaHQ9IjM0Ljk4NDQiIHJ4PSIxMi41IiByeT0iMTIuNSIgc3R5bGU9InN0cm9rZTojMTgxODE4O3N0cm9rZS13aWR0aDoxLjU7IiB3aWR0aD0iMTA0IiB4PSI1MjMiIHk9IjU3MTAuODgyOCIvPjx0ZXh0IGZpbGw9IiMwMDAwMDAiIGZvbnQtZmFtaWx5PSJzYW5zLXNlcmlmIiBmb250LXNpemU9IjE0IiBsZW5ndGhBZGp1c3Q9InNwYWNpbmciIHRleHRMZW5ndGg9Ijg0IiB4PSI1MzMiIHk9IjU3MzQuMTE3MiI+QXV0b2VuY29kZXJzPC90ZXh0PjxwYXRoIGQ9Ik00NzMsNTY0NS44OTg0IEw0ODMsNTY0NS44OTg0IEM0OTgsNTY0NS44OTg0IDQ5OCw1NzI4LjM3NSA1MTMsNTcyOC4zNzUgTDUyMyw1NzI4LjM3NSAiIGZpbGw9Im5vbmUiIHN0eWxlPSJzdHJva2U6IzE4MTgxODtzdHJva2Utd2lkdGg6MS4wOyIvPjxyZWN0IGZpbGw9IiNGMUYxRjEiIGhlaWdodD0iMzQuOTg0NCIgcng9IjEyLjUiIHJ5PSIxMi41IiBzdHlsZT0ic3Ryb2tlOiMxODE4MTg7c3Ryb2tlLXdpZHRoOjEuNTsiIHdpZHRoPSIxMzkiIHg9IjUyMyIgeT0iNTc2NS44NjcyIi8+PHRleHQgZmlsbD0iIzAwMDAwMCIgZm9udC1mYW1pbHk9InNhbnMtc2VyaWYiIGZvbnQtc2l6ZT0iMTQiIGxlbmd0aEFkanVzdD0ic3BhY2luZyIgdGV4dExlbmd0aD0iMTE5IiB4PSI1MzMiIHk9IjU3ODkuMTAxNiI+VHJhbnNmZXIgTGVhcm5pbmc8L3RleHQ+PHBhdGggZD0iTTQ3Myw1NjQ1Ljg5ODQgTDQ4Myw1NjQ1Ljg5ODQgQzQ5OCw1NjQ1Ljg5ODQgNDk4LDU3ODMuMzU5NCA1MTMsNTc4My4zNTk0IEw1MjMsNTc4My4zNTk0ICIgZmlsbD0ibm9uZSIgc3R5bGU9InN0cm9rZTojMTgxODE4O3N0cm9rZS13aWR0aDoxLjA7Ii8+PHJlY3QgZmlsbD0iI0YxRjFGMSIgaGVpZ2h0PSIzNC45ODQ0IiByeD0iMTIuNSIgcnk9IjEyLjUiIHN0eWxlPSJzdHJva2U6IzE4MTgxODtzdHJva2Utd2lkdGg6MS41OyIgd2lkdGg9IjE3NSIgeD0iNTIzIiB5PSI1ODIwLjg1MTYiLz48dGV4dCBmaWxsPSIjMDAwMDAwIiBmb250LWZhbWlseT0ic2Fucy1zZXJpZiIgZm9udC1zaXplPSIxNCIgbGVuZ3RoQWRqdXN0PSJzcGFjaW5nIiB0ZXh0TGVuZ3RoPSIxNTUiIHg9IjUzMyIgeT0iNTg0NC4wODU5Ij5SZWluZm9yY2VtZW50IExlYXJuaW5nPC90ZXh0PjxwYXRoIGQ9Ik00NzMsNTY0NS44OTg0IEw0ODMsNTY0NS44OTg0IEM0OTgsNTY0NS44OTg0IDQ5OCw1ODM4LjM0MzggNTEzLDU4MzguMzQzOCBMNTIzLDU4MzguMzQzOCAiIGZpbGw9Im5vbmUiIHN0eWxlPSJzdHJva2U6IzE4MTgxODtzdHJva2Utd2lkdGg6MS4wOyIvPjxwYXRoIGQ9Ik0zNTQsNDk1OC41OTM4IEwzNjQsNDk1OC41OTM4IEMzNzksNDk1OC41OTM4IDM3OSw1NjQ1Ljg5ODQgMzk0LDU2NDUuODk4NCBMNDA0LDU2NDUuODk4NCAiIGZpbGw9Im5vbmUiIHN0eWxlPSJzdHJva2U6IzE4MTgxODtzdHJva2Utd2lkdGg6MS4wOyIvPjxyZWN0IGZpbGw9IiNGMUYxRjEiIGhlaWdodD0iMzQuOTg0NCIgcng9IjEyLjUiIHJ5PSIxMi41IiBzdHlsZT0ic3Ryb2tlOiMxODE4MTg7c3Ryb2tlLXdpZHRoOjEuNTsiIHdpZHRoPSI2MiIgeD0iNDA0IiB5PSI2MDEzLjI5NjkiLz48dGV4dCBmaWxsPSIjMDAwMDAwIiBmb250LWZhbWlseT0ic2Fucy1zZXJpZiIgZm9udC1zaXplPSIxNCIgbGVuZ3RoQWRqdXN0PSJzcGFjaW5nIiB0ZXh0TGVuZ3RoPSI0MiIgeD0iNDE0IiB5PSI2MDM2LjUzMTMiPk9wZW5DVjwvdGV4dD48cmVjdCBmaWxsPSIjRjFGMUYxIiBoZWlnaHQ9IjM0Ljk4NDQiIHJ4PSIxMi41IiByeT0iMTIuNSIgc3R5bGU9InN0cm9rZTojMTgxODE4O3N0cm9rZS13aWR0aDoxLjU7IiB3aWR0aD0iMTMzIiB4PSI1MTYiIHk9IjU4NzUuODM1OSIvPjx0ZXh0IGZpbGw9IiMwMDAwMDAiIGZvbnQtZmFtaWx5PSJzYW5zLXNlcmlmIiBmb250LXNpemU9IjE0IiBsZW5ndGhBZGp1c3Q9InNwYWNpbmciIHRleHRMZW5ndGg9IjExMyIgeD0iNTI2IiB5PSI1ODk5LjA3MDMiPkltYWdlIFByb2Nlc3Npbmc8L3RleHQ+PHBhdGggZD0iTTQ2Niw2MDMwLjc4OTEgTDQ3Niw2MDMwLjc4OTEgQzQ5MSw2MDMwLjc4OTEgNDkxLDU4OTMuMzI4MSA1MDYsNTg5My4zMjgxIEw1MTYsNTg5My4zMjgxICIgZmlsbD0ibm9uZSIgc3R5bGU9InN0cm9rZTojMTgxODE4O3N0cm9rZS13aWR0aDoxLjA7Ii8+PHJlY3QgZmlsbD0iI0YxRjFGMSIgaGVpZ2h0PSIzNC45ODQ0IiByeD0iMTIuNSIgcnk9IjEyLjUiIHN0eWxlPSJzdHJva2U6IzE4MTgxODtzdHJva2Utd2lkdGg6MS41OyIgd2lkdGg9IjEyNiIgeD0iNTE2IiB5PSI1OTMwLjgyMDMiLz48dGV4dCBmaWxsPSIjMDAwMDAwIiBmb250LWZhbWlseT0ic2Fucy1zZXJpZiIgZm9udC1zaXplPSIxNCIgbGVuZ3RoQWRqdXN0PSJzcGFjaW5nIiB0ZXh0TGVuZ3RoPSIxMDYiIHg9IjUyNiIgeT0iNTk1NC4wNTQ3Ij5Db21wdXRlciBWaXNpb248L3RleHQ+PHBhdGggZD0iTTQ2Niw2MDMwLjc4OTEgTDQ3Niw2MDMwLjc4OTEgQzQ5MSw2MDMwLjc4OTEgNDkxLDU5NDguMzEyNSA1MDYsNTk0OC4zMTI1IEw1MTYsNTk0OC4zMTI1ICIgZmlsbD0ibm9uZSIgc3R5bGU9InN0cm9rZTojMTgxODE4O3N0cm9rZS13aWR0aDoxLjA7Ii8+PHJlY3QgZmlsbD0iI0YxRjFGMSIgaGVpZ2h0PSIzNC45ODQ0IiByeD0iMTIuNSIgcnk9IjEyLjUiIHN0eWxlPSJzdHJva2U6IzE4MTgxODtzdHJva2Utd2lkdGg6MS41OyIgd2lkdGg9IjEzMiIgeD0iNTE2IiB5PSI1OTg1LjgwNDciLz48dGV4dCBmaWxsPSIjMDAwMDAwIiBmb250LWZhbWlseT0ic2Fucy1zZXJpZiIgZm9udC1zaXplPSIxNCIgbGVuZ3RoQWRqdXN0PSJzcGFjaW5nIiB0ZXh0TGVuZ3RoPSIxMTIiIHg9IjUyNiIgeT0iNjAwOS4wMzkxIj5PYmplY3QgRGV0ZWN0aW9uPC90ZXh0PjxwYXRoIGQ9Ik00NjYsNjAzMC43ODkxIEw0NzYsNjAzMC43ODkxIEM0OTEsNjAzMC43ODkxIDQ5MSw2MDAzLjI5NjkgNTA2LDYwMDMuMjk2OSBMNTE2LDYwMDMuMjk2OSAiIGZpbGw9Im5vbmUiIHN0eWxlPSJzdHJva2U6IzE4MTgxODtzdHJva2Utd2lkdGg6MS4wOyIvPjxyZWN0IGZpbGw9IiNGMUYxRjEiIGhlaWdodD0iMzQuOTg0NCIgcng9IjEyLjUiIHJ5PSIxMi41IiBzdHlsZT0ic3Ryb2tlOiMxODE4MTg7c3Ryb2tlLXdpZHRoOjEuNTsiIHdpZHRoPSIxMzIiIHg9IjUxNiIgeT0iNjA0MC43ODkxIi8+PHRleHQgZmlsbD0iIzAwMDAwMCIgZm9udC1mYW1pbHk9InNhbnMtc2VyaWYiIGZvbnQtc2l6ZT0iMTQiIGxlbmd0aEFkanVzdD0ic3BhY2luZyIgdGV4dExlbmd0aD0iMTEyIiB4PSI1MjYiIHk9IjYwNjQuMDIzNCI+RmFjZSBSZWNvZ25pdGlvbjwvdGV4dD48cGF0aCBkPSJNNDY2LDYwMzAuNzg5MSBMNDc2LDYwMzAuNzg5MSBDNDkxLDYwMzAuNzg5MSA0OTEsNjA1OC4yODEzIDUwNiw2MDU4LjI4MTMgTDUxNiw2MDU4LjI4MTMgIiBmaWxsPSJub25lIiBzdHlsZT0ic3Ryb2tlOiMxODE4MTg7c3Ryb2tlLXdpZHRoOjEuMDsiLz48cmVjdCBmaWxsPSIjRjFGMUYxIiBoZWlnaHQ9IjM0Ljk4NDQiIHJ4PSIxMi41IiByeT0iMTIuNSIgc3R5bGU9InN0cm9rZTojMTgxODE4O3N0cm9rZS13aWR0aDoxLjU7IiB3aWR0aD0iMTM5IiB4PSI1MTYiIHk9IjYwOTUuNzczNCIvPjx0ZXh0IGZpbGw9IiMwMDAwMDAiIGZvbnQtZmFtaWx5PSJzYW5zLXNlcmlmIiBmb250LXNpemU9IjE0IiBsZW5ndGhBZGp1c3Q9InNwYWNpbmciIHRleHRMZW5ndGg9IjExOSIgeD0iNTI2IiB5PSI2MTE5LjAwNzgiPkZlYXR1cmUgRGV0ZWN0aW9uPC90ZXh0PjxwYXRoIGQ9Ik00NjYsNjAzMC43ODkxIEw0NzYsNjAzMC43ODkxIEM0OTEsNjAzMC43ODkxIDQ5MSw2MTEzLjI2NTYgNTA2LDYxMTMuMjY1NiBMNTE2LDYxMTMuMjY1NiAiIGZpbGw9Im5vbmUiIHN0eWxlPSJzdHJva2U6IzE4MTgxODtzdHJva2Utd2lkdGg6MS4wOyIvPjxyZWN0IGZpbGw9IiNGMUYxRjEiIGhlaWdodD0iMzQuOTg0NCIgcng9IjEyLjUiIHJ5PSIxMi41IiBzdHlsZT0ic3Ryb2tlOiMxODE4MTg7c3Ryb2tlLXdpZHRoOjEuNTsiIHdpZHRoPSIxMDUiIHg9IjUxNiIgeT0iNjE1MC43NTc4Ii8+PHRleHQgZmlsbD0iIzAwMDAwMCIgZm9udC1mYW1pbHk9InNhbnMtc2VyaWYiIGZvbnQtc2l6ZT0iMTQiIGxlbmd0aEFkanVzdD0ic3BhY2luZyIgdGV4dExlbmd0aD0iODUiIHg9IjUyNiIgeT0iNjE3My45OTIyIj5PcHRpY2FsIEZsb3c8L3RleHQ+PHBhdGggZD0iTTQ2Niw2MDMwLjc4OTEgTDQ3Niw2MDMwLjc4OTEgQzQ5MSw2MDMwLjc4OTEgNDkxLDYxNjguMjUgNTA2LDYxNjguMjUgTDUxNiw2MTY4LjI1ICIgZmlsbD0ibm9uZSIgc3R5bGU9InN0cm9rZTojMTgxODE4O3N0cm9rZS13aWR0aDoxLjA7Ii8+PHBhdGggZD0iTTM1NCw0OTU4LjU5MzggTDM2NCw0OTU4LjU5MzggQzM3OSw0OTU4LjU5MzggMzc5LDYwMzAuNzg5MSAzOTQsNjAzMC43ODkxIEw0MDQsNjAzMC43ODkxICIgZmlsbD0ibm9uZSIgc3R5bGU9InN0cm9rZTojMTgxODE4O3N0cm9rZS13aWR0aDoxLjA7Ii8+PHJlY3QgZmlsbD0iI0YxRjFGMSIgaGVpZ2h0PSIzNC45ODQ0IiByeD0iMTIuNSIgcnk9IjEyLjUiIHN0eWxlPSJzdHJva2U6IzE4MTgxODtzdHJva2Utd2lkdGg6MS41OyIgd2lkdGg9IjE4OCIgeD0iNDA0IiB5PSI2MzcwLjY5NTMiLz48dGV4dCBmaWxsPSIjMDAwMDAwIiBmb250LWZhbWlseT0ic2Fucy1zZXJpZiIgZm9udC1zaXplPSIxNCIgbGVuZ3RoQWRqdXN0PSJzcGFjaW5nIiB0ZXh0TGVuZ3RoPSIxNjgiIHg9IjQxNCIgeT0iNjM5My45Mjk3Ij5OYXR1cmFsIExhbmd1YWdlIFRvb2xraXQ8L3RleHQ+PHJlY3QgZmlsbD0iI0YxRjFGMSIgaGVpZ2h0PSIzNC45ODQ0IiByeD0iMTIuNSIgcnk9IjEyLjUiIHN0eWxlPSJzdHJva2U6IzE4MTgxODtzdHJva2Utd2lkdGg6MS41OyIgd2lkdGg9IjEwNCIgeD0iNjQyIiB5PSI2MjA1Ljc0MjIiLz48dGV4dCBmaWxsPSIjMDAwMDAwIiBmb250LWZhbWlseT0ic2Fucy1zZXJpZiIgZm9udC1zaXplPSIxNCIgbGVuZ3RoQWRqdXN0PSJzcGFjaW5nIiB0ZXh0TGVuZ3RoPSI4NCIgeD0iNjUyIiB5PSI2MjI4Ljk3NjYiPlRva2VuaXphdGlvbjwvdGV4dD48cGF0aCBkPSJNNTkyLDYzODguMTg3NSBMNjAyLDYzODguMTg3NSBDNjE3LDYzODguMTg3NSA2MTcsNjIyMy4yMzQ0IDYzMiw2MjIzLjIzNDQgTDY0Miw2MjIzLjIzNDQgIiBmaWxsPSJub25lIiBzdHlsZT0ic3Ryb2tlOiMxODE4MTg7c3Ryb2tlLXdpZHRoOjEuMDsiLz48cmVjdCBmaWxsPSIjRjFGMUYxIiBoZWlnaHQ9IjM0Ljk4NDQiIHJ4PSIxMi41IiByeT0iMTIuNSIgc3R5bGU9InN0cm9rZTojMTgxODE4O3N0cm9rZS13aWR0aDoxLjU7IiB3aWR0aD0iMTc0IiB4PSI2NDIiIHk9IjYyNjAuNzI2NiIvPjx0ZXh0IGZpbGw9IiMwMDAwMDAiIGZvbnQtZmFtaWx5PSJzYW5zLXNlcmlmIiBmb250LXNpemU9IjE0IiBsZW5ndGhBZGp1c3Q9InNwYWNpbmciIHRleHRMZW5ndGg9IjE1NCIgeD0iNjUyIiB5PSI2MjgzLjk2MDkiPlBhcnQtb2YtU3BlZWNoIFRhZ2dpbmc8L3RleHQ+PHBhdGggZD0iTTU5Miw2Mzg4LjE4NzUgTDYwMiw2Mzg4LjE4NzUgQzYxNyw2Mzg4LjE4NzUgNjE3LDYyNzguMjE4OCA2MzIsNjI3OC4yMTg4IEw2NDIsNjI3OC4yMTg4ICIgZmlsbD0ibm9uZSIgc3R5bGU9InN0cm9rZTojMTgxODE4O3N0cm9rZS13aWR0aDoxLjA7Ii8+PHJlY3QgZmlsbD0iI0YxRjFGMSIgaGVpZ2h0PSIzNC45ODQ0IiByeD0iMTIuNSIgcnk9IjEyLjUiIHN0eWxlPSJzdHJva2U6IzE4MTgxODtzdHJva2Utd2lkdGg6MS41OyIgd2lkdGg9IjE4OSIgeD0iNjQyIiB5PSI2MzE1LjcxMDkiLz48dGV4dCBmaWxsPSIjMDAwMDAwIiBmb250LWZhbWlseT0ic2Fucy1zZXJpZiIgZm9udC1zaXplPSIxNCIgbGVuZ3RoQWRqdXN0PSJzcGFjaW5nIiB0ZXh0TGVuZ3RoPSIxNjkiIHg9IjY1MiIgeT0iNjMzOC45NDUzIj5OYW1lZCBFbnRpdHkgUmVjb2duaXRpb248L3RleHQ+PHBhdGggZD0iTTU5Miw2Mzg4LjE4NzUgTDYwMiw2Mzg4LjE4NzUgQzYxNyw2Mzg4LjE4NzUgNjE3LDYzMzMuMjAzMSA2MzIsNjMzMy4yMDMxIEw2NDIsNjMzMy4yMDMxICIgZmlsbD0ibm9uZSIgc3R5bGU9InN0cm9rZTojMTgxODE4O3N0cm9rZS13aWR0aDoxLjA7Ii8+PHJlY3QgZmlsbD0iI0YxRjFGMSIgaGVpZ2h0PSIzNC45ODQ0IiByeD0iMTIuNSIgcnk9IjEyLjUiIHN0eWxlPSJzdHJva2U6IzE4MTgxODtzdHJva2Utd2lkdGg6MS41OyIgd2lkdGg9IjE0NyIgeD0iNjQyIiB5PSI2MzcwLjY5NTMiLz48dGV4dCBmaWxsPSIjMDAwMDAwIiBmb250LWZhbWlseT0ic2Fucy1zZXJpZiIgZm9udC1zaXplPSIxNCIgbGVuZ3RoQWRqdXN0PSJzcGFjaW5nIiB0ZXh0TGVuZ3RoPSIxMjciIHg9IjY1MiIgeT0iNjM5My45Mjk3Ij5TZW50aW1lbnQgQW5hbHlzaXM8L3RleHQ+PHBhdGggZD0iTTU5Miw2Mzg4LjE4NzUgTDYwMiw2Mzg4LjE4NzUgQzYxNyw2Mzg4LjE4NzUgNjE3LDYzODguMTg3NSA2MzIsNjM4OC4xODc1IEw2NDIsNjM4OC4xODc1ICIgZmlsbD0ibm9uZSIgc3R5bGU9InN0cm9rZTojMTgxODE4O3N0cm9rZS13aWR0aDoxLjA7Ii8+PHJlY3QgZmlsbD0iI0YxRjFGMSIgaGVpZ2h0PSIzNC45ODQ0IiByeD0iMTIuNSIgcnk9IjEyLjUiIHN0eWxlPSJzdHJva2U6IzE4MTgxODtzdHJva2Utd2lkdGg6MS41OyIgd2lkdGg9IjY5IiB4PSI2NDIiIHk9IjY0MjUuNjc5NyIvPjx0ZXh0IGZpbGw9IiMwMDAwMDAiIGZvbnQtZmFtaWx5PSJzYW5zLXNlcmlmIiBmb250LXNpemU9IjE0IiBsZW5ndGhBZGp1c3Q9InNwYWNpbmciIHRleHRMZW5ndGg9IjQ5IiB4PSI2NTIiIHk9IjY0NDguOTE0MSI+V29yZE5ldDwvdGV4dD48cGF0aCBkPSJNNTkyLDYzODguMTg3NSBMNjAyLDYzODguMTg3NSBDNjE3LDYzODguMTg3NSA2MTcsNjQ0My4xNzE5IDYzMiw2NDQzLjE3MTkgTDY0Miw2NDQzLjE3MTkgIiBmaWxsPSJub25lIiBzdHlsZT0ic3Ryb2tlOiMxODE4MTg7c3Ryb2tlLXdpZHRoOjEuMDsiLz48cmVjdCBmaWxsPSIjRjFGMUYxIiBoZWlnaHQ9IjM0Ljk4NDQiIHJ4PSIxMi41IiByeT0iMTIuNSIgc3R5bGU9InN0cm9rZTojMTgxODE4O3N0cm9rZS13aWR0aDoxLjU7IiB3aWR0aD0iNzgiIHg9IjY0MiIgeT0iNjQ4MC42NjQxIi8+PHRleHQgZmlsbD0iIzAwMDAwMCIgZm9udC1mYW1pbHk9InNhbnMtc2VyaWYiIGZvbnQtc2l6ZT0iMTQiIGxlbmd0aEFkanVzdD0ic3BhY2luZyIgdGV4dExlbmd0aD0iNTgiIHg9IjY1MiIgeT0iNjUwMy44OTg0Ij5TdGVtbWluZzwvdGV4dD48cGF0aCBkPSJNNTkyLDYzODguMTg3NSBMNjAyLDYzODguMTg3NSBDNjE3LDYzODguMTg3NSA2MTcsNjQ5OC4xNTYzIDYzMiw2NDk4LjE1NjMgTDY0Miw2NDk4LjE1NjMgIiBmaWxsPSJub25lIiBzdHlsZT0ic3Ryb2tlOiMxODE4MTg7c3Ryb2tlLXdpZHRoOjEuMDsiLz48cmVjdCBmaWxsPSIjRjFGMUYxIiBoZWlnaHQ9IjM0Ljk4NDQiIHJ4PSIxMi41IiByeT0iMTIuNSIgc3R5bGU9InN0cm9rZTojMTgxODE4O3N0cm9rZS13aWR0aDoxLjU7IiB3aWR0aD0iMTEzIiB4PSI2NDIiIHk9IjY1MzUuNjQ4NCIvPjx0ZXh0IGZpbGw9IiMwMDAwMDAiIGZvbnQtZmFtaWx5PSJzYW5zLXNlcmlmIiBmb250LXNpemU9IjE0IiBsZW5ndGhBZGp1c3Q9InNwYWNpbmciIHRleHRMZW5ndGg9IjkzIiB4PSI2NTIiIHk9IjY1NTguODgyOCI+TGVtbWF0aXphdGlvbjwvdGV4dD48cGF0aCBkPSJNNTkyLDYzODguMTg3NSBMNjAyLDYzODguMTg3NSBDNjE3LDYzODguMTg3NSA2MTcsNjU1My4xNDA2IDYzMiw2NTUzLjE0MDYgTDY0Miw2NTUzLjE0MDYgIiBmaWxsPSJub25lIiBzdHlsZT0ic3Ryb2tlOiMxODE4MTg7c3Ryb2tlLXdpZHRoOjEuMDsiLz48cGF0aCBkPSJNMzU0LDQ5NTguNTkzOCBMMzY0LDQ5NTguNTkzOCBDMzc5LDQ5NTguNTkzOCAzNzksNjM4OC4xODc1IDM5NCw2Mzg4LjE4NzUgTDQwNCw2Mzg4LjE4NzUgIiBmaWxsPSJub25lIiBzdHlsZT0ic3Ryb2tlOiMxODE4MTg7c3Ryb2tlLXdpZHRoOjEuMDsiLz48cGF0aCBkPSJNMjIxLDM5ODIuNjIxMSBMMjMxLDM5ODIuNjIxMSBDMjQ2LDM5ODIuNjIxMSAyNDYsNDk1OC41OTM4IDI2MSw0OTU4LjU5MzggTDI3MSw0OTU4LjU5MzggIiBmaWxsPSJub25lIiBzdHlsZT0ic3Ryb2tlOiMxODE4MTg7c3Ryb2tlLXdpZHRoOjEuMDsiLz48cmVjdCBmaWxsPSIjRjFGMUYxIiBoZWlnaHQ9IjM0Ljk4NDQiIHJ4PSIxMi41IiByeT0iMTIuNSIgc3R5bGU9InN0cm9rZTojMTgxODE4O3N0cm9rZS13aWR0aDoxLjU7IiB3aWR0aD0iOTIiIHg9IjI3MSIgeT0iNzI1MC40NDUzIi8+PHRleHQgZmlsbD0iIzAwMDAwMCIgZm9udC1mYW1pbHk9InNhbnMtc2VyaWYiIGZvbnQtc2l6ZT0iMTQiIGxlbmd0aEFkanVzdD0ic3BhY2luZyIgdGV4dExlbmd0aD0iNzIiIHg9IjI4MSIgeT0iNzI3My42Nzk3Ij5GcmFtZXdvcmtzPC90ZXh0PjxyZWN0IGZpbGw9IiNGMUYxRjEiIGhlaWdodD0iMzQuOTg0NCIgcng9IjEyLjUiIHJ5PSIxMi41IiBzdHlsZT0ic3Ryb2tlOiMxODE4MTg7c3Ryb2tlLXdpZHRoOjEuNTsiIHdpZHRoPSI1NSIgeD0iNDEzIiB5PSI2NzI4LjA5MzgiLz48dGV4dCBmaWxsPSIjMDAwMDAwIiBmb250LWZhbWlseT0ic2Fucy1zZXJpZiIgZm9udC1zaXplPSIxNCIgbGVuZ3RoQWRqdXN0PSJzcGFjaW5nIiB0ZXh0TGVuZ3RoPSIzNSIgeD0iNDIzIiB5PSI2NzUxLjMyODEiPkZsYXNrPC90ZXh0PjxyZWN0IGZpbGw9IiNGMUYxRjEiIGhlaWdodD0iMzQuOTg0NCIgcng9IjEyLjUiIHJ5PSIxMi41IiBzdHlsZT0ic3Ryb2tlOiMxODE4MTg7c3Ryb2tlLXdpZHRoOjEuNTsiIHdpZHRoPSI2OSIgeD0iNTE4IiB5PSI2NTkwLjYzMjgiLz48dGV4dCBmaWxsPSIjMDAwMDAwIiBmb250LWZhbWlseT0ic2Fucy1zZXJpZiIgZm9udC1zaXplPSIxNCIgbGVuZ3RoQWRqdXN0PSJzcGFjaW5nIiB0ZXh0TGVuZ3RoPSI0OSIgeD0iNTI4IiB5PSI2NjEzLjg2NzIiPlJvdXRpbmc8L3RleHQ+PHBhdGggZD0iTTQ2OCw2NzQ1LjU4NTkgTDQ3OCw2NzQ1LjU4NTkgQzQ5Myw2NzQ1LjU4NTkgNDkzLDY2MDguMTI1IDUwOCw2NjA4LjEyNSBMNTE4LDY2MDguMTI1ICIgZmlsbD0ibm9uZSIgc3R5bGU9InN0cm9rZTojMTgxODE4O3N0cm9rZS13aWR0aDoxLjA7Ii8+PHJlY3QgZmlsbD0iI0YxRjFGMSIgaGVpZ2h0PSIzNC45ODQ0IiByeD0iMTIuNSIgcnk9IjEyLjUiIHN0eWxlPSJzdHJva2U6IzE4MTgxODtzdHJva2Utd2lkdGg6MS41OyIgd2lkdGg9IjEwNCIgeD0iNTE4IiB5PSI2NjQ1LjYxNzIiLz48dGV4dCBmaWxsPSIjMDAwMDAwIiBmb250LWZhbWlseT0ic2Fucy1zZXJpZiIgZm9udC1zaXplPSIxNCIgbGVuZ3RoQWRqdXN0PSJzcGFjaW5nIiB0ZXh0TGVuZ3RoPSI4NCIgeD0iNTI4IiB5PSI2NjY4Ljg1MTYiPkhUVFAgTWV0aG9kczwvdGV4dD48cGF0aCBkPSJNNDY4LDY3NDUuNTg1OSBMNDc4LDY3NDUuNTg1OSBDNDkzLDY3NDUuNTg1OSA0OTMsNjY2My4xMDk0IDUwOCw2NjYzLjEwOTQgTDUxOCw2NjYzLjEwOTQgIiBmaWxsPSJub25lIiBzdHlsZT0ic3Ryb2tlOiMxODE4MTg7c3Ryb2tlLXdpZHRoOjEuMDsiLz48cmVjdCBmaWxsPSIjRjFGMUYxIiBoZWlnaHQ9IjM0Ljk4NDQiIHJ4PSIxMi41IiByeT0iMTIuNSIgc3R5bGU9InN0cm9rZTojMTgxODE4O3N0cm9rZS13aWR0aDoxLjU7IiB3aWR0aD0iODQiIHg9IjUxOCIgeT0iNjcwMC42MDE2Ii8+PHRleHQgZmlsbD0iIzAwMDAwMCIgZm9udC1mYW1pbHk9InNhbnMtc2VyaWYiIGZvbnQtc2l6ZT0iMTQiIGxlbmd0aEFkanVzdD0ic3BhY2luZyIgdGV4dExlbmd0aD0iNjQiIHg9IjUyOCIgeT0iNjcyMy44MzU5Ij5UZW1wbGF0ZXM8L3RleHQ+PHBhdGggZD0iTTQ2OCw2NzQ1LjU4NTkgTDQ3OCw2NzQ1LjU4NTkgQzQ5Myw2NzQ1LjU4NTkgNDkzLDY3MTguMDkzOCA1MDgsNjcxOC4wOTM4IEw1MTgsNjcxOC4wOTM4ICIgZmlsbD0ibm9uZSIgc3R5bGU9InN0cm9rZTojMTgxODE4O3N0cm9rZS13aWR0aDoxLjA7Ii8+PHJlY3QgZmlsbD0iI0YxRjFGMSIgaGVpZ2h0PSIzNC45ODQ0IiByeD0iMTIuNSIgcnk9IjEyLjUiIHN0eWxlPSJzdHJva2U6IzE4MTgxODtzdHJva2Utd2lkdGg6MS41OyIgd2lkdGg9Ijc2IiB4PSI1MTgiIHk9IjY3NTUuNTg1OSIvPjx0ZXh0IGZpbGw9IiMwMDAwMDAiIGZvbnQtZmFtaWx5PSJzYW5zLXNlcmlmIiBmb250LXNpemU9IjE0IiBsZW5ndGhBZGp1c3Q9InNwYWNpbmciIHRleHRMZW5ndGg9IjU2IiB4PSI1MjgiIHk9IjY3NzguODIwMyI+U2Vzc2lvbnM8L3RleHQ+PHBhdGggZD0iTTQ2OCw2NzQ1LjU4NTkgTDQ3OCw2NzQ1LjU4NTkgQzQ5Myw2NzQ1LjU4NTkgNDkzLDY3NzMuMDc4MSA1MDgsNjc3My4wNzgxIEw1MTgsNjc3My4wNzgxICIgZmlsbD0ibm9uZSIgc3R5bGU9InN0cm9rZTojMTgxODE4O3N0cm9rZS13aWR0aDoxLjA7Ii8+PHJlY3QgZmlsbD0iI0YxRjFGMSIgaGVpZ2h0PSIzNC45ODQ0IiByeD0iMTIuNSIgcnk9IjEyLjUiIHN0eWxlPSJzdHJva2U6IzE4MTgxODtzdHJva2Utd2lkdGg6MS41OyIgd2lkdGg9IjY5IiB4PSI1MTgiIHk9IjY4MTAuNTcwMyIvPjx0ZXh0IGZpbGw9IiMwMDAwMDAiIGZvbnQtZmFtaWx5PSJzYW5zLXNlcmlmIiBmb250LXNpemU9IjE0IiBsZW5ndGhBZGp1c3Q9InNwYWNpbmciIHRleHRMZW5ndGg9IjQ5IiB4PSI1MjgiIHk9IjY4MzMuODA0NyI+Q29va2llczwvdGV4dD48cGF0aCBkPSJNNDY4LDY3NDUuNTg1OSBMNDc4LDY3NDUuNTg1OSBDNDkzLDY3NDUuNTg1OSA0OTMsNjgyOC4wNjI1IDUwOCw2ODI4LjA2MjUgTDUxOCw2ODI4LjA2MjUgIiBmaWxsPSJub25lIiBzdHlsZT0ic3Ryb2tlOiMxODE4MTg7c3Ryb2tlLXdpZHRoOjEuMDsiLz48cmVjdCBmaWxsPSIjRjFGMUYxIiBoZWlnaHQ9IjM0Ljk4NDQiIHJ4PSIxMi41IiByeT0iMTIuNSIgc3R5bGU9InN0cm9rZTojMTgxODE4O3N0cm9rZS13aWR0aDoxLjU7IiB3aWR0aD0iOTAiIHg9IjUxOCIgeT0iNjg2NS41NTQ3Ii8+PHRleHQgZmlsbD0iIzAwMDAwMCIgZm9udC1mYW1pbHk9InNhbnMtc2VyaWYiIGZvbnQtc2l6ZT0iMTQiIGxlbmd0aEFkanVzdD0ic3BhY2luZyIgdGV4dExlbmd0aD0iNzAiIHg9IjUyOCIgeT0iNjg4OC43ODkxIj5CbHVlcHJpbnRzPC90ZXh0PjxwYXRoIGQ9Ik00NjgsNjc0NS41ODU5IEw0NzgsNjc0NS41ODU5IEM0OTMsNjc0NS41ODU5IDQ5Myw2ODgzLjA0NjkgNTA4LDY4ODMuMDQ2OSBMNTE4LDY4ODMuMDQ2OSAiIGZpbGw9Im5vbmUiIHN0eWxlPSJzdHJva2U6IzE4MTgxODtzdHJva2Utd2lkdGg6MS4wOyIvPjxwYXRoIGQ9Ik0zNjMsNzI2Ny45Mzc1IEwzNzMsNzI2Ny45Mzc1IEMzODgsNzI2Ny45Mzc1IDM4OCw2NzQ1LjU4NTkgNDAzLDY3NDUuNTg1OSBMNDEzLDY3NDUuNTg1OSAiIGZpbGw9Im5vbmUiIHN0eWxlPSJzdHJva2U6IzE4MTgxODtzdHJva2Utd2lkdGg6MS4wOyIvPjxyZWN0IGZpbGw9IiNGMUYxRjEiIGhlaWdodD0iMzQuOTg0NCIgcng9IjEyLjUiIHJ5PSIxMi41IiBzdHlsZT0ic3Ryb2tlOiMxODE4MTg7c3Ryb2tlLXdpZHRoOjEuNTsiIHdpZHRoPSI2MiIgeD0iNDEzIiB5PSI3MTEyLjk4NDQiLz48dGV4dCBmaWxsPSIjMDAwMDAwIiBmb250LWZhbWlseT0ic2Fucy1zZXJpZiIgZm9udC1zaXplPSIxNCIgbGVuZ3RoQWRqdXN0PSJzcGFjaW5nIiB0ZXh0TGVuZ3RoPSI0MiIgeD0iNDIzIiB5PSI3MTM2LjIxODgiPkRqYW5nbzwvdGV4dD48cmVjdCBmaWxsPSIjRjFGMUYxIiBoZWlnaHQ9IjM0Ljk4NDQiIHJ4PSIxMi41IiByeT0iMTIuNSIgc3R5bGU9InN0cm9rZTojMTgxODE4O3N0cm9rZS13aWR0aDoxLjU7IiB3aWR0aD0iMTI2IiB4PSI1MjUiIHk9IjY5MjAuNTM5MSIvPjx0ZXh0IGZpbGw9IiMwMDAwMDAiIGZvbnQtZmFtaWx5PSJzYW5zLXNlcmlmIiBmb250LXNpemU9IjE0IiBsZW5ndGhBZGp1c3Q9InNwYWNpbmciIHRleHRMZW5ndGg9IjEwNiIgeD0iNTM1IiB5PSI2OTQzLjc3MzQiPkFkbWluIEludGVyZmFjZTwvdGV4dD48cGF0aCBkPSJNNDc1LDcxMzAuNDc2NiBMNDg1LDcxMzAuNDc2NiBDNTAwLDcxMzAuNDc2NiA1MDAsNjkzOC4wMzEzIDUxNSw2OTM4LjAzMTMgTDUyNSw2OTM4LjAzMTMgIiBmaWxsPSJub25lIiBzdHlsZT0ic3Ryb2tlOiMxODE4MTg7c3Ryb2tlLXdpZHRoOjEuMDsiLz48cmVjdCBmaWxsPSIjRjFGMUYxIiBoZWlnaHQ9IjM0Ljk4NDQiIHJ4PSIxMi41IiByeT0iMTIuNSIgc3R5bGU9InN0cm9rZTojMTgxODE4O3N0cm9rZS13aWR0aDoxLjU7IiB3aWR0aD0iNDEiIHg9IjUyNSIgeT0iNjk3NS41MjM0Ii8+PHRleHQgZmlsbD0iIzAwMDAwMCIgZm9udC1mYW1pbHk9InNhbnMtc2VyaWYiIGZvbnQtc2l6ZT0iMTQiIGxlbmd0aEFkanVzdD0ic3BhY2luZyIgdGV4dExlbmd0aD0iMjEiIHg9IjUzNSIgeT0iNjk5OC43NTc4Ij5PUk08L3RleHQ+PHBhdGggZD0iTTQ3NSw3MTMwLjQ3NjYgTDQ4NSw3MTMwLjQ3NjYgQzUwMCw3MTMwLjQ3NjYgNTAwLDY5OTMuMDE1NiA1MTUsNjk5My4wMTU2IEw1MjUsNjk5My4wMTU2ICIgZmlsbD0ibm9uZSIgc3R5bGU9InN0cm9rZTojMTgxODE4O3N0cm9rZS13aWR0aDoxLjA7Ii8+PHJlY3QgZmlsbD0iI0YxRjFGMSIgaGVpZ2h0PSIzNC45ODQ0IiByeD0iMTIuNSIgcnk9IjEyLjUiIHN0eWxlPSJzdHJva2U6IzE4MTgxODtzdHJva2Utd2lkdGg6MS41OyIgd2lkdGg9IjY5IiB4PSI1MjUiIHk9IjcwMzAuNTA3OCIvPjx0ZXh0IGZpbGw9IiMwMDAwMDAiIGZvbnQtZmFtaWx5PSJzYW5zLXNlcmlmIiBmb250LXNpemU9IjE0IiBsZW5ndGhBZGp1c3Q9InNwYWNpbmciIHRleHRMZW5ndGg9IjQ5IiB4PSI1MzUiIHk9IjcwNTMuNzQyMiI+Um91dGluZzwvdGV4dD48cGF0aCBkPSJNNDc1LDcxMzAuNDc2NiBMNDg1LDcxMzAuNDc2NiBDNTAwLDcxMzAuNDc2NiA1MDAsNzA0OCA1MTUsNzA0OCBMNTI1LDcwNDggIiBmaWxsPSJub25lIiBzdHlsZT0ic3Ryb2tlOiMxODE4MTg7c3Ryb2tlLXdpZHRoOjEuMDsiLz48cmVjdCBmaWxsPSIjRjFGMUYxIiBoZWlnaHQ9IjM0Ljk4NDQiIHJ4PSIxMi41IiByeT0iMTIuNSIgc3R5bGU9InN0cm9rZTojMTgxODE4O3N0cm9rZS13aWR0aDoxLjU7IiB3aWR0aD0iNTYiIHg9IjUyNSIgeT0iNzA4NS40OTIyIi8+PHRleHQgZmlsbD0iIzAwMDAwMCIgZm9udC1mYW1pbHk9InNhbnMtc2VyaWYiIGZvbnQtc2l6ZT0iMTQiIGxlbmd0aEFkanVzdD0ic3BhY2luZyIgdGV4dExlbmd0aD0iMzYiIHg9IjUzNSIgeT0iNzEwOC43MjY2Ij5Gb3JtczwvdGV4dD48cGF0aCBkPSJNNDc1LDcxMzAuNDc2NiBMNDg1LDcxMzAuNDc2NiBDNTAwLDcxMzAuNDc2NiA1MDAsNzEwMi45ODQ0IDUxNSw3MTAyLjk4NDQgTDUyNSw3MTAyLjk4NDQgIiBmaWxsPSJub25lIiBzdHlsZT0ic3Ryb2tlOiMxODE4MTg7c3Ryb2tlLXdpZHRoOjEuMDsiLz48cmVjdCBmaWxsPSIjRjFGMUYxIiBoZWlnaHQ9IjM0Ljk4NDQiIHJ4PSIxMi41IiByeT0iMTIuNSIgc3R5bGU9InN0cm9rZTojMTgxODE4O3N0cm9rZS13aWR0aDoxLjU7IiB3aWR0aD0iODQiIHg9IjUyNSIgeT0iNzE0MC40NzY2Ii8+PHRleHQgZmlsbD0iIzAwMDAwMCIgZm9udC1mYW1pbHk9InNhbnMtc2VyaWYiIGZvbnQtc2l6ZT0iMTQiIGxlbmd0aEFkanVzdD0ic3BhY2luZyIgdGV4dExlbmd0aD0iNjQiIHg9IjUzNSIgeT0iNzE2My43MTA5Ij5UZW1wbGF0ZXM8L3RleHQ+PHBhdGggZD0iTTQ3NSw3MTMwLjQ3NjYgTDQ4NSw3MTMwLjQ3NjYgQzUwMCw3MTMwLjQ3NjYgNTAwLDcxNTcuOTY4OCA1MTUsNzE1Ny45Njg4IEw1MjUsNzE1Ny45Njg4ICIgZmlsbD0ibm9uZSIgc3R5bGU9InN0cm9rZTojMTgxODE4O3N0cm9rZS13aWR0aDoxLjA7Ii8+PHJlY3QgZmlsbD0iI0YxRjFGMSIgaGVpZ2h0PSIzNC45ODQ0IiByeD0iMTIuNSIgcnk9IjEyLjUiIHN0eWxlPSJzdHJva2U6IzE4MTgxODtzdHJva2Utd2lkdGg6MS41OyIgd2lkdGg9Ijc2IiB4PSI1MjUiIHk9IjcxOTUuNDYwOSIvPjx0ZXh0IGZpbGw9IiMwMDAwMDAiIGZvbnQtZmFtaWx5PSJzYW5zLXNlcmlmIiBmb250LXNpemU9IjE0IiBsZW5ndGhBZGp1c3Q9InNwYWNpbmciIHRleHRMZW5ndGg9IjU2IiB4PSI1MzUiIHk9IjcyMTguNjk1MyI+U2Vzc2lvbnM8L3RleHQ+PHBhdGggZD0iTTQ3NSw3MTMwLjQ3NjYgTDQ4NSw3MTMwLjQ3NjYgQzUwMCw3MTMwLjQ3NjYgNTAwLDcyMTIuOTUzMSA1MTUsNzIxMi45NTMxIEw1MjUsNzIxMi45NTMxICIgZmlsbD0ibm9uZSIgc3R5bGU9InN0cm9rZTojMTgxODE4O3N0cm9rZS13aWR0aDoxLjA7Ii8+PHJlY3QgZmlsbD0iI0YxRjFGMSIgaGVpZ2h0PSIzNC45ODQ0IiByeD0iMTIuNSIgcnk9IjEyLjUiIHN0eWxlPSJzdHJva2U6IzE4MTgxODtzdHJva2Utd2lkdGg6MS41OyIgd2lkdGg9IjY5IiB4PSI1MjUiIHk9IjcyNTAuNDQ1MyIvPjx0ZXh0IGZpbGw9IiMwMDAwMDAiIGZvbnQtZmFtaWx5PSJzYW5zLXNlcmlmIiBmb250LXNpemU9IjE0IiBsZW5ndGhBZGp1c3Q9InNwYWNpbmciIHRleHRMZW5ndGg9IjQ5IiB4PSI1MzUiIHk9IjcyNzMuNjc5NyI+Q2FjaGluZzwvdGV4dD48cGF0aCBkPSJNNDc1LDcxMzAuNDc2NiBMNDg1LDcxMzAuNDc2NiBDNTAwLDcxMzAuNDc2NiA1MDAsNzI2Ny45Mzc1IDUxNSw3MjY3LjkzNzUgTDUyNSw3MjY3LjkzNzUgIiBmaWxsPSJub25lIiBzdHlsZT0ic3Ryb2tlOiMxODE4MTg7c3Ryb2tlLXdpZHRoOjEuMDsiLz48cmVjdCBmaWxsPSIjRjFGMUYxIiBoZWlnaHQ9IjM0Ljk4NDQiIHJ4PSIxMi41IiByeT0iMTIuNSIgc3R5bGU9InN0cm9rZTojMTgxODE4O3N0cm9rZS13aWR0aDoxLjU7IiB3aWR0aD0iNzYiIHg9IjUyNSIgeT0iNzMwNS40Mjk3Ii8+PHRleHQgZmlsbD0iIzAwMDAwMCIgZm9udC1mYW1pbHk9InNhbnMtc2VyaWYiIGZvbnQtc2l6ZT0iMTQiIGxlbmd0aEFkanVzdD0ic3BhY2luZyIgdGV4dExlbmd0aD0iNTYiIHg9IjUzNSIgeT0iNzMyOC42NjQxIj5TZWN1cml0eTwvdGV4dD48cGF0aCBkPSJNNDc1LDcxMzAuNDc2NiBMNDg1LDcxMzAuNDc2NiBDNTAwLDcxMzAuNDc2NiA1MDAsNzMyMi45MjE5IDUxNSw3MzIyLjkyMTkgTDUyNSw3MzIyLjkyMTkgIiBmaWxsPSJub25lIiBzdHlsZT0ic3Ryb2tlOiMxODE4MTg7c3Ryb2tlLXdpZHRoOjEuMDsiLz48cGF0aCBkPSJNMzYzLDcyNjcuOTM3NSBMMzczLDcyNjcuOTM3NSBDMzg4LDcyNjcuOTM3NSAzODgsNzEzMC40NzY2IDQwMyw3MTMwLjQ3NjYgTDQxMyw3MTMwLjQ3NjYgIiBmaWxsPSJub25lIiBzdHlsZT0ic3Ryb2tlOiMxODE4MTg7c3Ryb2tlLXdpZHRoOjEuMDsiLz48cmVjdCBmaWxsPSIjRjFGMUYxIiBoZWlnaHQ9IjM0Ljk4NDQiIHJ4PSIxMi41IiByeT0iMTIuNSIgc3R5bGU9InN0cm9rZTojMTgxODE4O3N0cm9rZS13aWR0aDoxLjU7IiB3aWR0aD0iNzAiIHg9IjQxMyIgeT0iNzQ3MC4zODI4Ii8+PHRleHQgZmlsbD0iIzAwMDAwMCIgZm9udC1mYW1pbHk9InNhbnMtc2VyaWYiIGZvbnQtc2l6ZT0iMTQiIGxlbmd0aEFkanVzdD0ic3BhY2luZyIgdGV4dExlbmd0aD0iNTAiIHg9IjQyMyIgeT0iNzQ5My42MTcyIj5QeXJhbWlkPC90ZXh0PjxyZWN0IGZpbGw9IiNGMUYxRjEiIGhlaWdodD0iMzQuOTg0NCIgcng9IjEyLjUiIHJ5PSIxMi41IiBzdHlsZT0ic3Ryb2tlOiMxODE4MTg7c3Ryb2tlLXdpZHRoOjEuNTsiIHdpZHRoPSI2OSIgeD0iNTMzIiB5PSI3MzYwLjQxNDEiLz48dGV4dCBmaWxsPSIjMDAwMDAwIiBmb250LWZhbWlseT0ic2Fucy1zZXJpZiIgZm9udC1zaXplPSIxNCIgbGVuZ3RoQWRqdXN0PSJzcGFjaW5nIiB0ZXh0TGVuZ3RoPSI0OSIgeD0iNTQzIiB5PSI3MzgzLjY0ODQiPlJvdXRpbmc8L3RleHQ+PHBhdGggZD0iTTQ4Myw3NDg3Ljg3NSBMNDkzLDc0ODcuODc1IEM1MDgsNzQ4Ny44NzUgNTA4LDczNzcuOTA2MyA1MjMsNzM3Ny45MDYzIEw1MzMsNzM3Ny45MDYzICIgZmlsbD0ibm9uZSIgc3R5bGU9InN0cm9rZTojMTgxODE4O3N0cm9rZS13aWR0aDoxLjA7Ii8+PHJlY3QgZmlsbD0iI0YxRjFGMSIgaGVpZ2h0PSIzNC45ODQ0IiByeD0iMTIuNSIgcnk9IjEyLjUiIHN0eWxlPSJzdHJva2U6IzE4MTgxODtzdHJva2Utd2lkdGg6MS41OyIgd2lkdGg9IjkxIiB4PSI1MzMiIHk9Ijc0MTUuMzk4NCIvPjx0ZXh0IGZpbGw9IiMwMDAwMDAiIGZvbnQtZmFtaWx5PSJzYW5zLXNlcmlmIiBmb250LXNpemU9IjE0IiBsZW5ndGhBZGp1c3Q9InNwYWNpbmciIHRleHRMZW5ndGg9IjcxIiB4PSI1NDMiIHk9Ijc0MzguNjMyOCI+VGVtcGxhdGluZzwvdGV4dD48cGF0aCBkPSJNNDgzLDc0ODcuODc1IEw0OTMsNzQ4Ny44NzUgQzUwOCw3NDg3Ljg3NSA1MDgsNzQzMi44OTA2IDUyMyw3NDMyLjg5MDYgTDUzMyw3NDMyLjg5MDYgIiBmaWxsPSJub25lIiBzdHlsZT0ic3Ryb2tlOiMxODE4MTg7c3Ryb2tlLXdpZHRoOjEuMDsiLz48cmVjdCBmaWxsPSIjRjFGMUYxIiBoZWlnaHQ9IjM0Ljk4NDQiIHJ4PSIxMi41IiByeT0iMTIuNSIgc3R5bGU9InN0cm9rZTojMTgxODE4O3N0cm9rZS13aWR0aDoxLjU7IiB3aWR0aD0iNzYiIHg9IjUzMyIgeT0iNzQ3MC4zODI4Ii8+PHRleHQgZmlsbD0iIzAwMDAwMCIgZm9udC1mYW1pbHk9InNhbnMtc2VyaWYiIGZvbnQtc2l6ZT0iMTQiIGxlbmd0aEFkanVzdD0ic3BhY2luZyIgdGV4dExlbmd0aD0iNTYiIHg9IjU0MyIgeT0iNzQ5My42MTcyIj5TZWN1cml0eTwvdGV4dD48cGF0aCBkPSJNNDgzLDc0ODcuODc1IEw0OTMsNzQ4Ny44NzUgQzUwOCw3NDg3Ljg3NSA1MDgsNzQ4Ny44NzUgNTIzLDc0ODcuODc1IEw1MzMsNzQ4Ny44NzUgIiBmaWxsPSJub25lIiBzdHlsZT0ic3Ryb2tlOiMxODE4MTg7c3Ryb2tlLXdpZHRoOjEuMDsiLz48cmVjdCBmaWxsPSIjRjFGMUYxIiBoZWlnaHQ9IjM0Ljk4NDQiIHJ4PSIxMi41IiByeT0iMTIuNSIgc3R5bGU9InN0cm9rZTojMTgxODE4O3N0cm9rZS13aWR0aDoxLjU7IiB3aWR0aD0iMTExIiB4PSI1MzMiIHk9Ijc1MjUuMzY3MiIvPjx0ZXh0IGZpbGw9IiMwMDAwMDAiIGZvbnQtZmFtaWx5PSJzYW5zLXNlcmlmIiBmb250LXNpemU9IjE0IiBsZW5ndGhBZGp1c3Q9InNwYWNpbmciIHRleHRMZW5ndGg9IjkxIiB4PSI1NDMiIHk9Ijc1NDguNjAxNiI+QXV0aG9yaXphdGlvbjwvdGV4dD48cGF0aCBkPSJNNDgzLDc0ODcuODc1IEw0OTMsNzQ4Ny44NzUgQzUwOCw3NDg3Ljg3NSA1MDgsNzU0Mi44NTk0IDUyMyw3NTQyLjg1OTQgTDUzMyw3NTQyLjg1OTQgIiBmaWxsPSJub25lIiBzdHlsZT0ic3Ryb2tlOiMxODE4MTg7c3Ryb2tlLXdpZHRoOjEuMDsiLz48cmVjdCBmaWxsPSIjRjFGMUYxIiBoZWlnaHQ9IjM0Ljk4NDQiIHJ4PSIxMi41IiByeT0iMTIuNSIgc3R5bGU9InN0cm9rZTojMTgxODE4O3N0cm9rZS13aWR0aDoxLjU7IiB3aWR0aD0iMTQ3IiB4PSI1MzMiIHk9Ijc1ODAuMzUxNiIvPjx0ZXh0IGZpbGw9IiMwMDAwMDAiIGZvbnQtZmFtaWx5PSJzYW5zLXNlcmlmIiBmb250LXNpemU9IjE0IiBsZW5ndGhBZGp1c3Q9InNwYWNpbmciIHRleHRMZW5ndGg9IjEyNyIgeD0iNTQzIiB5PSI3NjAzLjU4NTkiPlNlc3Npb24gTWFuYWdlbWVudDwvdGV4dD48cGF0aCBkPSJNNDgzLDc0ODcuODc1IEw0OTMsNzQ4Ny44NzUgQzUwOCw3NDg3Ljg3NSA1MDgsNzU5Ny44NDM4IDUyMyw3NTk3Ljg0MzggTDUzMyw3NTk3Ljg0MzggIiBmaWxsPSJub25lIiBzdHlsZT0ic3Ryb2tlOiMxODE4MTg7c3Ryb2tlLXdpZHRoOjEuMDsiLz48cGF0aCBkPSJNMzYzLDcyNjcuOTM3NSBMMzczLDcyNjcuOTM3NSBDMzg4LDcyNjcuOTM3NSAzODgsNzQ4Ny44NzUgNDAzLDc0ODcuODc1IEw0MTMsNzQ4Ny44NzUgIiBmaWxsPSJub25lIiBzdHlsZT0ic3Ryb2tlOiMxODE4MTg7c3Ryb2tlLXdpZHRoOjEuMDsiLz48cmVjdCBmaWxsPSIjRjFGMUYxIiBoZWlnaHQ9IjM0Ljk4NDQiIHJ4PSIxMi41IiByeT0iMTIuNSIgc3R5bGU9InN0cm9rZTojMTgxODE4O3N0cm9rZS13aWR0aDoxLjU7IiB3aWR0aD0iNjkiIHg9IjQxMyIgeT0iNzc3Mi43OTY5Ii8+PHRleHQgZmlsbD0iIzAwMDAwMCIgZm9udC1mYW1pbHk9InNhbnMtc2VyaWYiIGZvbnQtc2l6ZT0iMTQiIGxlbmd0aEFkanVzdD0ic3BhY2luZyIgdGV4dExlbmd0aD0iNDkiIHg9IjQyMyIgeT0iNzc5Ni4wMzEzIj5GYXN0QVBJPC90ZXh0PjxyZWN0IGZpbGw9IiNGMUYxRjEiIGhlaWdodD0iMzQuOTg0NCIgcng9IjEyLjUiIHJ5PSIxMi41IiBzdHlsZT0ic3Ryb2tlOiMxODE4MTg7c3Ryb2tlLXdpZHRoOjEuNTsiIHdpZHRoPSIxMzMiIHg9IjUzMiIgeT0iNzYzNS4zMzU5Ii8+PHRleHQgZmlsbD0iIzAwMDAwMCIgZm9udC1mYW1pbHk9InNhbnMtc2VyaWYiIGZvbnQtc2l6ZT0iMTQiIGxlbmd0aEFkanVzdD0ic3BhY2luZyIgdGV4dExlbmd0aD0iMTEzIiB4PSI1NDIiIHk9Ijc2NTguNTcwMyI+SGlnaCBQZXJmb3JtYW5jZTwvdGV4dD48cGF0aCBkPSJNNDgyLDc3OTAuMjg5MSBMNDkyLDc3OTAuMjg5MSBDNTA3LDc3OTAuMjg5MSA1MDcsNzY1Mi44MjgxIDUyMiw3NjUyLjgyODEgTDUzMiw3NjUyLjgyODEgIiBmaWxsPSJub25lIiBzdHlsZT0ic3Ryb2tlOiMxODE4MTg7c3Ryb2tlLXdpZHRoOjEuMDsiLz48cmVjdCBmaWxsPSIjRjFGMUYxIiBoZWlnaHQ9IjM0Ljk4NDQiIHJ4PSIxMi41IiByeT0iMTIuNSIgc3R5bGU9InN0cm9rZTojMTgxODE4O3N0cm9rZS13aWR0aDoxLjU7IiB3aWR0aD0iMTMyIiB4PSI1MzIiIHk9Ijc2OTAuMzIwMyIvPjx0ZXh0IGZpbGw9IiMwMDAwMDAiIGZvbnQtZmFtaWx5PSJzYW5zLXNlcmlmIiBmb250LXNpemU9IjE0IiBsZW5ndGhBZGp1c3Q9InNwYWNpbmciIHRleHRMZW5ndGg9IjExMiIgeD0iNTQyIiB5PSI3NzEzLjU1NDciPlR5cGUgQW5ub3RhdGlvbnM8L3RleHQ+PHBhdGggZD0iTTQ4Miw3NzkwLjI4OTEgTDQ5Miw3NzkwLjI4OTEgQzUwNyw3NzkwLjI4OTEgNTA3LDc3MDcuODEyNSA1MjIsNzcwNy44MTI1IEw1MzIsNzcwNy44MTI1ICIgZmlsbD0ibm9uZSIgc3R5bGU9InN0cm9rZTojMTgxODE4O3N0cm9rZS13aWR0aDoxLjA7Ii8+PHJlY3QgZmlsbD0iI0YxRjFGMSIgaGVpZ2h0PSIzNC45ODQ0IiByeD0iMTIuNSIgcnk9IjEyLjUiIHN0eWxlPSJzdHJva2U6IzE4MTgxODtzdHJva2Utd2lkdGg6MS41OyIgd2lkdGg9IjExOCIgeD0iNTMyIiB5PSI3NzQ1LjMwNDciLz48dGV4dCBmaWxsPSIjMDAwMDAwIiBmb250LWZhbWlseT0ic2Fucy1zZXJpZiIgZm9udC1zaXplPSIxNCIgbGVuZ3RoQWRqdXN0PSJzcGFjaW5nIiB0ZXh0TGVuZ3RoPSI5OCIgeD0iNTQyIiB5PSI3NzY4LjUzOTEiPkFQSSBHZW5lcmF0aW9uPC90ZXh0PjxwYXRoIGQ9Ik00ODIsNzc5MC4yODkxIEw0OTIsNzc5MC4yODkxIEM1MDcsNzc5MC4yODkxIDUwNyw3NzYyLjc5NjkgNTIyLDc3NjIuNzk2OSBMNTMyLDc3NjIuNzk2OSAiIGZpbGw9Im5vbmUiIHN0eWxlPSJzdHJva2U6IzE4MTgxODtzdHJva2Utd2lkdGg6MS4wOyIvPjxyZWN0IGZpbGw9IiNGMUYxRjEiIGhlaWdodD0iMzQuOTg0NCIgcng9IjEyLjUiIHJ5PSIxMi41IiBzdHlsZT0ic3Ryb2tlOiMxODE4MTg7c3Ryb2tlLXdpZHRoOjEuNTsiIHdpZHRoPSI2OSIgeD0iNTMyIiB5PSI3ODAwLjI4OTEiLz48dGV4dCBmaWxsPSIjMDAwMDAwIiBmb250LWZhbWlseT0ic2Fucy1zZXJpZiIgZm9udC1zaXplPSIxNCIgbGVuZ3RoQWRqdXN0PSJzcGFjaW5nIiB0ZXh0TGVuZ3RoPSI0OSIgeD0iNTQyIiB5PSI3ODIzLjUyMzQiPkFzeW5jaW88L3RleHQ+PHBhdGggZD0iTTQ4Miw3NzkwLjI4OTEgTDQ5Miw3NzkwLjI4OTEgQzUwNyw3NzkwLjI4OTEgNTA3LDc4MTcuNzgxMyA1MjIsNzgxNy43ODEzIEw1MzIsNzgxNy43ODEzICIgZmlsbD0ibm9uZSIgc3R5bGU9InN0cm9rZTojMTgxODE4O3N0cm9rZS13aWR0aDoxLjA7Ii8+PHJlY3QgZmlsbD0iI0YxRjFGMSIgaGVpZ2h0PSIzNC45ODQ0IiByeD0iMTIuNSIgcnk9IjEyLjUiIHN0eWxlPSJzdHJva2U6IzE4MTgxODtzdHJva2Utd2lkdGg6MS41OyIgd2lkdGg9Ijc2IiB4PSI1MzIiIHk9Ijc4NTUuMjczNCIvPjx0ZXh0IGZpbGw9IiMwMDAwMDAiIGZvbnQtZmFtaWx5PSJzYW5zLXNlcmlmIiBmb250LXNpemU9IjE0IiBsZW5ndGhBZGp1c3Q9InNwYWNpbmciIHRleHRMZW5ndGg9IjU2IiB4PSI1NDIiIHk9Ijc4NzguNTA3OCI+U2VjdXJpdHk8L3RleHQ+PHBhdGggZD0iTTQ4Miw3NzkwLjI4OTEgTDQ5Miw3NzkwLjI4OTEgQzUwNyw3NzkwLjI4OTEgNTA3LDc4NzIuNzY1NiA1MjIsNzg3Mi43NjU2IEw1MzIsNzg3Mi43NjU2ICIgZmlsbD0ibm9uZSIgc3R5bGU9InN0cm9rZTojMTgxODE4O3N0cm9rZS13aWR0aDoxLjA7Ii8+PHJlY3QgZmlsbD0iI0YxRjFGMSIgaGVpZ2h0PSIzNC45ODQ0IiByeD0iMTIuNSIgcnk9IjEyLjUiIHN0eWxlPSJzdHJva2U6IzE4MTgxODtzdHJva2Utd2lkdGg6MS41OyIgd2lkdGg9IjYyIiB4PSI1MzIiIHk9Ijc5MTAuMjU3OCIvPjx0ZXh0IGZpbGw9IiMwMDAwMDAiIGZvbnQtZmFtaWx5PSJzYW5zLXNlcmlmIiBmb250LXNpemU9IjE0IiBsZW5ndGhBZGp1c3Q9InNwYWNpbmciIHRleHRMZW5ndGg9IjQyIiB4PSI1NDIiIHk9Ijc5MzMuNDkyMiI+T0F1dGgyPC90ZXh0PjxwYXRoIGQ9Ik00ODIsNzc5MC4yODkxIEw0OTIsNzc5MC4yODkxIEM1MDcsNzc5MC4yODkxIDUwNyw3OTI3Ljc1IDUyMiw3OTI3Ljc1IEw1MzIsNzkyNy43NSAiIGZpbGw9Im5vbmUiIHN0eWxlPSJzdHJva2U6IzE4MTgxODtzdHJva2Utd2lkdGg6MS4wOyIvPjxwYXRoIGQ9Ik0zNjMsNzI2Ny45Mzc1IEwzNzMsNzI2Ny45Mzc1IEMzODgsNzI2Ny45Mzc1IDM4OCw3NzkwLjI4OTEgNDAzLDc3OTAuMjg5MSBMNDEzLDc3OTAuMjg5MSAiIGZpbGw9Im5vbmUiIHN0eWxlPSJzdHJva2U6IzE4MTgxODtzdHJva2Utd2lkdGg6MS4wOyIvPjxwYXRoIGQ9Ik0yMjEsMzk4Mi42MjExIEwyMzEsMzk4Mi42MjExIEMyNDYsMzk4Mi42MjExIDI0Niw3MjY3LjkzNzUgMjYxLDcyNjcuOTM3NSBMMjcxLDcyNjcuOTM3NSAiIGZpbGw9Im5vbmUiIHN0eWxlPSJzdHJva2U6IzE4MTgxODtzdHJva2Utd2lkdGg6MS4wOyIvPjwhLS1NRDU9WzZiNDhmY2ZiODI2NDQ2MzY2ZTBiODdkNzdhZDBhMmQ4XQpAc3RhcnRtaW5kbWFwDQoqIFB5dGhvbiBQcm9ncmFtbWluZyBMYW5ndWFnZQ0KKiogQ2hhcmFjdGVyaXN0aWNzDQoqKiogT2JqZWN0LU9yaWVudGVkDQoqKiogRHluYW1pYw0KKioqIEludGVycHJldGVkDQoqKiogSGlnaC1sZXZlbA0KKiogRGF0YSBNb2RlbHMNCioqKiBNdXRhYmxlIFNlcXVlbmNlDQoqKioqIExpc3QNCioqKiogQnl0ZSBBcnJheQ0KKioqKiBieXRlYXJyYXkNCioqKiBJbW11dGFibGUgU2VxdWVuY2UNCioqKiogVHVwbGUNCioqKiogU3RyaW5nDQoqKioqIGJ5dGVzDQoqKioqIHJhbmdlDQoqKiogU2V0DQoqKioqIFNldA0KKioqKiBGcm96ZW5zZXQNCioqKiBNYXBwaW5nDQoqKioqIERpY3Rpb25hcnkNCioqKiBPdGhlciBCdWlsdC1JbiBUeXBlcw0KKioqKiBCb29sZWFuDQoqKioqIE51bWVyaWMgVHlwZXMNCioqKiogTm9uZQ0KKioqKiBFbGxpcHNpcw0KKioqKiBOb3RJbXBsZW1lbnRlZA0KKioqKiBGdW5jdGlvbg0KKioqKiBHZW5lcmF0b3INCioqKiogQ29yb3V0aW5lDQoqKiBEYXRhIFN0cnVjdHVyZXMNCioqKiBBcnJheXMNCioqKiBTdGFja3MNCioqKiogTElGTw0KKioqKiBGSUxPDQoqKiogUXVldWVzDQoqKioqIEZJRk8NCioqKiogUHJpb3JpdHkgUXVldWUNCioqKiogRG91YmxlLUVuZGVkIFF1ZXVlDQoqKioqIENpcmN1bGFyIFF1ZXVlDQoqKiogTGlua2VkIExpc3RzDQoqKioqIFNpbmdseSBMaW5rZWQgTGlzdA0KKioqKiBEb3VibHkgTGlua2VkIExpc3QNCioqKiogQ2lyY3VsYXIgTGlua2VkIExpc3QNCioqKiBUcmVlcw0KKioqKiBCaW5hcnkgVHJlZXMNCioqKiogQVZMIFRyZWVzDQoqKioqIFJlZC1CbGFjayBUcmVlcw0KKioqKiBCLVRyZWVzDQoqKiogR3JhcGhzDQoqKioqIERpcmVjdGVkIEdyYXBoDQoqKioqIFVuZGlyZWN0ZWQgR3JhcGgNCioqKiogV2VpZ2h0ZWQgR3JhcGgNCioqKiogQ3ljbGljIEdyYXBoDQoqKioqIEFjeWNsaWMgR3JhcGgNCioqIFVzZXMNCioqKiBTY2llbnRpZmljIENvbXB1dGluZw0KKioqKiBNYXRwbG90bGliDQoqKioqIFN5bVB5DQoqKioqIFNjaVB5DQoqKioqIE51bVB5DQoqKiogRGF0YSBBbmFseXNpcw0KKioqKiBQYW5kYXMNCioqKiogRGF0YUZyYW1lcw0KKioqKiBTZXJpZXMNCioqKiogSS9PIFRvb2xzDQoqKioqIFZpc3VhbGl6YXRpb24NCioqKiogU1FMIEludGVncmF0aW9uDQoqKiogV2ViIERldmVsb3BtZW50DQoqKioqIEZsYXNrDQoqKioqIERqYW5nbw0KKioqKiBQeXJhbWlkDQoqKioqIEZhc3RBUEkNCioqKiBNYWNoaW5lIExlYXJuaW5nDQoqKioqIFRlbnNvckZsb3cNCioqKiogS2VyYXMNCioqKiogUHlUb3JjaA0KKioqKiBTY2lraXQtbGVhcm4NCioqKiogT3BlbkNWDQoqKioqIE5hdHVyYWwgTGFuZ3VhZ2UgVG9vbGtpdA0KKiogTGlicmFyaWVzDQoqKiogTWF0cGxvdGxpYg0KKioqKiBQeXBsb3QNCioqKiogQW5pbWF0aW9uDQoqKioqIDNEIFBsb3RzDQoqKiogU3ltUHkNCioqKiogU3ltYm9saWMgQ29tcHV0YXRpb24NCioqKiogQ2FsY3VsdXMNCioqKiogQWxnZWJyYQ0KKioqIFNjaVB5DQoqKioqIE9wdGltaXphdGlvbg0KKioqKiBMaW5lYXIgQWxnZWJyYQ0KKioqKiBJbnRlZ3JhdGlvbg0KKioqKiBTaWduYWwgUHJvY2Vzc2luZw0KKioqKiBGb3VyaWVyIFRyYW5zZm9ybQ0KKioqIE51bVB5DQoqKioqIEFycmF5cw0KKioqKiBNYXRyaWNlcw0KKioqKiBSYW5kb20gTnVtYmVyIEdlbmVyYXRpb24NCioqKiogQnJvYWRjYXN0aW5nDQoqKioqIEluZGV4aW5nDQoqKioqIFNsaWNpbmcNCioqKiBQYW5kYXMNCioqKiogRGF0YUZyYW1lcw0KKioqKiBTZXJpZXMNCioqKiogSS9PIFRvb2xzDQoqKioqIFJlc2hhcGluZw0KKioqKiBNZXJnaW5nDQoqKioqIEdyb3VwaW5nDQoqKioqIEFnZ3JlZ2F0aW5nDQoqKioqIFBpdm90IFRhYmxlcw0KKioqKiBUaW1lIFNlcmllcw0KKioqIFNjaWtpdC1sZWFybg0KKioqKiBTdXBlcnZpc2VkIExlYXJuaW5nDQoqKioqIFVuc3VwZXJ2aXNlZCBMZWFybmluZw0KKioqKiBEaW1lbnNpb25hbGl0eSBSZWR1Y3Rpb24NCioqKiogTW9kZWwgU2VsZWN0aW9uDQoqKioqIFByZXByb2Nlc3NpbmcNCioqKiBUZW5zb3JGbG93DQoqKioqIE5ldXJhbCBOZXR3b3Jrcw0KKioqKiBDb252b2x1dGlvbmFsIE5ldXJhbCBOZXR3b3Jrcw0KKioqKiBSZWN1cnJlbnQgTmV1cmFsIE5ldHdvcmtzDQoqKioqIEF1dG9lbmNvZGVycw0KKioqKiBUcmFuc2ZlciBMZWFybmluZw0KKioqKiBSZWluZm9yY2VtZW50IExlYXJuaW5nDQoqKioqIFRlbnNvckJvYXJkDQoqKiogUHlUb3JjaA0KKioqKiBUZW5zb3IgQ29tcHV0YXRpb24NCioqKiogQXV0b2dyYWQgU3lzdGVtDQoqKioqIE5ldXJhbCBOZXR3b3Jrcw0KKioqKiBDb252b2x1dGlvbmFsIE5ldXJhbCBOZXR3b3Jrcw0KKioqKiBSZWN1cnJlbnQgTmV1cmFsIE5ldHdvcmtzDQoqKioqIEF1dG9lbmNvZGVycw0KKioqKiBUcmFuc2ZlciBMZWFybmluZw0KKioqKiBSZWluZm9yY2VtZW50IExlYXJuaW5nDQoqKiogT3BlbkNWDQoqKioqIEltYWdlIFByb2Nlc3NpbmcNCioqKiogQ29tcHV0ZXIgVmlzaW9uDQoqKioqIE9iamVjdCBEZXRlY3Rpb24NCioqKiogRmFjZSBSZWNvZ25pdGlvbg0KKioqKiBGZWF0dXJlIERldGVjdGlvbg0KKioqKiBPcHRpY2FsIEZsb3cNCioqKiBOYXR1cmFsIExhbmd1YWdlIFRvb2xraXQNCioqKiogVG9rZW5pemF0aW9uDQoqKioqIFBhcnQtb2YtU3BlZWNoIFRhZ2dpbmcNCioqKiogTmFtZWQgRW50aXR5IFJlY29nbml0aW9uDQoqKioqIFNlbnRpbWVudCBBbmFseXNpcw0KKioqKiBXb3JkTmV0DQoqKioqIFN0ZW1taW5nDQoqKioqIExlbW1hdGl6YXRpb24NCioqIEZyYW1ld29ya3MNCioqKiBGbGFzaw0KKioqKiBSb3V0aW5nDQoqKioqIEhUVFAgTWV0aG9kcw0KKioqKiBUZW1wbGF0ZXMNCioqKiogU2Vzc2lvbnMNCioqKiogQ29va2llcw0KKioqKiBCbHVlcHJpbnRzDQoqKiogRGphbmdvDQoqKioqIEFkbWluIEludGVyZmFjZQ0KKioqKiBPUk0NCioqKiogUm91dGluZw0KKioqKiBGb3Jtcw0KKioqKiBUZW1wbGF0ZXMNCioqKiogU2Vzc2lvbnMNCioqKiogQ2FjaGluZw0KKioqKiBTZWN1cml0eQ0KKioqIFB5cmFtaWQNCioqKiogUm91dGluZw0KKioqKiBUZW1wbGF0aW5nDQoqKioqIFNlY3VyaXR5DQoqKioqIEF1dGhvcml6YXRpb24NCioqKiogU2Vzc2lvbiBNYW5hZ2VtZW50DQoqKiogRmFzdEFQSQ0KKioqKiBIaWdoIFBlcmZvcm1hbmNlDQoqKioqIFR5cGUgQW5ub3RhdGlvbnMNCioqKiogQVBJIEdlbmVyYXRpb24NCioqKiogQXN5bmNpbw0KKioqKiBTZWN1cml0eQ0KKioqKiBPQXV0aDINCkBlbmRtaW5kbWFwDQoKUGxhbnRVTUwgdmVyc2lvbiAxLjIwMjIuNihUdWUgSnVuIDIxIDE3OjM0OjQ5IEdNVCAyMDIyKQpKYXZhIFJ1bnRpbWU6IE9wZW5KREsgUnVudGltZSBFbnZpcm9ubWVudApKVk06IE9wZW5KREsgNjQtQml0IFNlcnZlciBWTQpEZWZhdWx0IEVuY29kaW5nOiBVVEYtOApMYW5ndWFnZTogZW4KQ291bnRyeTogVVMKLS0+PC9nPjwvc3ZnPg==;" vertex="1" parent="1">
            <mxGeometry x="150" y="640" width="843" height="7967" as="geometry" />
          </mxCell>
        </UserObject>
      </root>
    </mxGraphModel>
  </diagram>
</mxfile>
